<mxfile host="65bd71144e">
    <diagram id="nDrZ3ZeRW0BNxUaxVKuN" name="Page-1">
        <mxGraphModel dx="979" dy="588" grid="1" gridSize="10" guides="1" tooltips="1" connect="1" arrows="1" fold="1" page="1" pageScale="1" pageWidth="1654" pageHeight="2336" math="0" shadow="0">
            <root>
                <mxCell id="0"/>
                <mxCell id="1" parent="0"/>
                <mxCell id="48" value="" style="fillColor=#EFF0F3;strokeColor=none;dashed=0;verticalAlign=top;fontStyle=0;fontColor=#232F3D;html=1;" parent="1" vertex="1">
                    <mxGeometry x="40" y="40" width="1240" height="480" as="geometry"/>
                </mxCell>
                <mxCell id="44" value="Notifies on&#xa;deployment statusÂ " style="edgeStyle=none;entryX=1;entryY=0.5;entryDx=0;entryDy=0;labelBackgroundColor=#EFF0F3;fontColor=#000000;strokeColor=#000000;" parent="1" source="11" target="34" edge="1">
                    <mxGeometry x="0.2249" relative="1" as="geometry">
                        <mxPoint x="822.037037037037" y="296" as="sourcePoint"/>
                        <mxPoint x="508.00000000000034" y="458.5" as="targetPoint"/>
                        <Array as="points">
                            <mxPoint x="1015" y="416"/>
                        </Array>
                        <mxPoint as="offset"/>
                    </mxGeometry>
                </mxCell>
                <mxCell id="42" value="Notifies on&#xa;build/promotion status" style="edgeStyle=none;entryX=0;entryY=0.5;entryDx=0;entryDy=0;labelBackgroundColor=#EFF0F3;fontColor=#000000;strokeColor=#000000;exitX=0.5;exitY=1;exitDx=0;exitDy=0;" parent="1" source="51" target="34" edge="1">
                    <mxGeometry x="0.3869" relative="1" as="geometry">
                        <Array as="points">
                            <mxPoint x="297" y="416"/>
                        </Array>
                        <mxPoint as="offset"/>
                    </mxGeometry>
                </mxCell>
                <mxCell id="53" value="Commit/manually&#xa;triggered&#xa;workflow" style="edgeStyle=none;labelBackgroundColor=#EFF0F3;strokeColor=#000000;fontColor=#000000;" parent="1" source="2" target="51" edge="1">
                    <mxGeometry relative="1" as="geometry"/>
                </mxCell>
                <mxCell id="2" value="Application&#xa;Code&#xa;Repository" style="dashed=0;outlineConnect=0;align=center;labelPosition=center;verticalLabelPosition=bottom;verticalAlign=top;shape=mxgraph.weblogos.github;labelBackgroundColor=#EFF0F3;fontColor=#000000;" parent="1" vertex="1">
                    <mxGeometry x="80" y="221" width="75" height="75" as="geometry"/>
                </mxCell>
                <mxCell id="39" value="Monitors for&#xa;updates on&#xa;definitions" style="edgeStyle=none;labelBackgroundColor=#EFF0F3;fontColor=#000000;strokeColor=#000000;" parent="1" source="11" target="18" edge="1">
                    <mxGeometry relative="1" as="geometry"/>
                </mxCell>
                <mxCell id="40" value="Syncs updates&#xa;on application&#xa;deployment" style="edgeStyle=none;entryX=0;entryY=0.5;entryDx=0;entryDy=0;labelBackgroundColor=#EFF0F3;fontColor=#000000;strokeColor=#000000;" parent="1" source="11" target="28" edge="1">
                    <mxGeometry relative="1" as="geometry"/>
                </mxCell>
                <mxCell id="11" value="ArgoCD" style="shape=image;verticalLabelPosition=bottom;labelBackgroundColor=#EFF0F3;verticalAlign=top;aspect=fixed;imageAspect=0;image=https://raw.githubusercontent.com/NX211/homer-icons/master/png/argocd.png;fontColor=#000000;" parent="1" vertex="1">
                    <mxGeometry x="980" y="221" width="75" height="75" as="geometry"/>
                </mxCell>
                <mxCell id="12" value="Application&#xa;Container&#xa;Repository&#xa;" style="sketch=0;points=[[0,0,0],[0.25,0,0],[0.5,0,0],[0.75,0,0],[1,0,0],[0,1,0],[0.25,1,0],[0.5,1,0],[0.75,1,0],[1,1,0],[0,0.25,0],[0,0.5,0],[0,0.75,0],[1,0.25,0],[1,0.5,0],[1,0.75,0]];outlineConnect=0;fontColor=#000000;gradientColor=#F78E04;gradientDirection=north;fillColor=#D05C17;strokeColor=#ffffff;dashed=0;verticalLabelPosition=bottom;verticalAlign=top;align=center;fontSize=12;fontStyle=0;aspect=fixed;shape=mxgraph.aws4.resourceIcon;resIcon=mxgraph.aws4.ecr;labelBackgroundColor=#EFF0F3;" parent="1" vertex="1">
                    <mxGeometry x="440" y="221" width="75" height="75" as="geometry"/>
                </mxCell>
                <mxCell id="18" value="Application&#xa;Manifests&#xa;Repository" style="dashed=0;outlineConnect=0;align=center;labelPosition=center;verticalLabelPosition=bottom;verticalAlign=top;shape=mxgraph.weblogos.github;labelBackgroundColor=#EFF0F3;fontColor=#000000;" parent="1" vertex="1">
                    <mxGeometry x="800" y="221" width="75" height="75" as="geometry"/>
                </mxCell>
                <mxCell id="37" value="Monitors&#xa;for new&#xa;images" style="edgeStyle=none;entryX=1;entryY=0.5;entryDx=0;entryDy=0;entryPerimeter=0;labelBackgroundColor=#EFF0F3;fontColor=#000000;strokeColor=#000000;" parent="1" source="19" target="12" edge="1">
                    <mxGeometry relative="1" as="geometry"/>
                </mxCell>
                <mxCell id="38" value="Updates&#xa;image&#xa;version on&#xa;manifest" style="edgeStyle=none;labelBackgroundColor=#EFF0F3;fontColor=#000000;strokeColor=#000000;" parent="1" source="19" target="18" edge="1">
                    <mxGeometry x="0.0084" relative="1" as="geometry">
                        <mxPoint as="offset"/>
                    </mxGeometry>
                </mxCell>
                <mxCell id="19" value="Argo&#xa;Image Updater" style="shape=image;verticalLabelPosition=bottom;labelBackgroundColor=#EFF0F3;verticalAlign=top;aspect=fixed;imageAspect=0;image=https://raw.githubusercontent.com/NX211/homer-icons/master/png/argocd.png;fontColor=#000000;" parent="1" vertex="1">
                    <mxGeometry x="620" y="221" width="75" height="75" as="geometry"/>
                </mxCell>
                <mxCell id="21" value="Application" style="group;labelPosition=center;verticalLabelPosition=bottom;align=center;verticalAlign=top;labelBackgroundColor=#EFF0F3;fontColor=#000000;" parent="1" vertex="1" connectable="0">
                    <mxGeometry x="800" y="80" width="80" height="77" as="geometry"/>
                </mxCell>
                <mxCell id="20" value="" style="sketch=0;html=1;dashed=0;whitespace=wrap;fillColor=#2875E2;strokeColor=#ffffff;points=[[0.005,0.63,0],[0.1,0.2,0],[0.9,0.2,0],[0.5,0,0],[0.995,0.63,0],[0.72,0.99,0],[0.5,1,0],[0.28,0.99,0]];verticalLabelPosition=bottom;align=center;verticalAlign=top;shape=mxgraph.kubernetes.icon;prIcon=crd;aspect=fixed;labelBackgroundColor=#EFF0F3;fontColor=#000000;" parent="21" vertex="1">
                    <mxGeometry y="5" width="75" height="72" as="geometry"/>
                </mxCell>
                <mxCell id="15" value="" style="shape=image;verticalLabelPosition=bottom;labelBackgroundColor=#EFF0F3;verticalAlign=top;aspect=fixed;imageAspect=0;image=https://raw.githubusercontent.com/NX211/homer-icons/master/png/argocd.png;fontColor=#000000;html=1;" parent="21" vertex="1">
                    <mxGeometry x="40" width="40" height="40" as="geometry"/>
                </mxCell>
                <mxCell id="28" value="Application" style="group;labelPosition=center;verticalLabelPosition=bottom;align=center;verticalAlign=top;movable=1;resizable=1;rotatable=1;deletable=1;editable=1;connectable=1;labelBackgroundColor=#EFF0F3;fontColor=#000000;" parent="1" vertex="1" connectable="0">
                    <mxGeometry x="1158" y="221" width="80" height="75" as="geometry"/>
                </mxCell>
                <mxCell id="23" value="" style="sketch=0;html=1;dashed=0;whitespace=wrap;fillColor=#2875E2;strokeColor=#ffffff;points=[[0.005,0.63,0],[0.1,0.2,0],[0.9,0.2,0],[0.5,0,0],[0.995,0.63,0],[0.72,0.99,0],[0.5,1,0],[0.28,0.99,0]];verticalLabelPosition=bottom;align=center;verticalAlign=top;shape=mxgraph.kubernetes.icon;prIcon=pod;aspect=fixed;movable=0;resizable=0;rotatable=0;deletable=0;editable=0;connectable=0;" parent="28" vertex="1">
                    <mxGeometry y="3" width="75" height="72" as="geometry"/>
                </mxCell>
                <mxCell id="35" value="Slack" style="group;verticalAlign=top;labelPosition=center;verticalLabelPosition=bottom;align=center;labelBackgroundColor=#EFF0F3;fontColor=#000000;" parent="1" vertex="1" connectable="0">
                    <mxGeometry x="513" y="378" width="75" height="75" as="geometry"/>
                </mxCell>
                <mxCell id="34" value="" style="ellipse;whiteSpace=wrap;html=1;aspect=fixed;fillStyle=solid;fillColor=#FFFFFF;strokeColor=none;labelPosition=center;verticalLabelPosition=bottom;align=center;verticalAlign=bottom;labelBackgroundColor=#EFF0F3;fontColor=#000000;" parent="35" vertex="1">
                    <mxGeometry width="75" height="75" as="geometry"/>
                </mxCell>
                <mxCell id="33" value="" style="shape=image;verticalLabelPosition=bottom;labelBackgroundColor=#EFF0F3;verticalAlign=bottom;aspect=fixed;imageAspect=0;image=data:image/png,iVBORw0KGgoAAAANSUhEUgAABkAAAAZACAMAAAAW0n6VAAAAw1BMVEVHcEzssi42xfAutn3ssi7gHloutn02xfDgHloutn02xfDgHlrssi4utn02xfDgHlrssi4utn02xfDgHlrssi42xfDssi4utn3gHloutn02xfDgHlrssi7ssi4utn02xfDgHloutn02xfDssi7gHlrgHlrssi4utn02xfA2xfAutn3gHlrssi7ssi4utn3gHlo2xfDssi7ssi4utn02xfDgHlrgHloutn02xfDgHlrssi4utn02xfDgHloutn3ssi42xfDMW0xwAAAAPXRSTlMAv7/vQL+/QEBA7+/vEBAQEICAgICfn5+fYGBgYDAwMDAgICDfIN/f38/Pz89QUFBQj6+Pj4+vcHBwcK+vrpguGQAAIABJREFUeNrs3V2L4soWBuCNgqJgg4I09oXS3vhxIYKCQjdF/v+v2n3O2cyZmT0z3SYmrlSe59JLQ/JStdaq+usvAAAAAAAAAAAAAAAAAAAAAAAAAAAAAAAAAAAAAAAAAKjPaji8zmazee9H54/fjsPh2h/0OK+j0WE6nZ4GP3r++O0yGi39QcBjPA1fPkJjV3yu15vNhiv/WHOWo+l0MEif23+EyWI08Y8BDVkPP5KjuNm2N3sZ+vfqNVpMB5t0s48cGb3694Bas+M4642LKnbzqxSpJzsuz/tURX8wPUgRoA6r63xb3EfvfHzyh97P5HAapPvYPF/URoC7rjyu7+PivnZC5F7hsU/31X+7WIkAd3G828rjXyuRq9p6JcvLINVj83zw9wKVPL28F7Xano/+5XIOp02q1dtCfxZQ0vq6KxownsuQ29PjuZ8asLeZBQRce/yYIfaybrBsJj2sQ4AyjvOiYduZofUveZ1uUsPUQ4CvWs+2xSP0Xvz3n1kM0iNspraygC8sPt6LhxmfLUP+tPg49dPDvFmGAH/0dN0Wj/VuUP03Rm/psTYX1RDgt3tX53HxeFs7Wb/au9qkx+uf7GQBv7KaF0FsZ4bUfzCZRoiP/xXUnXQC/GzYKwIZi5Dv46OfAhmMPBIgbHyIkLjxIUKA4PEhQuLGhwgBvlnPi6DG164/m0vI+PhvLUQ5HXg6F4F1uyNrsUmBnTT1QsfNxkVsvc7OhYwGKbb+1PsDHXbcFvHNO1kKmTyn+Dam06Gr1r2iFcaz7j2baT+1wkApBLq5e1W0xq5j+1ijfWoN+1jQPcNt0SbnDu1jTU6pTTZaeqFbYvde/XIf69iVZ3Pop5bRjwWWH8G9d2IRMnlL7WMRApYfFiGWHxYhQG7Lj2509Laid9ciBLprVrTYdpXzoxltUotpx4LcrXdFu2U8EzJN7bY3EwJZO46Ltutluo01GaS26xtMh4ydiwyMs5wqHPVTBk7eMbB9ZRvL9pVtLOCb4bjIRW4jIa0c/vjNNpZuLMjQtcjILqturOU+ZeTiXYPczIus5DRUeOinrDx72yArT7siN9lcd3tJudkbS4eMrLZFfuZ5PJvnlJ/N0jsHuciofJ7bREgG0x9K6ZCzlyJTu9YnyGSfMrXw3kEOrkW22n401nKTsqUZCzIwLzI2bnWCLPspY5qxQH5IEPkhQUB+ZJkgL219NIuUOwkC8iO4liZI/vkhQaDNMhwfzCZBupAfRgpBfkgQ+SFBoGO6kh8tTJCu5MdHgngPoY3mRSFB5Ic6CCA//qhVtxSOUpIggPwwD3Kz3Oc/JAjIDwkiPyQIdNBL0TnjdTsezWvn8sPJiiA/nM17D/mevytBIAuropAgQXUyP1JywxS0JT/G3QyQNtxR+NzN/Eh9CQKt8LQtumoW/dlMU1dtjKRDG+yK7go+ULhI3WUkHVpg3uH8CN7Mu+x3OEA080J8L0WnjQMX0iedzg+tWBDequi4Xdxns08dp5AOoT2Nux4gxTnqszl1PT9SXyEdItsVBC2kLxIK6RDYWXxELaQv+/IjpZN3FKI6So+oE+mTvfT4j4O3FGJSAIk7kf4sO5RBILKe6PjHMdqjOYiOfwy8pxDRTHBEPdr9VQHkm6k3FeJZyY3/68V6NgO5YRoEAnvSwfu9a6Rnc5Ea3/fyKoNANDp4w/by6uDVywuhDWVG2CNNdPD+ZOR9hVAbWFuR8ZMwd4NMJcZP3A0CoejACtuJpQNLJxaEpgMrbieWDiydWBCaDqywpyo6Q9GpihDaVVj8chMrwJlYExtYv3Tx1kIMzsCKeyaWM7CciQWhzUXFbwwf/WhGouI33JAOIRgBiTsMYgTEMAiEpoIeto6ugq6ODqG9iImodXQV9D9ZeHfh0VTQ486jm0FXR4fQzKCHnUc3g24eHSxAtPKWooXXEgRC08L7mYctQV5FhFZeiGwtID7z/qhn4xCsT716g8ECxDThv5khtAQBCxCn8lqAWIKABYgliAWIJQhgARJ7CWIBYgkCFiCWIBYgliBgAWIWpDFmQCxBwALELEgZZkAsQSA0Q+hxlyAWIMbRITSnYH1dw4fyTgSDE7EgtK1ciHoor2N4v27jTYbmuQfklkN5m302juG9gXtBoHkuIrxFo1cTuojwFq4mhMathELYYUJDhDdZepuhYXp4b7Nq7tEsZYJOXohMD2/cTl49vDp5ITQl9FvL6I118k6U0JXRITQl9LBldCV0ZXQITQk9bhldCV0ZHUI7C4SoB2I5But2J280NEgJPew0uin0EmV0bzQ05ygObrdt5tls5MHtDt5paIwhkLCjIIZAjIKAHaz8nJt4NCdpYA8L7GDZw7KDZQ8L7GDR1B6WHSx7WGAHyx6WHSx7WGAHi+b2sOxg2cMCO1j2sOxg2cOC/LjLtqxr3Y/mIglKcrMtNMI5WHHPw3IOlvOwILSrICit5jPdJ3KgtIs3GxrQkwOlHet9NAc5UNrAmw31exID5dV8L6G7CCtwLyHUTxNv3EZeTbwaeSE0V4FUUeulIK4CqcKlIFA/l9lWUevFti6zrcLFtqAE0uEiiBKIIggogSiCKIEogkB+ZkIgahFECaSaqbcbamYKJOwkiCkQkyAQmwiopsYj3R3lXpG3G+rlIKy4x2E5CMtxWBDaiwioqL5nIwEqWni/oVbGCKuq7U6QpQQwSgihqaGHHSU0RqiKDrEJgKpmdT2aqQRQRYfI1NDjVtHV0FXRITRz6JWN63o2fQFgFh0iM4deXU23ErqN0Cw6xPbu+1/ZsJ5HM/L9r+zNGw410oQVtg1LE5Y2LIjN5z9sG5YmLG1YEJrLQO7gvZ5n8+bzX50rQaA+Q5//sH28unjvYOQdh9o4CSvuaVi+/k7DgtB08QoQfbxAKY5SDNvHq4v3HhynCPXRxStA9PECAuRhrnU8mouvvwCB0Hz8ww6CGAMxCAICRIAIEAEC+TFHGHcQxBiISUIIzRyhADFJCAgQAYIAAQHSMrVcKeU6KQECoTnJJO4oum+/s0wgNCeZCBBnmQACRIAgQECACBABIkBAgHTC+v6P5tW3X4CAAOmAGk5TdJaiAAEBIkAEiACBDL379guQvL15y6EmTnMXIJlznjsIEAGCAAEBIkAEiAABAYIAESAgQBAgAgT4Om28AkSAAAJEgCBAQIAIEAEiQECACBABIkBAgCBABAggQASIAAGquPr2CxABApQx9O0XIAIEECACBAECAkSACBABArGtffsFiAABSvHtFyACBBAgAgQBAs3Z+fgLEAEClOE8dwEiQIBS5j7+AkSAAGU4y0SACBCgFGeZCBABApRiklCACBCgFJOEAkSAAOX4+AsQAQKUYhBEgAgQoBSDIAJEgACl6OMVIAIEKOXF11+ACBCgDH28AkSAAH+zdzerjSNRAEZBAgsbIrDAGGvRIt7E8cIYLIjBXsz7P9Wku+enIRMyfePIqtI5q6aXFdBH1S1ZMZ7+AiIgQIhrWAIiIECIn1MUEAEBQvwaloAICBBiii4gAgLEePwLiIAAIaboAiIgQEjv+S8gAgJEeBddQAQECPFJEAERECBmJwACIiBAhFcJBURAAEMQAUFAwBBEQBAQGDtvggiIgAAh3gQREAEBQvwcloAICBCzkAABERAg4ioBAiIgQISLvAIiIEBILQECIiCAMywBQUDAGZaAICDgDEtABERAwBkWAiIggDMsAREQwBmWgCAgcAc+CiIgAgKEHFVAQAQECPFhWwERECCkkQEBERAgwncJBURAgBivggiIgAAhxugCIiBAjDG6gAgIEGKMLiACAoTUvmwrIAIChHgbXUAEBAhxk1dABASIcZNXQAQECKmkQEAEBAgptEBABASwBREQBARsQQQEAQFbEAEREAEBWxAEREAAWxABERDAFkRAEBC4g04OBERAgBC/iCUgAgKE+EUsAREQIMZ3QQREQIAQ3wUREAEBYlpFEBABAUJc5RUQAQFCXOUVEAEBYnpNEBABASLM0QVEQICYoygIiIAAIT6PLiACAoRsHWIJiIAAIWdZEBABAUK8DCIgAgI4xBIQAQEG5CaWgAgIEOMmloAICBBS76RBQAQEiKikQUAEBAjxbSkBERAgxl1eAREQIDYGcZdXQAQECPFpEAERECDG920FRECAmJU+CIiAACHPAiEgAgJEGKQLiIAAMZ2CCIiAACEG6QIiIICCCIiAAENyFUtABARQEAEREGBILvMKiIAAIbWCCIiAAAoiIAICKIiAICAw/oJ4oVBABAQI8Uq6gAgIoCACIiDAoAUxBxEQAQFicxAFERABARREQAQEUBABQUBg/AW5KoaACAgQ4pcVBURAgJhGMwREQIAQX5gSEAEBYrxSKCACAgQL4jKWgAgIEOIyloAICBBklC4gAgLEHA1CBERAgJCtQYiACAgQ06uHgAgI4BhLQAQEGPIYqxAQAREQIMRtLAERECBm8i8VCoiAADYhAiIggE2IgCAgYBMiIAgIZGzC17EERECAz2kXAiIgAgJE1L2ACIiAAM6xBERAgCFVOwEREAEBYqOQnYAIiIAAIc1CQAREQICIeloJERABASREQAQEuH9CzjsBERABAUKmMk4XEAEBbq66CoiACAgQsu0XAiIgAgLETrIKAREQAQGC25CdgAiIgAAhx9VCQAREQICIur0KiIAICBBrSJ77EAEREGAIVX7zEAEREGAg2/a6EBABERAgpDvnExEBERBg8J1IXwiIgAgIENyKtE2xExABERAgpjo2q2Q7IiACAtxdXVXnprkWRbEQEAQEQEAEBEBABARAQAQEQEAQEAABERAAAREQAAEREAABERAAAUFAAAREQAAEREAABERAAAREQAAEBAEBEBABARAQAQEQEAEBEBABARAQBARAQAQEQEAEBEBABARAQAQEQEAQEAABERAAAREQAAEREAABQUAAAUFAAAREQAAEREAABERAAAQEAQEEBAEBEBABARAQAQEQEAEBEBAEBBAQz34BARAQAQEQEAEBEBABARAQBARAQAQEQEAEBEBABARAQAQEQEAQEAABERAAAREQAAEREAABERAAAUFAAAREQAAEREAABERAAAREQAAEBAEBEBABARAQAQEQEAEBEBABARAQBARAQAQEQEAEBEBABARAQBAQQEAQEAABERAAAREQAAEREAABQUAAAUFAAAREQAAEREAABERAAAQEAQEQEAEBEBABARAQAQEQEAEBEBAEhKHVVVW1zQ/XgjHrf/6ZXv9gWwFBQP7L43w+f1n+MPvu8vPfm9f/fvC0v2U32qYvij9I1HNxbc5VJyAIyPduvCzXs/2HyzA7vbZEST6jO75uNTyAc7ErXjsiIEw1IPPN8uNwvFmOy/LwTQt+ux1tLx15ZuTaVLWAMKmAzF/W+08tymmjIv/3yOrYaEfup1qrthMQphCQx81pf6OVWR4caX0Uj/7Z43UaFtd2KyDkHJDHzfrptquzP4nIu8dWZzuPqZ1nrY61gJBlQOa32nm8WaEXx1lvHFc7z9NJup63AkJeAXnYXMqvXKSn9UEzfq3HwoN0yiORHBoiIALyTz0GWKdSQ9SDfxtSCwjpB2SYemjI33OPXj346yyrFRDSDshhPfBqlacJz0Pq1pUrfr2YteoERECSvXO1fLrHgu0307yX1Tm64u1RVisgApLk5uNytyUr19Pbhth88M42pN8KiIAkNvm4z+bj123IpM6uGnd2ed+qEhABSejsal3ef92ellM5ydo6u+IDRSUgApLIH/4ykpUr14+TyIfHIx/btQIiIAn82WdjWrzsEyIfZJoQAZlgQMaVj+wTIh9kmxABmVxAxpePrBNSywe/e6u3EhABkY/fTEiO4/S6MTonME7vBERAxnjzasRrWOZ3I6uVD4KXercCIiDj8rAc+SqWeb0XUnltkLBFIyACMiabcvzruJ8bfsDPaXolIAIyFt9maaxkLqOQs9MrPuu6FRABGcXp1SmZpSxfMshH5/SKW5xjnQVEQO7vUKa0mPvUf2Wxbjz6uNGV3k5ABOTOd68uqS1n2vexKj+ayO00AiIg9/RSpreeT+kO0+veM4+pbEIEJPeAPM7SXNFTopsQ0w8mtAkRkMwDcihTXdI0JyGmH3yBYisgAnKHy1eXlBd1md7xVeFZx5dcxzoKiIAM/td9SnxVEzvGOnr3g6+yqgVEQAa1TH5Zy0NK/TA9Z2qzdAHJNiAPsxwW9pTO8ZXpOZM7xhKQXAPyrcxjZfeJHGN1jq/4ar2ACMgwNtksbZnEbazW040BbmPVAiIgA1jntLgJ/Mi7X95lELtOQATky8cf+7xWd238wZ/s3d1Kc0sSgOFFBIOCgQSC6EGCOTF6IAEFBWXf/2XNmGGYGebb4vrpXt3Vz3sJtaDeVNdPUGIjhEACCiRK+6OWRsje7Svk44NACCRp++MiXnwfC26EaJ8jK1sCIRDt8yitdO1zZOZrRSAEon0eopXOH8jO04pACIQ/AhjE+BVaNgiBhBJItPGr4oex+APzDGPtCYRA+KNyg/AH2jYIgQQSSHR/FGcQ/kDjBiGQOAKJ74+yDGJ9EM0bhEDCCGR30UKgy1kp5A8wCIFEEUgb/ijIIPwBBiGQIAJpxR//NIj+B1CIQQgkhkBa6H8U1QfhDzAIgQQRSEv+KMIg/AEGIZAgAmnLHwUYhD9QCDPvpBNIAIG05o/ZDfIhb4FBCCSIQD7bi/f7nPF2PxElGYRACGQMty0GfMbLiks5CyWxJRACGc66zYhfzRVv/x+FwngjEAIZyl2jEZ/rH6ZW/r8WpXFPIAQycIGw2ZA/zrOSbgEd5bEnEAKxgN6PWVbSDfCiQK4PBEIgBniLH+Y1wIsyR7FWBEIgBngLH+Y1gAWjWAQSRSDr1sOeeRTrYAALpfJBIATSj5fmw37xoIEOnFkSCIH04eFC3LM20t8kKRTcSF8RCIH04FnY//rrNV+8T3IUSmZBIATye15F/ZsXDRDgzIZACEQDpNA2iAYItEEIJIhANEAyt0E20hNK57giEAL5FZdi/m/WNkCAM18EQiA2QHqSYRvECUVUwYlACOQXJ7BE/L/IcFbRBC+qIPcsL4FUKRATvP/DqwcsYI5HLAKpUSAesPI+YnnAgkcsAokiEA9YmR+xPGDBIxaBRBGIB6y8j1gesOARi0CiCMQDVuZHLA9YqIklgRDIDyuEov2nRywrhMCZnOuEBFKdQKwQ/pFk64QHGQl1sSEQAvk77gT7z6S6ibWQkFAZBwIhkD9z4wZW3k9wko5QGwsCkb3+jCPuf0uaw+466NBHJ5AgAtFBz9xH10FHjX10AiEQHfT5++gr/yKFGvkgEALxufpxMf0+uh10VEmufXQZqSqBPIr0T0y+j26EF5WyIRACMcLbk6lHebcSESrlQCAEogDpx60jWMCZLYEQiCNYPZn2JJYdQihBCCSIQOwQZv4OChAoQQgkikAUIJlLEAUIlCAEEkQgCpDMH0IBAiUIgUQRiAIkcwmiAIEShECCCEQBkvlL7CUgKEEIJIhA3gX5d+zsgACZShACqUUgdkB+yUS7IJbQUT0bAiEQS+g9mWYd3RUsVE/6i1gEUolAFCC/ZpKLWM7wIgD3BEIgvlM/JjnK+yH5oH6OBEIg33wK8e95nyDg/ogQETgRCIH4I8J+TPDXhCepBxH4IhAC8U/oPRn/7+hfUg9CcCAQAuksEfbi0wwvcOaNQAjEDG9Pxk7ybiQexOCaQAjkUoD7sdZCBzK00QmkAoFooWduo2uhQxudQKIIRAs9cxvdGSzEYUUgjQvEFnpvRh3EWkk6iMMHgbQtkBfh7c+YbfR7SQdxeCKQtgVyK7z9ubMEApw5EEjLAvFPUkMYsQpiCQSh2BBIywKxBDKI4asg7igiFEcCaVkg7igOYvhFxScpB6HYE0i7ArkR3EE8m8ECznwQSLsCMYOVeQ7LDBaC8UQg7QrEDFbmOSwzWIjGgUCaFYgZrMxzWNINvGERSBCB+ECDcQcLOPNFIK0KxB2swQy7h+UOFuJBIK0KxB2swQy7h+WSO+JxIpA2BeKS+3AG3XS3ho6AvBFImwKxhj6CIcvo1tARkCcCaVMg1tBHMGQZ3RAvIrIikCYFYoh3BEMGea/lGmiCEEgMgexEdgQX/QO+l2qgCUIgQQTyLrJj2GmBACmbIARStEC0QDI3QWyBQBOEQKIIRAtkFP03QWyBICZLAmlPILZAxtF7E8QWCIKyIZD2BGILZCR9N0FOEg1isiCQ9gTiENZI+p7D2kg0iMk1gbQnkEuBHce6Z8AXEg2CciCQ5gQirpk/izVCROVEIK0JZCeuI+m5SqiHDl10AokiED30zF30pTQDXXQCCSKQtbiO5UoPHfjmSCCtCUQPPXMX3R464kIgrQnEvxGOpt8uuiEsxGVJII0JRFgzfxdJBnG5J5C2BOLbTECfgK8kGcRlQyBtCeRFWMdzYwgL+OaLQNoSiCGszGNY95IM4rIgkLYEcius47kzxQt8c00gbQnEFO8E9JnjNcWLyBBIWwIxxTsBfeZ4TfEiMnsCaUogopr5wzzJMQjMkkBaEsiNqE7AszUQ4Mw9gbQkEJ9mEggEOLMhEAJBMoHspRgQiCwVRCDvojoFO3uEwDdfBNKSQOwRTsIVgQDfLAiEQJBMIB9SDAiEQIII5FNUp+DdIjrwzZFAWhKIRfRJWBMIcIZACAQEAhAIgRBIWQJxCgsEQiBRBHIhqlPw+2NYTmGBQAgkikAENfOXIRDE5kAgBAICAYawJBACAYEABEIgBEIgAIGAQAgEIBAQCIEABEIgBAICAQiEQEAgAIEQCIEQCEAgIBACAQgEY3glEAIBCARDWBMIgQAEAgIhECAeCY4pSlMEQiAEAgKRpggEIwTyJsOAQKQpAsGQ8Qb/SAgCkaYIBIO+DIGAQKSpWbjyZQgEKJlFCoH4520CIZAzJykGBEIgBIL/8PLrgC+lGBAIgczBA4FUr3YCQWi2KQRyK8VMge5U/QI5SDGIzCaFQNZSDIGoDc9IMSAQApmBZwIJoHYpBpFZphCIY1hTcEkgAQTilgkIhEBm4JNAAqidQBCZVQqB3MgxE7AmkAACsUmIyHRJkGMm4N2HCaB2AkFgjmkE8ijJjOeKQAIIxCIIArNIIxCbhBOwI5AAat9LMojLWxqBvEoyWUd9CKRctUsyiMsmjUAsgoznkUBCqP0oyyAsyzQCMcebd9SHQMpVuzlexOWQRiAPskzWTi2BlKt2Y1iIS5cIWWY0775LCLXfyzKIyiKVQIxhZR31IZCc3PUKuTlehGWbSiAOuhc5hEUgM6hdmkFUPlIJ5F2aKXEIi0BmUPuTPIOgLFMJxBjWWD4JpFD6ntnfyjPQQ5epAgxh+SwTcNsz5h/yDGLylE4gzxJNgT10ApmAvuNxuujQQ9dFz8wNgURRu0QDPXRd9KIf2gmk1B66XXREZZ9OIDuJJutDO4Hkov+JmTeZBnroUlVO7nyVQnntHfSTTIOILFIKxC76KHYEUigvvYO+kmoQkU1KgbjoPoYLdWGg6QarhIjIMqVArBKO4ZNAAk03aIJAC0Suqr8F4qPM0ALRBEFIvtIK5FOyGc4DgYRpgWiCICQfaQViE2Q4j8rCQC0QmyCIyD6tQHaSzWBuCaRQhv3RsHNYCMexS8yjdJPznYRAcjDsfyL30g2isU0tEOew8r6TEEgGBu7nHOUbBOOUWiAv0s1APjsCidWcMsiLYFx3ybmQcHK+kxBIel4Hxv0k4SAWX+kFYpB3IA8EEq05dS3jIBT36QVyJ+EM4rkjkDIZfmHG/9oiFqv0ArmRcQp7wSKQcQwfr/aGBS9Y3rAqf8EikJlesLxhwQuWN6zaX7AIZKYXLG9YCMX1KodAbsxhlfWCRSAzvWDZJUQotl0W7BIO4IZACmXUv3zZJUQcTnkE8iLp9OazI5AyGXficiPrIArHLhPuYfXmjkAKZT0q9AdpB1F4yyWQV2knY6OWQEqejnPTHVE45BLIg7STsVFLICm5HBn7e3kHMVh02biUeDI2agmk5LdFqyCIwX0+gVgF6cdzRyBR3xad5EUIrruMWAUpp4VOICN4HR18bXSEYJNTIGupp5gWOoHM10L/5kvugRa6NnrJP3MJJA1TrOcs5R7Uz7bLim30vD9zCSQJV1OE3zY66meZVyBXks+vue0IpEweJwm/SV5Uz6LLjEnevD9zCaTc4QYlCGrnPrdATPL+lsuOQCIXIA5ioXqOXXYcxCqlACGQgawniv/KMiEUIEqQon/mEsjUXEx2Yl8JAgWIEqTkd3YCKbYAUYJAAaIEqbYAIZCZCxAlCBQgSpBaCxACmbkAUYJAAaIEqbUAIZC5CxAlCBQgSpBKCxACmbsAUYJAAaIEmZ7njkBaKEC67kMeggJECTItVwRSKO9TfwTr6KiT03wCeZGIfuSyI5BWelMuYqFKFt2MuIj1IzsCaac3tZCLUCHLOQXiKO9P3HYE0k5p6H9BUCHbblb8L8gPfdoHAmmpN7WVjVAb16t5BXLj39EzDYoSSOmloVFeVMemmxn/jp6vT0sgE5WGN2m+g21CVMaxmx2jvDmfSQik5NLwSUaCDro++hR8dgRSJum2O/XRoYOuj15VB51ACioN3+Qk6KDro4/nvSOQMnlN+CX00VER910ROImV85mEQMrsoP+Lk6yEWlh0hWAf/f/YEUihvKT9Fl/y0j/Yuxe1JpItDKAtkITIgCbhDoIgTFQUUYRwMTPz/k91cL4ziiOMhNx2Va31BnSn62fvXdVNIg2s/SgBsqeJNal9PgIk+N4GTSwScVGF0bMwTa+BJUDCNLA0sdDA0sRKq4ElQOI0sLzRBA0sTaykGlgC5OEm8XrLJV8GIb6TKpRji9M39UqAxNRdnMTtcJyQ8FaqYBwn/NZm3xMgZbcWvROL4F4vRQt26wGpAAAgAElEQVSQRe/EmlybXYDEbi36thSx7Vbh7FigJtZmFyCxW4v28hLaRRWQvbx/7+BdFCCl7uA1BiEJX6qQri1Sf8zuVAIkpuYkb4kxCGG9WYoZIItvrVLHlQApfADilSaE9nS3Cmqn+NMgp5UAiel6wvdkyceliOmkCuvYmFaAGE39bdcgnYjaVWBlfyG9uyhAjKb+cWKtwgDdID32AF2AhB1NXVitMEA3SA+9SgmQB+hN5754rSLRBujB86PkD9z2KgES09q0bowT6diAZStW7FVKgMTc2mArFjZg2YoVdJuoAIm7AetWgni1O3FsVknYsEoJkOK3xtnMSzDtKhEt+SFASt8aJ0GIZaVKRmkfB5mdan4IkLj5cZMgVi7khwQJvErJibj5UVWb1i7khwSJu0oJivtsRHgWJAjyQ4LE/S9XUETODwmC/JAggbskkiJ0fkgQ5MfAFq/lhwCRHxIE+aEGCZwfAiR6fkgQ5IcECZofAiR8flRVw3kQ5IcECZgfAuSOO9OM9iw4UYj8kCC3vY2RHwIkarJLEKatXSUt57eaTPf9JQIkrfyoqn3v5mXSNqvEbcgPATLpO7MX81nwdncm6+lJlbzjTL8PshbnEouMoMn+E98oZJL5sVtlIM8vTJ1WAkSyD6xtVWNS3ixVWcjxO+mhNokKjVtasR+GTaN0JuNLJvmR4aH0YENaqfH9zmxEfxhsxsL2q7I3Y0Ub0sqN2NuvjNIxPjdK/9ZkjzakFRzxx+e3fba+Mebxx26VmZ1sBiG9cNdWcsTb2GAQgvGHQcjPTZJmJUCMP4YdhGhjMT4XVZZ6GaxS9YhNEuHxR5z3yjxwEOJECGPyerfK1E7XHlEBUshg6ldOtLEYh5WlKluLab9csRv0n1zxMXuc3sOwP2Oxw+6rcnZjXUf9J7f4/KjvJfkwXChCGK2Z/Spze3X/5AqQ0d6ZXqoPg1k6Iy0/LqoC9GaVHwKk1On5v7QVISg/si9CYvfYiy4/Wmk/DCYhjKj82KyKsTGr/BAgBU8/bnOqEJuvct6O1W0Gv5rODibNmRCG9bpRFaaZzJmQVvgTBs5+JK5hmM4w3at2VaDWrB6JABlieN7M6GHQx0L3Kr8+VjeJRUr3KoM+lv1YPG7vVaMqVjP2fqxUDhiUuPdqMbuHYd8oBMOPAR0HHoUks0iVN/zYy/Jh2P9iQWSg+NisirfRtUgJkIE2Ve9l+zA0nApBfGQQIUn9j1vWyY9m1g+DCEF8pB4hibVIxEdWEWIWgvhIOEKS67CXM/toFvEwGKfzi51X4uPnCImxI2u2lV6H3eg8Nzb1cr+Vhri4S3P650K6GyluD7VxN0ObhiHc4Wl7X1TcZ2+6p9Ovj9O8bAWMPjYKfBp2V5Qh6F0l0smaPU22Q5J78bG2U+jDsKQM4dbg/LPi4yFlyGlX8SFAvhcfiyU/Dfvt11ZO/vrr6cqJbHio47WJtrLe9tJeo/JNj25rz9Ow+1mGlO7L5pIHYRCLG9fWqMIDpHu640GQIWoP6fHYDJkdf+2RwxolPUrIkAvzkBLnHjpXw/WyxjgPue5l0h/Jb+7Rkx53zdRPVhQiRTWuLnb96oe10xtHM+vt6XE+lyiv0mPteNGv/v6h+qYQKWPDbttxwZFptuqjDY+8lqiMwmPD0PwBIXLyWTsrY29WVB7jqETW3g5/pKDeaub3/20ebavTY+ExyExksz3joGF2dcfKhcJjnKVIb+2xtUi33sp1hUr9oGC9tWHm8bipSGOz/UU1ksOwfOZzu+Gc4ETsNVun9e4A69N1ayPr17imW3V8vTMmHsNrNC7a7ZkZJUlqBcfMzEq73WjYpjsFi81mq7VWr9fvKThuVqeb5amEf21TKzjq9Var12z6CY9pRNIgPr/TYM2t7/YK/ttjM+QAAAAAAAAAAAAAAAAAAAAAAAAAAAAAAAAAAAAAAAAAAAAAAAAAAAAAAAAAAAAAAAAAAAAAAAAAAAAAAAAAAAAAAAAAAAAAAAAAAAAAAAAAAAAAAAAAAAAAAAAAAAAAAAAAAAAAAAAAAAAAAAAAAAAAAAAAAAAAAAAAAAAAAAAAYBgv51NR2p05LPhvj26O+F75nY7H/Pxlp1Or1Rb6SSkizbc6nfNa7eDOC3Bzy9Y7nfn5Z37Ck/d8bm55efXJkyd/kpLfbm7Z8vLV3Jyf8NCe3SxP57V+qrLO9K935uGBflA768wf+kVPwqu55Y9PfrcSp+/Jp+Xtued+0Y/613ark1rBUUiAHH7o3FNw/Fpt/VJza5yNqqtVBUd+Jcny9gu/7UFWqLNaPwf5VYQfRpHqR+uXL/3KR+3F1eo7i23G1cjH90YkDwiPrfWDfi4yC4+zoxFem1pHKTK6wmNZ3VGC31e3hch/LVEZhUdeATLa8PjHuUpkFJXHJytrUSHy3lTkrpnHZa2fm0yKwsvz8V2ig/UPfvuP937VsLzEdtaVmciP6XF20M9QFrl+NO6rtHC+ZZvvIzzf/vSbtbTYQuSjDMk7PTIIkMPOpO6MDBk8PSyiMsSDMLk1SoAMOJEaf+3xQx2ilzVI50rtwdcMWS56qP5sq9bPWcpT8/PJX66DMycNH+DVR3MPvs9Dtkudqb9cX+j3BUjEsvBsWnemtiUg/tu2Dbv86LfVEltZmRcfCQfINIqPW62sjjLk/uJjWeuKO8uQwnpXnYV+X4CE7CpOfya17ojhneZWrZTcV4Ysl9PJOlzvlyHBLQ0xgl0nS++KQa2WMVCfLyU+kguQSMF+IEJ+jA+Dc34dIfm/An6+1u8LEPEhQsQHYxiGzIkPASI+RIj4QIT8a5EqKz4SCpCoUykRIj4Y1Kc8ZyGH6/2+AAm586oT9xIeFH4+/b34wDi9mI27KQbIZew7Uyt4U++cnVfY1Htjq8D4SCNA5uO/i2y90BctPnfug0dHSE5HC+eP+n0BYiz1+NPpJeaHU+cM410u0/Rn6/2+ADH8GGoUUlwfa87wg2FHIVn0scrsXqUQIPMpvUm/rD6W7hX6WOn0SEoMkGfnaV3MhYK29G7rXjESTxLfj9VZ6AuQkD6kd2dqhbyn95W9V4xuP1bCT8LLo35fgCg/RlaEXJaQH1fKD0Y5TE/2ayGXC30BovxQhCg/mGYRcmX6IUCKLz/+X4RkfjL9vfIDk5CU/8nNPkCS2nxV1nYsm68YTxHyPrEnodyzH+EDpJP6VT14mWt+vHD2gzFJ60xI6dPzuAHyLIfGYqaz9CvLHGbpVdFnB4MHyHwed+Y8wzbW808WOcbZxkrmVOGZ6AgaIJe5XNmj7NpYL95Z4hivj2mMP7SvggZIToOp3HZj2X3FBNpYCQxCXmpfBQ2Qw7ySPas39C5b3JhEGyv8IMT4I2qAZJfs+QxCjD8wCMljj2i2AbKV3+U9yiRBnht/MDGR343l9EfYAMlyY8NCFqP0F8YfTNCq8bkAGVSmyZ7DKN34HKP0DIe0GQVIxsme/EdCti1o/2PvXlcay5oADO9ABEEhAUMQVBBy+NOKKEQw939hH63fMNPT2uM+plat572EHVa9qVWHhakNEnI1lvarqAJJnRkW3oyl/QqasfgjskDut6k/8nXJ/rA8EQzyk3P+CCqQ9Ga/5g+gpUHmwcY/2CKoQCrIDK/5A2jJLX8QCH+UbBD+AIPwR2SBVFKZeuUPoFSD8EdUgVTT2VBgDmJ9CRiEPyILpKLOuGv5B1CiQfgjqkCq6qy+5g+gPIPc80RQgVQ2mXPNH0BLTj4PYn4wqkAWtf0y1/wBtOPUE4X8EVUgFW62LGarif0lYJD3KLVliZgCqXIzciGbFe1PRBz2S1GKQH7jtcoPXsR290dBC4E44Xb3M44IKpBKX/Yq4YUp70chFjNRikB+5a3WL34R/pXbJX8gGGtRikD+yVO9nzz6O+neP0c8jqIUgWiNeyf4WiwLTBCQR1GKQLTGxW/m1cCLiEzfzKsBK6xAam9tCNyKpQELWrEqbhMtQSCH2r963FYsDViIysu0R+GKHYIKRGkqbCFdAR1xWU15FM5FqaACUZqKW0hXQEdgJnwlfSFKBRWI0tQ7bxH9cRSjELmQPl0ZxAR6VIGY7fwgYBnkTohCaCabSFcAiSoQBZD/sw1XBlnuRSgogyiABBbIztXiX4R7HMQTIAjPJNMgVriHFYirxb8JNg1iAgTxmWS1u2v2qAJxtfgPLnaR/LExAYICmGCtomv2qALxOv0vnEUSyExsQgmMvhRLB29YgejgDdvLq4MXZTB6L68VJlEF4gIr7CWWCyyUwosLrDoF4gIr7iWWCyy4xHKBFVogLrB+5yaGP25FJbjE+slBUAoqEM9DfnaJFWKc0CO2KIlnI4T1CcQI4aeEGCc0QoiimLsmqU4gehs+5/z0/piLSCiKB30+tQlEavgF29MLxA4sFMZIO7FU0MMKxHaZrzj5C+leQYc6uh0moQUiNQxbR1dBR3msXZPUJBAV9Lh1dBV0qKO/Y9VrVIFIDcPW0VXQUSIjvC11IxQFFYgZ9D9y0nl0M+goklt12moEIjUMm4J4BQRlsjfpXItA1Kb+gxO28mrhRaEctfBWIhDTnf/FyVZiWYKFUhm4lVejaFSBqE3FTUEkICiWlQSkCoGoTYVNQSQgkIJIQEILRAISNwWRgEAKIgEJLRAJSNgURAICKYgEJLRAJCBxUxAJCKQgEpDQApGAhE1BJCCQgkhAQgvEDEjcFEQCAimIv7mhBWIIPWwKIgFB6ezds+cWiATk20y+EcsWLBTPrQQktUCs4f0+E2/EsoYXUhB/c0MLZOcLf5+J3wXxDggSMMS7IK+CT1CBHHzhFuym9MdG7EECXvzNTSwQ3dVtmPR1dC+hIwUbf3PTCkRzQysuphSIl9CRgmd/c9MKxB73dkzYyauHFzm49Dc3q0C8ZNuSCTt59fAiCX07eY2qRRWIHt6wZXQldGRhpoSeVCDuFttymEogz+IOlNGtwYosEHeLrZlsIZY1WEhDv4VYptCjCsR4TnuepvHHo6iDNPSaRleojSqQha/bnomm0U2hIxF3CrUJBfLm67bnYjGFP5aGQJCItUJtQoEYAunCJKMghkCQiR6jIE9CTlCB6I7rxOsUAnkRc5CJRzdY6QTiBqsbE9xhLUUcuMNygxVaIG6wwt5hucGCOyw3WKEF4gYr7h2WGyy4w7KIN7RA3GB17cOyiBdoSdeVvKYIowrEFGFXRp8lNEWIbHScJTRFGFUgpgg7M/osoSlCpOPOPUkqgShOdWb0fVj2YCEdR5vcUwlEe3V37sf1x51og3TM3JOkEojiVHfexhXIUbRBPpbuSRIJRBNvD0Zu5NXEi4R0aeTVxBtVIJ4CiZgWfiDWICFdGnkNO0eNVZp4+3A+pj/mYg0S8qAEkkggNsz04WpMgazEGiiCKIFEFoj5nF6cjSmQmVADRRAlkMgCUQKJWwQRaaAIYgokdKgyBdKPESdBTIEgJ+0nQQSaqALR3dCPESdBTIEgKW2PwrlAE1Qguht6MuI6LIuwkJS5RVhJBELtPfkxnkAeBBrk5OiiPYlArnzXsFV0cQZJWbtoTxKpjBH2ZbRRQmOEyErbUUJhJqpAbFIMW0VXQ4cquov22ALxWcNW0dXQoYpuWC20QKi9N6PNoptDR1puVWpTCER7XNwquiiDtKzMoacIVNTen904/tiIMkjLTKU2hUCoPWwbliYs5GWvUptCINTen5E2utvljsTYGJ5CIL5qfw7jCORZkEFe7rT6JBAItcdtw9KEhcTMVWoTCITaB2A7jkD2ggzysiKQBALRxRv1blEXLwhEq0/wOEXtQ7AYwx9LMQaJmRFIAoFYpTgEo/Tx6uIFgWj1iS0QaicQ4BQQSAKBWLM/BKMMghgDAYG8sxNiogrERyUQ4BRs9IoSCH4yykJ3y9yRmjmBFC8QueEgjDJJaI4QBPLOkxATVCDUTiDASXg0bEAgIBCgCysCIRCMVZ0yiA4CIZDYYcovQyBAcIEcRBgC8csQCPA3z8adCQQEAnRhRiAEAgIBCIRA0J0RlmFZhQUCIRACIRACAQgkoUC0NxAIQCAEYps7gQAEAgIhEAIBgQhTBEIgBAIQCIGAQAACIRC/DIEABEIgBEIgAIGAQAiEQEAgwhSBEAiBAARCIJheIBsRBgQiTBEIgVimCHQXyLUIMwQXBEIgQBLWVvZNyxmBEAiQBE/aEggIBCAQAkEwgeyFGBDIT95EmCF4JZCaBDITYpCZ47ePwrkIMwRXBEIgQBLmBEIgGE0gL0IMCOQn9yLMELwRSE0CWQkxyMzd98+CCBM0ShEIgQAnoSEQAsFoArkVYkAg7/wQYgZgQSA1CcQ2RWTmQZyamIZAahLInRiDxMxanAXLsAZgSyBVCcQoOjKzbnEUjKIPwBmB1CWQS0EGeVm1OAo3Qkx/rgmkLoGYJERiblscBZOEA3BFIHUJxCQhEjNvcRQWQkx/ngikLoEYBEFilm3OghATM0gRSGCBGARBYgSqiWkIpC6BGARBXmatzoI+3t5sCaQygejjRV7WrY6CPt7enBFIbQLxpBTSsmp1FLRhhWzCIpDQAtHHi7TMWx2FnRjTlxsCqU0g2rCQlk27s3AhyPTknkBqE8ijMIOkXIpUCZqw/CyhBbIRZ5CUWcuzoIoesYZOIKEFYhsW1NA/eBJk+nEgkPoEooqOpDy2PAqq6BFr6AQSWyCq6FBD/2AryvRiRyD1CUQVHTnZtz4LZtF7cdEQSH0CWYo0SMm69Vl4E2X68EogFQqkeRBqkJFj66NwL8r04Y1AahTIs1CDjNy1PwtGCftwTyA1CkQRBBm57HAWXoWZcCUQAgkuEEUQZOSlw1lQBIlXAiGQ4AJRBIESiEmQ3twQSJ0CUQRBQjZdzoJJkO7sCKROgSiCIB/7TmfBJEhntg2B1CkQrxIiH+tOR8E6rM4cCKRWgbwIN8jGY7ezIM6Ei08EEl0gR+EG2eh4FjTyduSiIZBaBeJNEGTjpeNZuBFounFNINUKRCMvsnHb8SgsBJpuPBFIvQJxh4VkLLuehR8iTScWBFKvQO4EHKTiofNZMIzeideGQOoVSLMXcpCJY+ejYBi9EzcEUrNAPEuIVGy6nwV9WF16sBYEUrNA9GEhEy89zoI+rFA9WARSgkD0YSETtz2Ogj6sUD1YBFKEQPRhIRHLPmfBPqzWbBsCqVsgHgVBHta9zoJ9WK05EEjlArEPC3l47HcW7HRvy45AaheIne7Iwr7nWbgSbNpx1hBI7QJpLgUe5GDV8ygYBWnJDYEQiHcJkYRN37NgFKQVFw2BEIhREOTgpfdZUEaPU0InkEIEoowOJXRl9GgldAIpRSDK6FBCt1GxNa8NgRCIjYrIwXGAo7C4EG/CBCYCKUQgt4IPiudyOcRZOIg332XbEAiBvE+j6+RF8TwPchZ08n6bGwIhEEvdkYTNMGfBQqwoCQiBFCMQnbwonfVAZ+FewPkebwRCIH+xFoBQNnfC1qSM+ZKUX6I0gUhBUDazwc7CuYjzHa4aAiEQKQhyMBe3siUgfoiCBCIFgQREChIpASGQggQiBYEEROCKlID4HUoSiBQEEhApSKAEhEBKEogUBBIQsyDfY9sQCIFIQZCD9cBnwTj6f3BDIARiHB1J2Ax9FmzECpCAEEhZArERC2XyPPhZsJQ3QkQikKJ+ruYoFKFAhlnD+ytXws7XnDUEQiCf4F0QFMhqjLPgacKv2REIgXzGXDBCcexHOQteR/+SQ0MgBPIpM+EIpfEoek3KJDOEfoIiBaKVF6UxG+ksaOX9gpuGQAhEKy9ysBnrLKijn7SCTiAlCmSpjg4VdHX001fQCaREgaijQwXdSqyvuWoIhED+wIughHKYj3kWzKP/xo+GQAjEPDpy8DzqWVi4xPo39wRCIH/mUVhCKRdYy3HPgkusE15gEUiZAnGJBRdYLrFOfoFFIIUKxCUWXGC5xDr1BRaBFCoQl1hwgeUS69QXWARSqkBcYsEFlnHCf3PWEAiBGCdEDlbTHIYfAtAHFzsCIRDjhMjBw0RnYedtqQ+eGgIhEDuxkILLzVRnwWL3dw4NgfyPvftraSMLAzj8BiYQsJBAQggkAcHqjQZJwICBZb//t1prt9u6rahHnTl/nueq9HLkzI8575mJgLyaD7uTtV1/a8FZ3r96P8ErIIUHxFlecrbvczEYgwwwABGQogNiDIIBiDHIcAMQASk7IHFym6L5AYi3QR7NQ0AE5I2WblTkqet7Ldy3fQc6hoAIyJvHIDfuVOTo1P9iWDU9QJ8KiIC83YVBOhlaDrEYGh6kDzJAF5DyAxJbNysaH6D/0PBnFc9DQAQkycbtisz08QnFPzlv9SjWOgREQBLt3bDI6wDWdqi10OhRrHkIiIA4ioUDWO+0bvHmswoBEZB3cBSLjGyGXAsNHuY9hoAIiMO81OEUg2ruMO9QB3gFpJqA+HEQsrGMUJBm+iEgVQQktl4HQT8aLMjA/RCQOgKiIOhHgwUZuh8CUklAFAT9aO6V9LPzEBABURCqcJNHP2J6rR8CIiAKQlH9mIWCtNUPAaknIAqCfjQ0Bxl8/iEgdQVEQTD/aKYgWfRDQGoKiIKgH40UJI9+CEhVAVEQ9KOJgmTSDwGpKyC+aoJ+/FDxlxVXuVxjAakrIArCADYRCtJiPwSktoDE7OB+hn48qvQXptYhIALyafw+CH0a7vejXlGQCn/l9iyjfghIhQGJk5savbnKuB81vlKYw+uDAlJ1QGLnMBY9yer1wQYOY+Vy/EpAKg5IbP1ACO0ev6p4lL7K7OIKSJUBidnIvY2Gx+eVjtLXISAC0ou9uxsNj89rHITkNf4QkKoDYhBC6+OPn+5quMmMpyEgAtLfIMQ7hXyifRTktvxtrHmO11VA6g1IzLwRwqdtX+2iKNPCb3Vfs7zFCEjNAbGNxWcZzaI085JvMMdpCIiA9O7CaSw+wSIKdF7sLP3sNtdrKiB1ByRi4W7HR0/Pt1GkaaGz9PFlCIiAmKVTx/R8FqWaFPhtrLP7jC+ogFQfEA8hfKSrLgo2LW4ScrwMAREQDyHUMf2YRdnKmoTkO/0QkHYCEnFyHIuGpx9P3JfzTsjdNAREQHI4juV3pnivL6eowrSQL/SOz7O/lALSSEAiOl/o5V2Ws6jFpIB9rLN1ARdSQJoJSMTCPhbpu1dd1GSd+z7WfBoCIiB57WP5tgmJu1ebqMx0nnNCVpdlXEUBaSkgEVtvppOQj+LPXpU1Cilg+CEgTQYkonOkl3aHH09dZpmQcTl3EwFpLiARG9N03pKPi6hXfgkpKR8C0mJAJAT5yDQhZeVDQNoMiIQgH78kJJdx+rG0+4iANBqQiM44nRdG503k4/uJrAw+snhWyskrARGQx4Q41Mvzrqo8efWs9cCvFn4t470PARGQny72Xi3kj2420ZrzAXeyjreFXjQBaTkg34YhTvXy+97VNlo0HeYx5Ov8sthLJiCNByRiu/QYwpOHj1k06/yu78eQ1W3J10tAmg/It8cQn+rl34eP/TYad9vjVtZxPS37YgmIgHwzO9nK4styF/TWkOLrISAC8stEXUPUg58N+dSTvWc11ENABOR/DbGX1eiZXfX4wzzk/pNuj9d3k1qukYAIyNO9rN3SS+qNGZ22avHMuazbuw8+mPV1tb6s6AIJiID8/iCyOTiY1cqRq/1uphMvRGQ+/qgnj6riISAC8qztZmkkUvuTx0I8Xr2dtb57173yenU/qfG6CIiAPL+d1S0O9rPqbMd+Y9vq7RW5nR/ffMe8Hs/Xk2oviYAIyAu602IkI/Wk47DYace7trQm6/ndePxyOFbz+8ll5RdDQATkdVtaDx05jOxqlRuO0X6x6WxZfaTJ5KElj47jb77/+/7hv6etXAIBEZA3Tti7rls82o/I2eH7n2nz8Adzr0dABARAQAQEQEAQEEBAEBAAAREQAAEREAABERAAAUFAAAFBQAAEREAABERAAAREQAAEBAEBEBABARAQAQEQEAEBEBABARAQBARAQAQEQEAEBEBABARAQAQEQEAQEAABERAAAREQAAEREAABERAAAUFAAAREQAAEREAABERAAAREQAAEBAEBEBABARAQAQEQEAEBEBAEBBAQBARAQAQEQEAEBEBABARAQBAQQEAQEAABERAAAREQAAEREAABQUAAAUFAAAREQAAEREAABERAAAQEAQEQEAEBEBABARAQAQEQEAEBEBAEBEBABARAQAQEQEAEBEBABARAQBAQAAEREAABERAAAREQAAEREAABQUAABERAAAREQAAEREAABERAAAQEAQEQEAEBEBABARAQAQEQEAQEEBAEBEBABARAQAQEQEAEBEBAEBBAQBAQAAGpJCDd3+X4MhqNDovFqetm1hQICAKS5mq0XOw6SwsEBAFJ7chis7XAQEAQkDSj/ebCKgMBQUDSBiSHk0cREBAEJDUinkRAQBCQ1KnI3mgdBAQBSXwQWe5mFh0ICAKS5LDREBAQBCT1OcTKAwFBQBLnIWbqICAISOIrIhvLDwQEAUnbyvIYAgKCgKRO1J3sBQEREAFJnIbYyQIBERABSUzIaWYhgoAIiIAkDUMWEgICIiACIiEgIAhIvwmxGkFABERAjNNBQBCQXhPiUC8IiIAISOLr6V4tBAEREAFJs59ZlSAgAiIgSdN0oxAQEAEREPtYICAISK8c6QUBERABSXOztTZBQAREQDyEgIAgIB5CAAEREA8hgIAIiONYgIAIiIA8eSdkZ4mCgAiIgKS9mG6NgoAIiICkzdJtY4GACIiA2MYCAUFAnMYCBERA8neYWakgIAIiIF4qBAFBQHochCgICIiACEgavxICAiIgAmKUDgKCgPRpabmCgAiIgDiMBQKCgPR5GEtBQEAEREAUBAQEAVEQEBAExCuFgIAIiFcKAQEREBQEBERABOT9BTEHAQEREAExSfsKhVIAAAx5SURBVAcBERABURAQEAREQQABEZBaC2LpgoAIiID4siIIiIAIiIKAgCAg2fMLUyAgAiIgCgICIiAC4pV0EBAExCvpgIAIiMO8gIAICI5igYAIiIAYpIOAICADMUgHAREQATFIBwEREAHp0cgiBgEREAFJsrCKQUAERECSdJYxCIiACEiKK2MQEBABEZAkB+sYBERABCTJzkIGAREQAUk6y3thJYOACIiAOMsLAiIgAtKfk6UMAiIgAmITCwREQATESSwQEATESSxAQATEVxUBAREQ/rO3mkFABERAkvhpEBAQAREQL4OAgAiIgPTI79uCgAiIgJijg4AIiID0yG9LgYAIiICk8T46CIiACEiSpRUNAiIgAuIoLwiIgAiIo7wgIAhI7jprGgREQATEIwgIiIAIiEcQEBAExCMIICAC4hEEEBABwSMICIiACIhHEBAQARGQAfh5dBAQAcEXsfiHvTtcTWTZwgCKoCBE6AYlCCoIif4xIgYMKJz3f607mZzcycwkOdpttbur13oEi/Kjau9djQARIALEi1ggQBAg0fkuCAgQAUI1vgsCAkSAUMnaxgYBIkCoZGtngwARIOjkBQEiQASITl4QIAgQZXRAgAgQZXRAgAgQlNFBgAgQAWIaHQSIABEgN1Da3CBABAhVzG1uECACBKMgIEAEiABxhwUCBAHiDgsECALEHRYgQAQI7rBAgAgQ3GGBABEgAsQdFggQBEhLjGxvECAChEr69jcIEAFCFXv7GwSIAKGKJ/sbBIgAoRLfJQQBIkDQyAsCRIAIkOb4KAgIEAFCJT5sCwJEgKAIAgJEgAgQRRAQIAgQkyAgQBAgJkEAASJA+D87HASIAMFzWCBABIgAac7JFgcBIkAwSggCRIAIEFV0ECAIEFV0ECAIEFV0QIAIEMyigwARINQxscdBgAgQqujZ4yBABAjasECACBABog0LBAgCJDifBAEBIkDQxwsCRIAIEK9hgQBBgOjjBQGCAMmR5xRBgAgQDIKAABEgAsQgCAgQBIhBEBAgCBABAggQAYJJQhAgAgSThCBABIgAESAgQBAgAgQECALEWyaAABEgeMsEBIgAQYCAABEgAkSAgABBgAgQQIAIEAECCBABggABASJABMgVec8dBIgAQYCAABEgAkSAgABBgAgQECAIEAECnO/Ff78AyduzXQ6JjP33CxBtvIAAESAIEBAgLbO6/tI8+O8XICBAOiDF2vjvFyAgQASIABEgIEAQIAIE+Gnmv1+A5G1ul0MiQ//913CXYm1G/vyvoW+XgwCJbJBibXr+/AUICBABIkAECGSn8OcvQPJmk0My/vyvYZxiaSb+/AUICBABIkAECOTHe+7XcEyxNCd//lfgNXcQILENUyyN1xQFCMR28O8vQHK2t8chGW+ZRB1EN4ruJRMIzlsmAsRLJkAlJgmjjoEYBDFHCMGZJLyClzRr8+zvv77SHod0/P0HHQMxCGIMBKLTx1vfLM3SzP396+KF0F78/8fs4tXHew3PdjgkpI+3viLN0pT+/3XxQmg7//913aVaG5+Uqm1rh0NCSwEQtItXH+8VLOxwSEkABG3C0oalCQui04YVtAlLG5YmLIjOc4p1LVMtzUIC1OQpRUjLa1gxX8J6JQG8hAWhqaJHraGroquhQ3QioJ5DuqXZiwA1dAhNFb2eXbql2YoANXQIzSx6Pat0S/MgA8yhQ2hm0Wt5TLk2ayFgDh0i80mQWqYp1+ZeCNRR2t2Q2kYKRBwjfGWUsI4nexuSM0oYtASiCGKMEBRBlEAUQZRAQBGEBksgiiBKIBCdSZCQUyCvTIKYAoHYjnKgsiLt0vgqYXUnOxsa4DmsiA9hvfEcloewILZHSVDRMfXSnARBRWv7GhoxlQQVLVMvjW+CVHVvX0MjNPLGbOJ9pZFXEy/EdicLKjmkXxpPulczsqvBHVa3b7DcYbnBAndYbrDcYbnBAndYNHiD5Q7LDRa4w3KD5Q7LDRa4w6LBGyx3WG6wwB1WfsbNLM1EHLjBgtB8FORyq2aWxkdBLudTINAk72HFewfrnfewvIMFsfmw7aVmTS2ND9teysdsoVkziXCZu6KppSlHIuEyc/sZGlUoo19m2tza+C7hhSX00n6GZhkFCTgE8sYoiCEQiE0ZPWYJ/ZUyuhI6xKaMHrKE/koZXQkdYlNGv6SE3uzaKKMroUNsvmwbbgr9nWn08/mWLdzCWC6crWh2aUq5cLaJnQw3oJM3Yg/vG528enghNp28wZ7B+sWDWHp4IbaVZAh6AHEEOduDfQyOIJENm1+avmhwAAFHEEOElRgmdAABRxAHEEcQBxBwBHEAcQRxAAEcQWIfQBxBHEDAEaT1Xm61Ns8CwgEEHEHMgFRhFsQBBGIzjh5vBuSdWRBD6BCbF7G+f4Z3dbulefAor1ewwBHEM7yVeJTXAQRi812Q7w4gxS2XpnQE+YbvgEAAPk34tdltl8anCb/mQ4QQwVBOfGVz67V5EhRf6du5EIFW3mAzhL+YJtTCC7Gpo8dr4X2nlVcFHWI7yop4FfQ36uifO9m1EIU6esAK+ht1dBV0iG0pLcK8wvsnr/J+YmHPQhzm0UPNoH9kHt0MOsRWPEqMSDPoH5lH/9O6tGMhEsMg0UZAfjEMYgQEYjvIjN8usJZxlmbhEus3e7sVol1i6cT66BhpbU5C42MHlgssCEcnVrwOrHc6sXRgQWw6scJ1YL3TiaUDC4IbSI5/7aItzVZw/Ktnn0JI3sSK8wbWn7yJ5Q0siG0nO3528BbxlqbUy/vT1i6FqPTyBuvg/UUvrw5eCE4vb5A3FP/mVUVvKEJsyiD/HKKuzV4BpLRDIbLOT4Ns4q5N58sgJkAguFnHCyBF3KXp+sel5nYnRNfpL6THLKC/63Yh3VfQoQW6XEifxV6aLhfSFdChDTr8bZBx9LXp7rdBfAME2mHZ1Vasafy16epE+kgBHdqSIBqwourqRLr8gNboZCvWpmjD0nQzQTRggQTxhHt9XXzaXX5Aq3SumTd2A+9H3Wvm1cALEkR+SBD5ARIkO8M2LU1ffgASxABhJXP5AcS2kR8SxAA6UEWxkR8S5Mb5UdqHIEHkhwSRH9ApU/khQdQ/AAnyaf/urK1LMx/JD0CCmP+oIvd5EPkBEkR+SBD5AR11zDc/HpftXprFOt/8ONl5kINsX1Zsx/u738n3bV7vJ0Imhnl+YWpQtH9pyl6e34/q23WQi2WOX7md5rE2OX6jcO37UZCRDEcKj7mszcn4IBBbZs1Yd7t8lmabWTOW9ivITlbNWJtlTkuzyKqUrv0KMpRRKf2lyGtpymflcyC0VS6FkHF+azPJpfzxYJ9Bpg5ZlD+GOS5NP4tCyN4eg3zt2n+NNSjyXJoMJkJGWzsMXGO5vnKN5foK+Mu41Y9fDXNemnY/jTWxtyB/w/aOpU+LvJembO9Y+lr3FXRC0dJaek7Dg19p61DhvrSvwCHE8MeNDyHPjh+AQ4jjR0cOIY4f4BAS2aHoztKUe8cPILYWtWNtht1amn6LHsfSfAWdtBq05PZq3L21mbTkHqtn9gO6ateGe6xp0cWlaUVH79roOXT6Hiv62yaDYVeXph/9bZOR2yvouNj9WI+zLq/NfK33CghtFfZjhXfHrq/NKWwp5F7xA3g1HMSsnReWpoxZTe9p3QXiRoj4iBsh4gMIHCHiI26EiA/gL8swtZBH8fFnhIQpp98vLAfwidXhTudVUCE6skZ7pXPgK8Xx1qOFL0Or8Ln+rd/pXZ9KqwB8Z/dyw9LHYWUBvvawv2Ex5NnUOXDGTdb4NseQgbur/77Jus14+nri7go49xgybb5w7vBx3jGk+YL6vcMHcIli1uBV1t106Rc/3+K+waus53npFwcutTpumkmPnd/6UttmMuTp5OoKiHoOeTxIj6oZsl87ewCx7aapauqD49LPW8filKqmvlb3AK5jdXy59ojh5rAzbn4F5XZ/7e/fjp5dXAFXtTxe7SQyEB7XDpHe1U4eJ2+VAElOIrvxoN5RZDM9GjVPon+6r3cUGfUmWycPIG2KDMfTCk/3Pg7GM9mROkXmk16F0nrvftKXHUBTiuHsR46c0+c7GIzHw6VfrDmL/mTSO+dS6+lHcsz7pV8MuI3lcHgcj3+Eye/+174d2wAIw0AUVSQXHsBiAeoIUaTJ/oPhlgEQzXvlX+F0q9uV6V7+ozNiVtU93o5uO8LWAQAAAAAAAAAAAAAAAAAAAAAAAAAAAAAAAAAAAAAAAMCXHpebVLrEl4giAAAAAElFTkSuQmCC;labelPosition=center;align=center;fontColor=#000000;html=1;" parent="35" vertex="1">
                    <mxGeometry x="7.5" y="7.5" width="60" height="60" as="geometry"/>
                </mxCell>
                <mxCell id="46" style="edgeStyle=none;html=1;entryX=0.5;entryY=0;entryDx=0;entryDy=0;labelBackgroundColor=#EFF0F3;fontColor=#000000;strokeColor=#000000;" parent="1" source="20" target="11" edge="1">
                    <mxGeometry relative="1" as="geometry">
                        <Array as="points">
                            <mxPoint x="1018" y="121"/>
                        </Array>
                    </mxGeometry>
                </mxCell>
                <mxCell id="47" style="edgeStyle=none;html=1;entryX=0.5;entryY=0;entryDx=0;entryDy=0;labelBackgroundColor=#EFF0F3;fontColor=#000000;strokeColor=#000000;" parent="1" source="20" target="19" edge="1">
                    <mxGeometry relative="1" as="geometry">
                        <Array as="points">
                            <mxPoint x="657" y="121"/>
                        </Array>
                    </mxGeometry>
                </mxCell>
                <mxCell id="54" value="Pushes&#xa;image/tag&#xa;to ECR" style="edgeStyle=none;labelBackgroundColor=#EFF0F3;strokeColor=#000000;fontColor=#000000;" parent="1" source="51" target="12" edge="1">
                    <mxGeometry relative="1" as="geometry"/>
                </mxCell>
                <mxCell id="51" value="Build/promote&#xa;image&#xa;workflow" style="shape=image;verticalLabelPosition=bottom;labelBackgroundColor=#EFF0F3;verticalAlign=top;aspect=fixed;imageAspect=0;image=data:image/png,iVBORw0KGgoAAAANSUhEUgAAAggAAAIICAYAAAAL/BZjAAAAAXNSR0IArs4c6QAAIABJREFUeF7snQmUXEX1/z/3vZ5JZpKQkLAlZJmZxIABQQzoH3BBUfGnCIoSFRVEZBcQyCwJyyQCyUwSwiZLQBQEEYIbgqC4gCsKRPawODPdk401G0lm7X73f6pnUEBgln7d/Xr6licnnkPVrapPVbq/XXXrXsGKETACRsAIGAEjYATeRECMiBEwAkbACBgBI2AE3kzABILtCSNgBIyAETACRuB/CJhAsE1hBIyAETACRsAImECwPWAEjIARMAJGwAj0TcBOEPpmZDWMgBEwAkbACBQdARMIRbfkNmEjYASMgBEwAn0TMIHQNyOrYQSMgBEwAkag6AiYQCi6JbcJGwEjYASMgBHom4AJhL4ZWQ0jYASMgBEwAkVHwARC0S25TdgIGAEjYASMQN8ETCD0zchqGAEjYASMgBEoOgImEIpuyW3CRsAIGAEjYAT6JmACoW9GVsMIGAEjYASMQNERMIFQdEtuEzYCRsAIGAEj0DcBEwh9M7IaRsAIGAEjYASKjoAJhKJbcpuwETACRsAIGIG+CZhA6JuR1TACRsAIGAEjUHQETCAU3ZLbhI2AETACRsAI9E3ABELfjKyGETACRsAIGIGiI2ACoeiW3CZsBIyAETACRqBvAiYQ+mZkNYyAETACRsAIFB0BEwhFt+Q2YSNgBIyAETACfRMwgdA3I6thBIyAETACRqDoCJhAKLoltwkbASNgBIyAEeibgAmEvhlZDSNgBIyAETACRUfABELRLblN2AgYASNgBIxA3wRMIPTNyGoYASNgBIyAESg6AiYQim7JbcJGwAgYASNgBPomYAKhb0ZWwwgYASNgBIxA0REwgVB0S24TNgJGwAgYASPQNwETCH0zshpGwAgYASNgBIqOgAmEoltym7ARMAJGwAgYgb4JmEDom1Fh1VCVGfMoeRlKR5XhdwbEhpfgdwXEhoEXKJ4mEfURjZFef0miUoKm/06iXSWkYklSJcNIdfkkh3WR6myjOwFdzJegsIDYaI2AETACRmAwBEwgDIZaRNrMqNeRXeWM0SRjkqWM8gJGBsJ2XsAuwC4oY/EYDYxGGaMwCihBKAFK0fTfTiUkFbpxf5QuPLYBm90fCdisHhs94UVSvBAIGzzYprBFlc10sCmxB1uYJamIYLFhGAEjYASMQAgETCCEADEXJmaeoCVbJrNTKsaUACaqx3hVdhWY6P6osjPCDk4IAF6WxqTAFmA98BKwFmUNwlqBdYGwVgNadxzL6hUnihMcVoyAETACRqBACZhAiPDCTb5Kt5fN7OMJeyDsDkxWmICmTwh2SJ8CRKC4EwhgI8KLqjzvCWsCeNYTnpIuHmt+jHXcbicMEVgqG4IRMAJGoN8ETCD0G1UOKtarN72E8d0xDlThoyj7ADtC+lSg53qgMIqibMFjI8p6gZXAn8Xj/pYa+XdhTMFGaQSMgBEobgImECKw/jOWa2l7nMMUvoJyQK8YcKcDhSII+qLo/BM6cU6OTix43JyM8as1Z8navhrafzcCRsAIGIH8EDCBkHPuKjOXEVvfxoigi5k+fFmVWcB2OR9KfjvcgnCf53OjV8pfgFebTncCQpyfgxUjYASMgBHIMwETCDlbAJXpSxjX0c0UT/ggwpdQ3gcMy9kQotvRMwI/DeCeVJLWnXfkJXNyjO5i2ciMgBEoDgImELK9zvXqVQxnsufxvkD5JMLHgSq0JwaBlTcQcK8j/iDCvSmfB0ZuoWnlfHHXElaMgBEwAkYgxwTsSypbwOs1VlnOVOATqnxM4IPa43BopS8CwiaBFSj3I9wbb+NhC9DUFzT770bACBiBcAmYQAiXZ9rabo06oVs5WoVPq7IHsH1PPCIrAyEgsFWFJgn4sw83NNXxKGI+CgNhaHWNgBEwAoMlYF9agyX3Fu12XqwjylJ8CzjexSwARpowCAVwp8BqPH6ZSnH1qjnSEopVM2IEjIARMAJvS8AEQgib48jl6q+Ic3gAi9D0tYKVbBEQ1onS0NnB9evmSVu2ujG7RsAIGIFiJ2ACYdA7QGVGPSO2lbGXJ5yhyqFA+aDNWcMBERDhb5KkvquLR9bMc1Ec7ephQACtshEwAkagDwImEAazRerVqyxlTzy+iMc3VJk0GDPWJmMCLt/DzeLxw7IRPLLyVNmasUUzYASMgBEwAmkCJhAGuBGmLtadkkkO9eAbKhyYxcRIAxxZ0VZ36aefBX7kKz9t7qDFXjwU7V6wiRsBIxAiARMI/YR5UL3GWoexv/ocJ/AZ1XSyJCtRIeCeRip/U+H7FW3cdf98cQmkrBgBI2AEjMAgCZhA6Ae43Rp1VKdyFHAy8O6oZFHsx9CLrYrL+bBWhNu2tvHdl+fblUOxbQCbrxEwAuERMIHQB8vpS3SHriQXCnxVYYRdy4S3+bJoqQthhVfCiS1nyRNZ7MdMGwEjYASGLAETCG+ztDNP0JINuzGDJD9SZa8C2gHuTt79kv7vHyHAJWAG999c6GKXWbEToVMUVaEUTeeEGCYwTAUv7VsR4IngKfi4P4KPpv9/oZS1COd1jeG2dSfSbomgCmXZbJxGwAhEgYAJhLdYhd0X6LiuGIcHAUuB0VFYqLcZg/vi3yrCq9rzt8uQ+DxKK8JqCVgT+KzzhfWdnWycVM6GB86S9neaz7TTdJhOZnSqm7HqMdYXdgmESdLzUmOyKrummSgjEUYpbCcQizCjDSjLpIRl8S2sNgfGCK+UDc0IGIFIETCB8PrlcM8Xy3mXi4Somo6GGK0UzJI+BdgssEaVdcAalOc8j3+nAuLbQeKJOWzK5i9l54/R7jMpFlChQToo1G4IUxQmOBGhMC6CLzvaRfg5cHm8Vh6M1L9AG4wRMAJGIKIETCC8tjD1GpsyjP3EZzbKIfT4G0ShqAjrVXkceAJhpcK/8UiM2MrafGc7dK87ni9np6RSEQhTEXYH3qMB7+kNN+2uK6JQAhEeCAIubu3gDjtJiMKS2BiMgBGIMgETCG51lqs/tZWPBAHfVWW/iLxScFcB/xTh9/g8GKRYI208n4BXo/zlNmGZlpdvZnwqYFeEvRQORvkQPScLUSgJES4ua+PafIurKMCwMRgBI2AE3o6ACQSgcrF+VlNcnvdfvO4KQVktHstV+ZmW0tq9mc2FmnNg2uU6jK1slyphvKb4FMI30PQz0fwW4SWUa8rbWbzSnkLmdy2sdyNgBCJLoOgFQkWjHgNcHwHv/JUISyjlF4kzZVNkd0wmA1OVykV8XOEsVT6eZ+dG55dwlSgXtNTJ5kymZW2NgBEwAkORQNEKhBn1OrJ9BMdqQCNQlofFdXkENgo8qsLVxRT9b+YyLdn8KvumAk5W+DAB43FPLXNdhHaEK4BLEjW8mE3nzlxPzfozAkbACGRKoCgFQjr4UYrjVJkt5DZkskBSYY0LCyzKrcF4fp84VjoyXchCbH/QfRpb8yD7JpWjcUKB9AuSXAsFFxPi6mSSJWvOlbWFyNHGbASMgBHIBoGiEwhOHHSnOFGVbwO7ZAPqO9h8EbjHE+7sauP+NfNlQ477j2Z3J2hJxTQOEOUwVT4F6ZcQOXv9INCNcGNQyvmtZ8rz0YRkozICRsAI5JZAUQkEd63QVs6pKN/JsTjoQLjb97g56OLv8XPECQUrbyKw12IdsTXJ/oHHF4AjUHbKFaTek51bNEVd6zkmEnLF3foxAkYgugSKSiBULtLTgoDzc3yt8BjKpZ7wx5ZaViPigh1ZeTsC9epNG8a4lM/+9DgzfjAd5jk3xV313BILqGuaKy/npkvrxQgYASMQTQJFIxDSrxWUq3PmkKi0icdPJMWiyZ20WPrhAf4DOFL9ye9jO9/jFFXOc3kiBmhhsNXbRPiBtnFeYv4QfU0yWDLWzggYgaIiMPQFwnL1K1v5tAb8IidPGSWdJCnhkgQltnE78yVZVDsqC5OtvEj3IsYVqnwgF0JBSOe1WDDS4/LHq2VbFqZkJo2AETACkScwtAVCvcamjuTDqRTXAxVZXw3BJQb6swh18Vp5Nuv9FVEHUxfrTqkUZwp8TWF81q8dhBeAubEybmk6XdxLBytGwAgYgaIiMHQFQr16U4bxAc9nsWr6PjubXvEujfLTAjd0l3Llmj4yJhbVDgtxsjOu1JFt2/isBJyipE8TSkI0/z+mBJrE48yWGrkrm/2YbSNgBIxAFAkMWYFQ2ai7KSxAOTTLb+u7EP7kCZd6w/mD/drM8jY/Uv3KfZkZwLdF+WqWhR8iPI5ydLxOHsvyzMy8ETACRiBSBIakQJg+T3foLqNOlZOynJVxG8pPJcbSsdvx9IoTxUVHtJIDAlMv1kmp7rRAmJPttNwuqFWpx6xna8Wl2LZiBIyAESgKAkNOIMw8QUs2TuPrQcAlWf7i6BThcr+MxU2n8Yo9X8z9v5eJS7UsluQw94wUzWrQK5cq+ifdJRxv10e5X2fr0QgYgfwQGHICofJi3Vu7+RMwOmtIe7Iunpmok8uy1ocZ7h+BI9WvmMnHEa5Emdq/RgOv5V42IDTEa1hgYnDg/KyFETAChUdgSAmE3jDKf1Blr6wsRY8weMH3OLO5Rm7LSh9mdOAE6tWrGs7HAmGBwD4KsYEb6VeL5zTgzNZH+C23i3vOasUIGAEjMGQJDBmBsFujjupUFgMnZmm13EuFZ0Wpn9LBLyzwUZYoD9qsytTFfDQImKfKAVl6BhmIcrcoZ7fM5d+W/XHQi2UNjYARKAACQ0IgHFSvsUQZxwksURiZBe5OHDzhKRcEHfw6Mb84sy9mgWvoJqcu0gNTARcCB4VuvMfgNlEu1eEsSZxpkRazxNjMGgEjEAECQ0IgVC7QD6nHFZC+Wgh3Tj3XCs94ynldw7jbnNQisGv7GELFIn2vKJepplNIZ6O4tNCnJqq4i1l21ZANwGbTCBiB/BMI98s0D/NJR9gLWITylSzFO3helDO0gzvt5CAPCzzILisX614acDU91w2hF4F/+AGHWVKn0NGaQSNgBCJCoLAFgouWOJxveB6NquwQOlNBfeErk7bxM/M5CJ1udg2qStXF7BukuA5l7yx05q6dFiXqxMVhsGIEjIARGHIEClggqFQu5j0EfE+VD2VhZVz8/dpIPGWsV28GxF4djd+d6gkZ7W9DS5Vg3ARSK04gaU/v3mIHuNcNI/h0EHB5by6OsPd7Cp8DE9XyzyzsPzNpBIyAEcgrgbA/MHM2mRn1OrJ9ODUqnJOFcLvbRLgqXis1OZvQmzqqqNfhsXJ26BZ2EmESyrtF039v51JWK2wRYX0ALS4PBPBCqoQX15zJRhML/4U5Y7mWtsX5Ji5ltDAeDd1H5R/dKQ5dO1fW52uvWL9GwAgYgWwQKFiBMKVBD/CEW9V9aYZb3MnBT2Ll1DSdLi+Ha7pva+65ZkeKPfHYX4QD6Uk05bIXvlNpB54T5S8q/C3m8VBTNS0mFHqQpZlCtaecmYVXLh0C58WruMQcFvve31bDCBiBwiFQkALhyOXqPxznFlVmhYza3Sv/Xnyq47N5IqdfsC419Sj2DlJ8SZWPo+yBUDrg+QmbnFBA+VXS4+7Vlj8gjXDKRTrei6Uze7r8DWEWBR5V5bjWOfJImIbNlhEwAkYgnwQKUiBUNeoRgXITUB4yvKc8j5rtR/O7XCZeSgueBCdpwLHADHeFkOG83JfWywJ/FmXZ8A7+vHK+dGVos+CbT1ukU5MBtwP7hDyZNhGuGeVx/uPVsi1k22bOCBgBI5AXAgUnEHZerCPKAh4LPe6+sEGUhX45V+QyZfMOjTpqJOkYDoejjAl1FwjdEvBCINy4nbL0iTmyMVT7BWisskH3VrgP2D7k4a/0lDNa5sjvQ7Zr5oyAETACeSFQcAKhokHPAC4NlZaQQrkzWcpRuQyEtPsCHdfhsRz4WKjzeQtjIjzpxzi66Ww7Bq9s0ONVWBaqw6KgAkv9Nr7bNF9ezfZ6mn0jYASMQLYJFJRA2K1RJ3Qq9wJ7hApGaBb4TLxWng3V7jsYS88FLkb5AlCSo35TIlxa6nGlv5W1xXrtsOsCHVfqcamSDq7lh8j+OYHj47X8Jaf+KyFOwEwZASNgBF4jUDgCoV5jVWXMDmAuMCq0JVTa8PlWokZ+EprNPgylv6B85qhyEjAiV/329uOyEK4QuFI97k1s4yXmi3POLJ6iKhWL+IDAsrAzf4pwsZ0iFM9WspkagaFMoGAEQmWj7gZcp8oHw8y3IML18TZOYr4kc7HQ0y7XYak2vgRcpDAxF32+VR8ivOSuVdTn5sRW/pqr+edrvm/ud8IyLR++kZMC0nE0xoY1LhFWBwGH24uGsIiaHSNgBPJFoDAEQr16leWcosr8MD/Mgce8gFktc+W5XC1A1QKdrh7XK2mhk9cikFR4CuEXCMsSNfJCXgeU484rl+gUTXKJwGcVYiF232AhmEOkaaaMgBHIC4GCEAgVC7UCYSnwuRBPDzpQTq7o4OZc5VmYUa+lHWV8O4CFWUosNahNJLBF4RF3PB5v4+6iOU2oV6+ijM9COhTz5EHBe8vjGV7oTrGnRVcMjagZMgJGIA8ECkAgqFQ18nlVrlHYMTRGws9dZL2WOlkVms0+DE2+Srf3NvMwQlWu+hxAP84Lfz0ePymJ0fjcWeJSGg/5MnOZlmzYwHUIXw3zFEGU8+Nz5IIhD9AmaASMwJAlEHmBMH2J7tCV5ELgxBBX4UXf5+Tm2fwyl97mVUv0iCDJz0KcR3ZMCY94wvkjhfuKIfDP9AW6e5fH/cDOoQEVNsbaqLAnj6ERNUNGwAjkmEDEBYLK5CW8z0umYwWE8qu79979ZklRFz9HXswl78pGvUOVw3LZZwZ9bRP4gQ/LKKcpl8GjMhjzoJtWNGo9Sn2IV1iIz7fi1XL9oAdlDY2AETACeSQQaYHgjn/Xb+YUlEtCDGqT8ISzW2rl57nkPmGelpcOZx0wOpf9ZtyX8JSnXBko9yTqaM3liUvGYx+AgamLdacgxd8Upg2g2TtWFfh9m8/nXrTwy2EhNTtGwAjkkECkBULFJTqGLu7uzWgYBpZuUZZ3d3D6mvmyIQyD/bVRtVD3C4QH+1s/YvW2APd4Hjdt2cb9L8+XrREbXyjDqWjUk1CuDDF9+PMqfLW1VlxoZytGwAgYgYIiEGmBUNWoBwfKr4FhIVF9yYNvttSJs5nTUrlQv6XCdTntNMTO3NUMQlyVX0iMq+KzWQXikkINmVKxSHeRgDsV9g1pUi51+NWJds4uumBUIQE0M0bACOSPQKQFQmWDfl/huLDwCNyrO3N44ljpCMtmf+1UNui5CoXv1e4iT3o8E/P4blO13NHf+RdCvfSLho2coMIVIV5p/Vl9vtFaLfFCYGBjNAJGwAi8RiCyAmHGci1ta+FlYLvQlkv4fKJWfhmavQEYqmhU50fxnQE0iXxVT/ixeJzVXC0vRX6w/Rzg5CU6Q7q5TYQ9+9mkr2qrxGN2vEZcmmkrRsAIGIGCIRBZgVDZqF9UJcwP1ZUV7eydq6BIb94BFY3qsgeeEMrO8GgQ5VDV9MuO8lBsDs6Ii53QhMeFw5L8+plONhb6UfpujTqqS6lRmBNGIid1VzPKJSM6OLdYk2MNbmtZKyNgBPJNIJoCwUW4K+d2lCNCASS4u/LjErXyw1DsDcJImAJBfQ4o6aYp6XEW8HmFqRJuqOCBzVB5FY9fEHBDchj/zGXK7IENtH+1Kxr0EISrUSr716KPWsJvBc7IZbbQUMZtRoyAEShqApEUCNMv1F27YjwM7BLS6qxiGHsnzpRNIdkbsJmwBUJrtTzgEj8l2zgIOBo4BBg34IGF10BFeErglhKPW58t4Dv36Ut1165ulqIcGUZcBIE1Aiflwzk2vOU1S0bACBQbgUgKhMoGnaXwg7BSIYvHkniNVOdzcbMhENLzqVevqoyJAfxfb7TJvUN8pjcYZC7A0t/U44auNu5YN0/aBmMkr22Wq1+R4NsE6cBJ22c6lvQLEKVOO7gyMT/3DrKZjt/aGwEjUJwEIikQKhrVHe+61wslISxLG8LBiVr5Rwi2Bm0iawKhd0QV9To8VsbUlKa98E/KdzIo96vZxU5Ixbh01WxZOWhweWrYG7diGbBPGEMQ4cdBkurWc+T5MOyZDSNgBIxAtglETiCkExq9yj3AB0Ka/P06jKNaz8zvB3O2BcJrrCYu1bJYkvcTcCnw3pAYDtZMN/BvT1gQ7MTP8vG8dLADT7+iiXMzyhdCOpF5xvc5srlanhzsmKydETACRiCXBCInEKYs1o9JKh1QKIzcC+5e/LzOdi7J91F3rgTCa5snneQqxWxRvqk9vgleLjfW6/tynvyex62a4rxxcdauuFaccIh8qWjQkxEWoIwJYbCBwmGt7dxT6C89QmBhJoyAESgAApETCBWNerq7WUcZmyk/gVcQjorXyu8ytZVp+1wLBDfeGfVa2jmKg1NJzkiHq5YQY0oMAojCGs/nu14nv2l+jHXcLqlBmMlZk4oFujte+jSrIpROhXmxMhqGeuKrUFiZESNgBPJOIFICYeYJWrJhKpeqcnxI/gd/VOHbrbXydL5J50MgvDbnaY06MQXHKHwRZa98niYA3QK/CuCH0s7fEvPz97Kkzz1xpPoVM7kb+GSfdftRQYS7ykbylZWnDs1cFv1AYFWMgBEoIAKREgjueWN3CdeocmjGDF3sA+Vy2pkXhS+hfAqENMvl6le1pE8Rvhr0xJfYKWPGgzcQAHGUnwbCTatW8ExUTxMqG3S2wuLBT/UNLdeVxtj7udnySkj2zIwRMAJGIGsEIiUQpjboAameOPjvy3jGgot5UJto4/tRuPPNu0DoBTptge6YjPFxlJNUOSCfAZYEtiI8psL396vgpttnRe/KoXKx7qUpHst4P/YYCBAOzPeLmpDmYmaMgBEY4gQiJRB64x9cAkzIlLsITwZwelRS7UZFIDiuLinRS5uZ7Ad8qzd2QsZv/TNYLxflcqMIfwVqohZt8KB6jbWW06zK5Azm+Pqm30nUyWUh2TIzRsAIGIGsEYiUQKhYpGcQsCikN/z3qs9JUcmiFyWB8Prd5E5tVLg2UPbI2i7rv+ENHpzrlfODKDnyVTbojdoTrTLzotyYmCPfyNyQWTACRsAIZJdAZATCjHodua2c80UJI+Khu+O+obydk6OSICeqAsFtr/2XatnzKWokxbcUdg7JQXSwO7cTuFt9Fqd8Ho1CXofKRv26Kj8a7ITe0E54PFErLtqlFSNgBIxApAlERiA4T/skLEL5SgjENgMLEnXiTiMiUaIsENKAjlS/aib7u1cfqnwU2DGMPASDhi80i3KNV8JtzWfL6kHbCaFhVYNOVmjWMBJiKR1dYxm37sQCDEEdAkszYQSMQOEQiIxAmHqR7hnEuEqVD2WKL50cRzijpVZ+nqmtsNpHXiD0TrRike7iKUcEyleB/fJ8mtCB8AsRro7XOB8Fcf4KuS+qUrmIRFh+CDHlfU1z5JHcT8R6NAJGwAj0n0BkBMKUxbq/pLgBmN7/4b9NTeUZhaNaI/QhXCgCwRF1YYY7m3lP0uNLopwAjM54TTIzsALhwkQbv8rXi5SKRv01yqczm0Zva+WoxBz5SSi2zIgRMAJGIEsEIiMQKhv1Ewq3hhFBEXgoUA5ZNUc2ZonbgM0WkkB4bXKTF+r24vFeT5mrcHAerxycT8nTIsyL1/KzfJwkVC3SxiCgZsAL/xYNRDk3PkcuCsOW2TACRsAIZItANASCqkxZzBESsDyEKH+Bi1gXr+Vz+fgiebuFKkSBkJ6LqkxbyA5Jj2MFXNAg55uQj+KuFx5Sn++0VssDuR5AZYMerXBjSP3+IFEnLlupFSNgBIxAZAlEQiC4nAHtZRyv8L0QSLlQvtfE68TldIhMKViB8BrBevUqRrKfpLhA4UCgPE9wl3tQ3VInq3LZ/9RFemAqSMdqyLwIf0rUykGZGzILRsAIGIHsEYiEQNixXkeOLKNW4dwQptohwvnxWgkrPG4IQ4KCFwi9FCbW69hYOcejfF1gt1A8+wdGuF2huqSc7+cyVkLVAp0eeDjHwjCEUSJRSxWSJ6fLgfG22kbACBQpgUgIhKoGHa3CAlVOCWEdtnnK8S0RcwIbKgLhtfWpbNT3K5wkivMdmRjCug3ExBPEmJWYLc8MpFEmdSuX6BRN8gdgaiZ2etuu7+pgcr5TkIcwDzNhBIzAECYQCYGw6wIdV+pzmfY8rcu0vIrHYYka+VOmhsJsP9QEgmOTFnYBh+HxNSX9PLUsTGZva0tQD+a01EpjTvoDJjXqhJhLeaXp65VMy8bSUt7z3FmyNlND1t4IGAEjkC0CkRAIUxfrTkGKHyh8JuOJCpt8jw81V8uTGdsK0cBQFAgOj8vr8MompolwpGg6EuNElOzvK6GZndgzcax0hLhMb2sqvUcDrg8l0yhs9n0+GLU9mguO1ocRMAKFQyD7H+T9YJH+dabcpvDBflTvq8rGlLDn6lpZ11fFXP73oSoQehiq7FjPiO3K2CuA+QofzwFb9T0+3Vwjv8lBX4R9yiXw2Xid/DkXY7c+jIARMAKDIRAJgZAOs6zcBYQRo379+FImPXCWtA8GSLbaDG2B8Dpq9epVlXFiAO74f1S2eDq7ItwUr5Vwkij1MdD0dQpcpHBqpnMSZav4fKWlRtyet2IEjIARiCSBSAgEF+s+APdL8N0ZUxLWJWpl14zthGygaARCL7d3Neq7k+40QdOnCS4SoxcyUmdubaKdybmIrrhbo47qhHNQajOdh8BWEY6JUijwTOdk7Y2AERh6BCIhECov1ClBjN8LTMsYsRBP1EpVxnZCNlBsAsHhq7hEx9DFLOAYlH1Cd2KUtLfDhESNvBDycv2PuZ0X64jyFHUhPcXdBnwrUSe3ZnvcZt8IGAEjMFgCkRAIFQu1Ao/7UaYMdiKva/dsok52D8FOqCaKUSCkAS5Xf1qCvVNB+oXKrLCfRMZ8DmjKQWTFCcu0vHQjs4G1nJNAAAAgAElEQVT5GW8MpU08TorXyk0Z2zIDRsAIGIEsEYiEQJiyWCsllY5SNyHjeQqPJ2olDF+GjIfyegNFKxB6IfTe4X9YhW+K8hmFkjAA+zE+3Txb7gnD1jvZmLhUy2JdnAEsDKGvNhFOj9fK9SHYMhNGwAgYgawQGHICQeCxeJ28Nyu0MjBa7AKhB51KxSI+LMp1qrwrA5z/aeoJX8jFXX7YAkGVM1rnyPfDYGA2jIARMALZIBAJgeCuGET4k8LkjCcpPJ2olRkZ2wnZQLELhIPqNdY6kmM1xXyBHUML0RzjU4nZ8tuQl+t/zE2Yp+XDyjlLAy7IuC93xeBzcrxGfpSxLTNgBIyAEcgSgUgIhJDD2LYk6iSMcLihIi9WgeAScXUO5z0pjwtQPgn4YYIV4QPxWnkwTJtvZcs5KZal0umezw+hr214HJ+okZ+EYMtMGAEjYASyQiASAqH3maP7FRiGc+HaRJ3kOjdAn4tTdAJhufpTm6lM+RxBkI4dkPnp0JsoCyT9gAlNc+XlPhcgwwozrtSRbVs4B6jL0JRrvs3zOKalRn4Wgi0zYQSMgBHICoFICISpF+qklM9dCHtlOkuBV/y1TGy6QjoztRVm+2ISCL0OiYcofAP4GDAsTJav2RKhKV7D9FxkRexNKPZdVTJOI67KVk84Kl4nd2aDi9k0AkbACIRBIBICwYVa9uGnKPtnPClhg+/x7uZqeSljWyEaKAqBsFz9qhb2D+BrwGHA+BAR/o8pEb4Xr5XTstnHa7YnLtWxsW6WohwTQn9bVDi8tVbuC8GWmTACRsAIZIVAJARC5UW6s8a4AeVTGc9S2ESK/RNzc5cKuD9jHuoCwYm8koBjAuHI3pDZ2Yic+AbUGnBA61x5oD/8M60zbYHumPS4Djg8U1vAZjwOStTIoyHYMhNGwAgYgawQiIRAmL5Ed+hK8T2UL2U8S+VVFf6vtU7+nrGtEA0MVYHgXifEh/NhT5ij8AFgpEuTECK6tzYlPD5uDPuuOFG6s94XMOUiHS8+twAHhdDfRomxT3y2tIZgy0wYASNgBLJCIPsf5P0YtgvJKx00qnBCP6q/Y5WoxrkfigJh5jwtX1/OeQTpe/nyTNduIO0FTojXiftFn5OSdqQVfoOGkC8E1sfKqWo6XV7NyeCtEyNgBIzAIAhEQiCEmQgHaMdjTqJGLhsEj6w1GTICQVUmNzBGfPaXgEXAHlmD9naGhX/5MT7XfLaszlXfUxfqtJTHQyhjMu7TJRSrYWIunCszHqsZMAJGoGgJREIgVNTrcG8EJwcBS0NYiS7xuDxeI9Uh2ArNxFAQCC4WwCjYK1COCQJcmuWy0AD139AG8TizbBu3rpwvXf1vllnNqoW6XyD8M4zrE4F/xuvk/2U2ImttBIyAEcgugUgIBOrVqxrOlwLhxxl/AAspgZ/Ha8VlEYxMKWiBUK/eu4ZT0S18EeWrIswILRLiwFaoHfhRSvju6lpZN7CmmdWubFCXaOq2zKz0tva4JVEjLnmVFSNgBIxAZAlEQyC41MANeojL/QdsFwKtv5eP4pCVp8rWEGyFYqJQBUJ9vXo/KucIhWNRDoAQjtgHRzSF8geJUR2fzRO5Pp6vaNR6lHmDG/obWwlcGK+T88KwZTaMgBEwAtkiEBmBUNWgHwzAxaavDGGyTwUxZq2aLStDsBWKiUIUCFWL9F2Bco4oB2tPps2sP118G9gB8DDCGYlKHmKWpEJZlAEYqWzQ2xW+OIAmb1vV9zi2uUZuCMOW2TACRsAIZItAZARCZYPurbCMnqdymRWl1fM5paVG7s7MUHitC0kgOJ8QGcHXVJkryqQ8XSf8B77gTgw4Mt7Gv5kvTizkvFQ06jMou4XRsQcfaqkTl97cihEwAkYgsgQiIxBcRkeEi4EjQqC1QWBevE6uCMFWKCYKQSC4xEptI5ghAecqHJqtEMn9AiooivM5+OU4OGVFnWzuV7ssVJpWr9sly9gQUqKpYByMzed8soDITBoBIzAECURHINTrGIYzHwkh1j0kPVg2pZ3v3D9fklFYt0gLBFWZsoQK6eZwvDT/MK55MsHejvBvlKvK2/lhLl8rvNWgKxfoYepxRyYTel3b5kSdTAvJlpkxAkbACGSNQGQEAsvVr2jhbIGLwjjSFuGuUjjx2Rx7u7/dSkVVIOy+QMe1+3zEU74JuARLsazttr4Nu+uDNW7tvIAfTOrgsSgIvMpGvSyMJE1u+iL8NF4rLhy1FSNgBIxApAlERyC4n60N6pL8LFXYMWNqLpiOclpzREIuR00gzFymJZs2sl/gcZQGfAHYJWPmmRlwjod3i3JT9zD+sOYscUf6+S+qUrGIJ9BwAkIJnBOvkwX5n5iNwAgYASPwzgQiJRCmNOpHPbhclT0zXTiBlxHOjtfKTZnaCqN9lATC1MW6U5Dk6yp8BdKss5KOeQDcmkW4tDvgN2s6aMmXI+JbjXfyUq3yungGKBnAfN62qqd8omWO/D4MW2bDCBgBI5BNApESCJMXapUnXAN8IoRJB+LR0Dmai9adKG0h2MvIRFQEwrRG/X8p+K4GfABhVMaBqTKhonQg3OrBUq+c55pOl85MzGWj7ZRF+i0J0lkcMy/CJkmye/wceTFzY2bBCBgBI5BdApESCO7Ye+NGrg3gmDC+uMTjTh/ObKqR5uxi7Nt6vgWCe7pIGfWizFbJq59BGpb0OCGe65dzRxSFwWsrWtmot6uGE/8AuH+YcNiztbKl7x1jNYyAETAC+SUQKYHgUFQ0ai0Bc5FQIiomBI6J18mf84s5Pa9laObZKt081OeA1mp5oM851atXAdtJOR9W5bvA3n22yW4FBV4UuLPUZ+Gz1RLPbneZWa9YpLsQ4OIVTM3MUk9r8Vii2zgvMV86wrBnNoyAETAC2SQQOYFQtUgPDZTvoUwJYeKBCGf4ZVyX71+puRYIFT/U4bzEeyVI+xp8GRgbAs9MTGxCeAi4qqKNu6LwOqGvyUxp0KMELgfG9VW3H/89hcdXExX8NB+RIPsxPqtiBIyAEXgDgcgJhKkX6qRUjF8C7wtlrYRfxlKc0DRXXg7F3iCN5FIgTL1YJ2k3RzonRFX2CSnAzyBnTjfwuMuzkRJuznWSpcEO2gWNai/je9pz3VU6WDv/aSesVuFzrTXyr4xtmQEjYASMQA4IRE4gcKT6lTO5QUl72PshMFgvPh+LV4v7kspbyYVAmHa5Dgs6OFQDjlX4IDA6bxPucSJxomy55/GT1DZWFNLResUS3Z0kPwTCSst8h1/Cac1ny+p8ron1bQSMgBHoL4HoCYSeeAjHK1wKlPd3In3Uq03UyaKQbA3KTLYFQsUC3Z0Y3xHl0woTUff9nNfyoCoNw0r4y3Nnsz7X2RcznXnVQv1mILh4BTtnasu1F+H8znYuXjcv/y9qwpiP2TACRmDoE8j3l8hbEk5nEQx4MLTUwsLTiRr2yOeXVLYEwsSlWlbSzRdVqQPeFdZ7/Qy2fjseDSO28b2n9mBzId63T75Kt/e3sFh7oktm/G9EhVcIOKl1jvwsA67W1AgYASOQUwIZf/hla7QVDfo34ICw7IvwyXit/C4sewO1E7ZA2OHfPLyxgkp85rlneBpSIJ+Bzqu3vkus1CnCX9WjOlEjjw7STiSaVS7QD6nHlcB7whiQwF81xWmJcwqbSxgszIYRMAKFQyCyAqFqkZ4cBFwVGkrhN+PGcNiKE8U5zeW8hCkQUL7sCWMV5qavE/JbOhGe9ZQbOwNuXDtX1ud3OJn17uJFeGWcEkBDSKcxKfG4plSZY/EPMlsba20EjEBuCURWIExcqrvGunga0tH+Mi4KyRKfDzf1J35Axr39r4HKRr1ClW+HYVqUJ9Vjjwj4GaxziZUUfrhfJQ/dPktcPoWCLlMX6rSUpCMnHhTSRF5UZW7rHPlBSPbMjBEwAkYgJwQiKxDc7Csa9Q6Uw8IiIcJNU97PN+//aO5TQFc26AUK54Y1l7zaETpF+b3CzYHy21VzZGNexxNW5/UaqyrnS4FybWgOssKDvsdxzdXyZFjDNDtGwAgYgVwQiLRAqFqiRwRJwnPsElpj8OWmWvlHLuC+vo+KRv0OyiW57jcL/T2nsMz3uLOlhiYQFx1xSJTdGnVUp6b3Wxi5QBwTd511U6ycU/IdqGtILJBNwggYgZwSiLRAmHa57phsw4VJ3j0UKkoXwvWJFs7g2tz6Ikxp0P8TuDuUeeTHSDvCL72AS7qG8eSas6Q9P8PIXq+Vi/WzmuSnSAiBkXrjQIjHyS019nohe6tmlo2AEcgWgagLhGGpDs7VINSj+afwODVRI3/KFtS3srtHvY7dVkahOvC9ID7VU/bl1nxcz+RknVSlopFHwsxXIfBE5/b8vyhkE80JQ+vECBiBIUUg0gIBVKY0sL/Ar0KKh+8Wr0uE743yOP/xatmWy9WsbNTHVNkrl31m0FcArMfjHr+Lc5vPHdoRACsb9GsKN2XA63+ainJufI5cFKZNs2UEjIARyBWBiAsEmHih7hqLsRSYFSKUlZ5yRksHf2S+uC/CnJSqRq0NNP18Luplo8BDgc81rbP5ZT4DTOUC1PSlumt3F/doSHEPese8OeYxMwqpxnPB0PowAkZg6BGIvECYuUxLNmziaIUlKGNCWoIA4dpYivNzmcQpHQ7ZS6cPDiM7YEgo3mDGOdWtRLhNPW5tnU1iqIsDt782buTcAGqBYWFBFeH78Vo5Pix7ZscIGAEjkGsCkRcIDsjkJTrDT3G5KgeHBkh4SeD4+MP8mttz837fhUUu7eKSAE4MbR4hGRLYKsLNKtzSJvzrxRxfv4Q0jQGbmbpID0wFXIvw7tDiSgibBT4Qr5VnBzwga2AEjIARiAiBghAIval3a4BahZFhsRPhT6mAz+fsHb+qVDVyoMKPFSaHNY9M7bjrBIQLPY9/NFe7DIxD5+niO7GZuFTHlnTToMrRYZ4e4HFDoppvDvXTl0z3nbU3AkYg2gQKQiA4hJWN+n73/h7lvSEiTYlQH6/NnSOZe2vfDWcHmn6ZEUY660xwbEa5NKZc2dTJ+lz6Y2Qy6FDaOrG2iKMCZQmwSyg2nRGlA4+PJvIQayO0OZghI2AEjEAYmepyRrFevcpyLlFNH8+HdlcMdEqK98fPkcdzNZfKRt1NA5YifArwctVvuh/BBTbqQHnA9zi/uYJ/FGLGxUyZTV6gM3zhMhU+nqmt/7QXVOCWrhRnFHpOitCYmCEjYAQKlkDBnCA4wtMW6j4pYbnCtDCJi/Bnz+PI5mp5KUy772SrYokeQpKFve/ucyUSXK6EZzzhx14Z3286XV7O1Xyj1I87xekIqPaEOQqxEMf2UuBx3Kpt3F1UpzEhAjRTRsAIRIdAQQkEVKVyMYs0YHbICDuBS8pHcdHKU2VryLbf2lzPicgRqswD9shBn2uB3ylc11rLA8V8P17RqJ9DWQbsFBp3IUXAzSmPuatrZV1ods2QETACRiBPBApLILgXDQu1yvP4C8qEMJkJrFGPmsRDLM/Vq4aD6jW2qoxDApgLHBDmfF5nqw34kzs1GD6SO3ImgLI0mUzN9u6fn4Xsy+KubloFZsfb+LmdHmS6StbeCBiBKBAoOIHgoFU26GkKl4cMMCW4X9acHa+VB0O2/fbmel427JkSThf4CsqIkPp2vgZx4DoRfhGvpKkYfQ1ez7KqQUere8oJnwntSWNPB90It3T5zF43W14Jaf3MjBEwAkYgrwQKUiBMmKflw8q4V5UDQ6bXrcKtsRjnNJ+d29DCuy/Qcd0lfCJIUaekwzFnsjZdwC2ecGVHOyvXzRN3ilDU5cjl6j8UZ6kop4Tsd+C4tqjP8a3V3FcsT0SLejPZ5I1AkRDI5Esor4iqLtKDA597gJKQB+JCL5+TLOWyfGQsdL9yA4+jUKpRKgYkFIRuUe4NlPNa54hLPGSll0Blgx6v0AhsHzKUboFr43Xy7ZDtmjkjYASMQF4JFKxAmFivY2Nl6Tfsx2ThqeCreJyQeIif5sof4c27YNrlOkw7OTCV4jAR9lVlvECp9sROcOvmhEwS2CYez0mKP5XCL56po7WYHRDfzNH5eSTK0hE4LwHenYV/bXGUjyXmSCILts2kETACRiBvBApWIKRfNDTyIYVrsvLBL7yA8o1EO7/Lu9PZcvUrEuwYgwlJGCUphnnCVk/YmBrDupYTZXPedlCUO3bcWtmXgEaUDw/oNKZ/8+oQ4dvxWrm+f9WtlhEwAkagcAgUrkAAZlypI9u28G2E2hATOf139YRmL+Ckljn8we6WC2dTp0eqKlMWsbsoLt3yYVmJWin8JFbGsU2ni3sma8UIGAEjMKQIFLRAcCsxdaFOC4RLlXRUwmyELn7I96lrrpY/DqmVH+KTmdSoE2KkI28eHnLkzR5ywtMx5cimOnlqiKO06RkBI1CkBApeIFCvXkU5h6Fc5sIkhL2O4u75hQdc1L3mGvlb2PbNXvgEpl2u2yXbuBH4NFAafg+0i3DalDZuvH++OD8QK0bACBiBIUeg8AUC4BzRWstZoMoZWfpCcCGK/4LHmYkaeXTI7YIhNCEnDlJt6VgHThxk40QJEb5PknPj58iLQwidTcUIGAEj8AYCQ0IguBntWK8jR5RzL8r+2Vpjl7MBj9Pis3nCXgpki/Ig7arKpEWM95Urgc9mSRy4ZEwPa8Bpibnyz0GO1JoZASNgBAqCwJARCI521VJ9T9CVjo2wa9boC3/3fL7TsoUVeX/dkLVJFpjh5epPiTPdg3mqfC5Lp0gOygvicd6+Ffzw9lniTpWsGAEjYASGLIEhJRDcKlU06rFoOj7C2KytmvCYJ5w7vIJ7V84SF7XQSp4IpOMcjGQmKWp7fQ7CTAX++lk5v4PrUgHzVs2RjXmarnVrBIyAEcgZgSEnECYs0/LSDZyL8B2gLIsk4wiLhsGPn62VLVnsx0y/A4GKBj0EYQ7KB7N0rfBa7/ekPE5bXSPNtiBGwAgYgWIgMOQEAqhULmEyKS5S5StZiLL42r5wyZCeV+F6klzdeo48XwwbJipzdLkVHm7hmwpnArtnIQjSf6YqkFCPz5uDalRW38ZhBIxALggMQYEA7uljZTn7AkuzkNDpv+siqCjbEO7whfom+3WZiz1Lb76K+QQcnYXcCm+Ygyhb8fl0vJq/mmNqTpbXOjECRiAiBIamQOiFO2Whfl6Epc41IQe8HxE4Nl4nj+Wgr6LtYvJCrfI9LkP5VBayMr6ZawrhuEStuJgKVoyAETACRUVgSAuE3pMEl973PJSdcrCyGwVquwJ+vnYOG+wXZ3jEd2vUUZ2kky7VA3ujGaXD7ntgShvCkvJRLF55qmztu4HVMAJGwAgMLQJDWyC4fA31WtpWxjlAdZadFnt2Rs+1w49VuLJrDI+vO1HahtaWyfFsVGXyQt7teXwJOAlyIvS2ifBjHy5oqpU1OZ6xdWcEjIARiASBIS8QHOUZ9TqyvZx5CqegWX3Z8NqipkR4SpQbNcbP4ltYbTETBr7fJy7VsaXd/J8GfAPhoBxcKbhBugyNd6Z85q2aLSsHPmprYQSMgBEYGgSKQiC4pep1bJtLkA7HnK238m/eFRuAPwE3jtueu1ecKN1DY9tkdxYzl2nJps28P1COUU1HRdwluz3+x7oLfnSv+NRZtMwcEbdujIARiCyBohEIbgUqFukuBNQKnKpQkotVccmeFNaJcl+J0vDcXHkmF/0Wah/Tl+quyS5OCOCLLllnDsWcux56QOG41hqeMf+RQt1BNm4jYATCIlBUAsHFSJh4IRNKSpiH8o0cHVmn16pXKKxHuNr3uLq5Wl4KaxGHhB1VqWzkq0CNwnSE0qw7Ir4R3FMx4VNNtawFcTEurBgBI2AEippAkQmEnrWecomOl04agFnA8BzvAJfwp1mFixF+OW4064v26qFeY7uVU9blcZCmuCD9OiH3xT1lfDAGs8whMffwrUcjYASiS6AoBUJaJFyk48XnQuDLQHkeligQ+BdwQyrGfWUpVhdLyOaKeh3uD2eienzA+RmgfCR9YpD70gHcp8LZrbU8YycHuV8A69EIGIHoEihageCWZNoC3THlc37vdcPIvCyToBrwlCf8UuGvpaU8+dxEXmAIZgucfJVu729iT/HYL+hJyfz+PIkzt9TuKePdeFxoDol52fnWqREwAhEnUNQCwa1NRb2O8co5OYDT0Zx5y7/VtnBH3auAh3AppVP8ffhUHiv0bJHpOBSjqPK6OUA9DlBNiwKXOyEnTqJv+e9PaROPm1M+l606m6fNITHin1I2PCNgBPJCoOgFgqO+12Id8WrALFHmKkzLy0r8t1PnILcJSCA0odxHwH2JR/g3t4t7hlcQpfJS3Tno4GCPdPyC9wCVvUGO8r3nHMOLYsJ15nNQEFvJBmkEjECeCOT7wzpP0/7fbqddrsOCDj6hms4CuVdEBhYgvIqmBcNzAr/D594pW1l5/3xJRmSMPcNwEQ8voVKSfMyDT2rA+4AxwCjIi3/B/+BxiZfU49vlI/mZhU+O1O6xwRgBIxBBAiYQ3rQolQ3q4vxfqcL+WUwVndFWEHcVodyP8HtR/tRSy+p8HJNPq9ftUsM4CJ+D1eVJUKbn9ergHai6lM14HB2vkb9kBN8aGwEjYASKhIAJhLdY6N0adUIXLEI5XCE/zov93IAuvgLCOoUnPeHJtMOjR7MmeVlL6Uym6C71SHZ0kxrmkSwRgk0egb8d6m0j/d4/eBVJjUDGlSMdW/C7SvGHd+B3KzHfp0SUUvUYo0KlKjNE2bP32sBdx/j9HGq+qrUD9+MxN1HNY/kQUnmZeL16Myfgt69DusYhyfVIbBxauh4tm4Cu2B53qVYwV1Z5YWidZpmACvX4Mycgmzvx3B51Hb62T3eC4H4ILEx9lpfhnX9Y5a/zKPc8camWlXRzlipHuwcPUT1NeAeGLknU8yK8AGwENrurChW2itKt4MI+d7n24hHTIO00WCpCucJoNH09MBqPnVAmoIzuifdUMMWJnxdFWJ4ULl9dI80FM/J+DVRlwjLK/E2MKUkxMiWM8JSR+AxHGa4eIyVgZCCUiPujxBRSqnS79fc8tilsUaVToD2lbPOUbTGfrT5sfraNbfbB3K+FsErvQODI5er/s5nt/BK285M9+zSAEW6Pur0qAdu5/y+kf4TEvAAJhCTuM8qj04MtQUCbL3SklHbP7U9lG8N5FXi16XTptAXIHoFC+sDPHoW3s6wqUxbyf55wsgofxW1sKwVBQNxrELgupfx01RxxAqmwi4s0uYCdiDFFAiapx3hVdhWYqLAjsAMwDmGMKCP7GSXUnSBsQ9gMrBflFRVeFmGtpFgX+KwLYE2p0trUxjoTDIW9hXIx+oof6nD/hXSMkylufypMEGFXlPEIO6j27lPnmySU9yNaqhP6XSJsQdmowitunyK8qLCGgOc9ZZ0qq/xRJJpOFyccrIREwARCXyCPVL9qH6aqcLQK3wB27auJ/fe8Emh3qZo1xff3m8bDtxfwMbr7sJUX2U2UmYGH842ZIjABYRftEQTutCA7/4aFThSXbOwFcblEYE0KnhCfh4cFrCyWoF553ckF0vnUxbpTELC3KjMRdhdNi9bxwM69jsrZuoYMgK3AywLPu5w3CM0uAF2px4rxW1kdOWfuAlnT14aZnQ+XAoPQ93BVKi5hNJ18RKBOewL8eH23sxo5JvCMKBcTcGf8HHkxx32H0129xqaOZPdUikMRPoxSkT4ZgO3z6gAqpHpf06wH1gj8XYVfJ9p4mKi9qAlnJczKOxBw2XEVPqzCp1He2ysG3D51r5by+b3Snha27qRBXHRUflcm/HpljbirVisDJJDPhRzgUCNQfbn605oYm/Q4C6guAAe9CEDLyRA6EH4RUy4a3cJzK64tvLTaM+p1ZMcIZgXw9fQHrruj7XkeGkUhmj72RelEaBHh5hHDuPnJ7xSoKMvJFh0aney+QKd3+pyIcpgLLKcew5xfYdZOsjLD5q7QnI+Cc1T+Qwx+UNrOfSvnS9r3ykrfBEwg9M3oLWtULNYPEHBpr3p2/0iM5SBZZtDMOVquEWWBP4KbCsphqV69CcLwYSOYRsDXesN9O1+CQi2bRfip73G9H/CkOTkW6jK+cdwzT9CSF3dnlJ/iI16KkxQ+WcAzS4mwErhWlF955bxYUJ8ZeQBvX2oZQN91gY4r9ThW4ShgtzzmFchgFgXZ1AmD1QL3qLIkMUcShTMLlSmXsIvXxZ6qfFngsF5/gsKZwjuMNB2MSrhXAm4Uj0dbqlhrzykLb2ld4Di2MjXp8SFI+17NzOsVV/gImz34ccrjDk0RHxKOzOEzsl+9GTNdrv6UZvbyPL6myqcQ3h3R47aMp5p3A+4e3Hkuw/3q8aPWavlj3sfU7wGoTF/KhGQ3H1A4QpVP9/oV9NtCgVXsEOH3KLcnPf62uoKECYXor6DLnbJtOHv4wkcVZjlh0M8XMdGf3FuPcK3AbYHya4VHTCi8EZKdIIS0rV0+h61J9lePT6mmMxW6qIJWwiAgKMrLKPeIx12dPvevm836QknPXHGJjvG6OViVz0M6nPdOYWApEBvuCaWL+nmH7/Hr5mp5qUDGXVzDdM9oFzHdiVeBz6BpIRsrEgjuh0cTkj6RvL1kLSuarrD4Cm7tTSCE/C8gHX64jPciHAbMUmVSyF0UlzmlQzx+lhJuVeVfq9t4oWDe4y9XvyrOPgonqPIJSO+FbD35ivK+cM/R3KuSv3jCtS2V3G+nCdFZLidgpYsvqKavSvcFtovO6HI4EqXD5bzxhF8GHlcn7OWDCYSsbD9VmTaPUd3DmSrCLFz8hPymks7KNLNs9FX3MkFTLEvCc2s72VgwwgBwEeRWtHBGIHw7HYmStLd3UReFpLg368ItpTDfYinkfztUNqrznbpAlY+nI6dG89VMrkG5IPTN4nFevIY7iyY8+1tQthOEHGy9tMD/TScAACAASURBVDOjcIp6nImm37NbeXsCzhv+dmBJvIbnCvEfZ/pDV7lZe36NWXkrAkKzwvGttXKfAcoPgcpGPU4DliJFemLQN/ZuEW70PM4p1qsxEwh9b5LQaqSvH0ZyJCm+rLAHMNZ+WdItLk8EPI9ym+9za1Mh5k2oV2/iaMbEupmFMq83cExoe2eIGtqAx2Up5furH+ZFbrfkUdleZ+eE2DaMKvGZp8qXst3fELAfIPwTZX5XB39ZN09cjpuiKSYQ8rDUOy/WEcMD3i8u2Ai8D6hIxywvLqcgF0+9FeVJEe7pHMPd604szH987q34hnfxbg04lZ4PXXdUa6V/BFxo7LtEuXz77fnnihMLL8hV/6aZ/1oV9TqG4RyCUI2kg3EVoz/M4BZCaBW4Mijl5tYz5fnBGSm8ViYQ8rlm9epNGckUT9k3SLGfeOwlmj5ZcLH2h5wHsQivoDyD8HgQsCIW40EZxr8LOVjJQfUaW1XGIQpnKHykN/phPndVIfbtIjM+JHDF2O25zURC2EuoMqmR8THlmwrHuR8kYfdQDPbE5X0QbvM8Lm2ulieLZM7FMM3oz9Ed/bWXUynKNFV2x2OfdPKTnueSUQy32x+oKYR1KP8SYYUErAx8mmPbaGmaX/hZ15wj4sNxTlblZODd9iqoP1viHepIOvjVj0RZ3FIn7trJSggEpizWSpLMF+HQIR57IwRafZjoicXydy/FopY5/LoQfaQGAslOEAZCK0d1K+p1uJayfayUcckUU0TYV2Bf1fR1xC6RFgzCJpRHxeNhJf3n3zGfl9u3sH4o3d9NmKflw8rSvgbH9qawzdHuGPLdbHMhm4eXMufpIjrKzdaqTmvQPVJwTW+COZfbw0o4BNxJ6KJxzdxciLlf+ovABEJ/SeWrXr1608ZRUupTkmxneFeKaQI3qKZDO+e7OAeeuMAjKI+I8qAGPFEao62zje7EHnQPxffuE5fq2Fg3S9F0pLmyfC/CEOy/S5TfJH3OWl2IDqsRWZDKRfohDbgBqLTTrdAXxV2LvYDQECtjWSFfk74TGRMIoe+b7BusaNS/oRwQUk9uo7tsZ+5vVFFxkQvBBbfp+SN0irJaXeY+9z5YaFGhaWzA4yuK6ShYVSYtYrwPCwj4CpLOthit0hN18r9r17Ou6bVNF0XS/+u5tnrtTxQ/BwLnvKg+tYktPFdIMTDyvSGcX0yijINF+J4q0/I9nrfpP1AI5L+fM//doz0N3J58bZ86Z8qoXrNuFKgf5fODx6tlW0RZD3pYUfxgGPRkiqVhqAJB0uKgDuFlD7o0oCsQtpYKG5MeG/1SNjadxpahftfW595RlXc1UJn0mKvK1yLyPNV9qG4FXu39231AvYryvHi8rLBRYYundKWDFAm+BpSIx0hVthdhB5TxwBiFEQgj0fSb+FER+UB2cuYOr4TzWzbzlImEPncp7nqSkRwiAReqsmffLbJfQyCpPU+Zt/Qm89om8EoAL/iw3v03FdoUunxFA6FEAobhMVqFsSg7i7KTwiiBEdqzT91Loaic3m0E5peP4vqVp4r79zhkigmEAlzKUAVCz2/KAxK18o8CRJGzIU+9UCcFJZyryjF5FgedacdPSLhTnUDSoWGfkxQJDVg1pYv198+XZH/BHHmk+k/sw5iOGJNQKkTS6ad3V5gMTOkND52/D+Ke06w78JmTmC3P9HdexVgv7eg8kkM0xXxgnzwycGu2CVgl7imz+xueDnpOHxNlbaxdOY9tA/nR4YSPV5YWCRUq6SuT3USZ2rtP3asMl98kn6cMmxHmsRPXJI4VF7J5SBQTCAW4jCELBEegNlEniwoQRU6GXNWgowNhEcrRwPCcdPq/nazqDdjiXoSsVJ/n2EIiMT/8DyP3RbN1NBO9TqbjsbsEvE+F9wPvytOHsLv2ujMp5pPwTnuvaqF+PBAaelMz52ObdgGPCjwEPIbHM85JOSs5DVSl4lJGazdVEjBdJJ0+fb/euY/Lx+QRNolykV/OFUPFJ8EEQl52UmadZkEg/DFRJwdnNqqh2brihzpcXuIyDTgaya04EOhCeEiVX4nHAxLQOrydF1bOF/dBnJuyXP1JcXb2YbIH71PlcIUDcVcSuS2BKHcNH85J9rrhf8FPXax7plLcDOyd22VJOwq4oGe/VeUuUjyTLGPVms1syuWVUO+roklBiqmez8eAQ1XzIGiFl0S5MF7FVUPBQdsEQq7/NYXQXxYEQkeylF3XnCUbQhjekDFRr+rdtJiLgoAzc3mt0Osv8JAnXCE+f+0UXllzljhfkbwWd7KwrZRxnp/OMXGqwkG55AJ0ifATUc6wOAn/3QpTL9ZJQZK70+Hb3YVh7soGhOUeXF+aIv7MNDbl/UuxN1FechQTSHG4wMnpa4hccelxEk4AcxN1cmvuliI7PeVyM2VnBkVoNQsCAfH5erxa3C8QK70EqhbpyYGyAGVMrqAIPKtKPR3ckY3rg7DmUV+v3k0j+VgQcAHK/wvLbj/suDgJl44dw3yLuAi7Xa+jOtfzK4K0WMtVacfjdi2hofVMeTpXnQ6mH3c9iHBKoNTmNAS68KinnNZSJ38dzLij0sYEQlRWYgDjyIZAAO5JrOCzljAHWK5+ZTMHq3Bpb4TEAazOoKp2AmtRvhcbwVUFdX/p7oIb0/kn6nBHukL5oAgMpJGLuKjMLfawzDOu1JFtW7gAODHrHv09zqIu0+qjvjC3qVoeGMiS5bvu1MW6UxBwnsIXRdkhR6Hsf+4rtc1zaAZ58zPOfCPpV/8mEPqFKVqVsiQQNhBwYGJukXuKq8rUBeyR8lkCfDLLAWZSKGvw+G2gXL6qTp6K1k7r72hUKhYyBY+TUD4HVAEl/W09yHoPenB2ywoeKEZRO3GplsW60k6z5wMTBsmwv83c89n/z96ZgMdVlX389947SZq0hUJZFGo7SSsgKi4gsiqoIKAsn0LVj00U2YvQJUtZ0iDQJF3YkUUFkUWKAoIoiwIfgqKCLGJZbDLThbK0hbY0S5OZ+37PuUmxlraZ5dyZO8k9z9PHJee85z3/98y9/3vOu7yk8IuyKn5SUgR2vRX6kRDD/VOvU4D9+9NOB/kO7BG4Uiu4JHmumKiOkmtBglNyYJSKwgERBPMVe2myXi4qFRyC0HOn2bpNTy8XIP5XWUUQc/TLNHg/BdzowO8Hw536DtdrVeUqvpBWfgAcigYap24iG36VgnMW14kJ+xw67Rh1459lf4S5BQhnNGXY7xLhZ4kaXiq6j4EFK9c061iFiSqcTPAZaVciTE7WyU0WVC+4iIggFBzy/CcMiCCoKH92Hb69oE6W5K9l6UkwZZtXVHOsCLMUtglsBUo3wk043BDv4KVs8hYEppMtwapSM8vPpXCcwmSFEbZEb0SOuQtvTtYOLVJrnBLTKeaI8j8BHpWbI/FXxGGuI9zXNk3eDtCOBRdtThOkiv3NHgW+GqQTo8ACXL6ZmCYvFnyheU4YEYQ8ASzG8IAIgh+upMoFyQa5rhjrKvacNXN0J+3lASXQ9LQrxKF+MD5017ffhCt1C6+bL3jK7IC/0t5R4eiFdfJYsfdPIeY3kSSdlZyDcWQN1t/jUVymp1xeDEMETSDYGv+Z5vevxiZBcP4zIjxZOYJDSy3TYkQQAtl5wQoNiiD0Z+q/P1XGGUsmy+vBriJ80uMt+huUwwPzOxAWxuDbYzp5ZlCdGmzKlI3qjC9n13SMG1D2DsziQlsFfObVOnkvsDlCIthUZ0zBE8DWQakkwm1bK2c+W8fqbLIdBqVP0HJ3btGRPcoJKlwcYMSS50BTe4ld4UYEIejdF4D8AAmC0fZNR5jaXsvtQ+Hh4JtHVapncbx6/DwAcxmRaYR/CpyaqOXvQwbXfjDHNuvHXfz78i8FdSQuwpxENXWD4Y58U3vQPz2o4kGUAwPap2tRrk9VUD9oTw02AdyEK7Ui1cl3+50+TX2SIN6NryMcXUpp7YMAIaC9G4ldh0DABMFUZ7ij16H29SHiizB+pk7w4A8qfu0B281kPXxKXc5buIa/FjK7nO2F5CPPfPmmoUnhawGlq37DEY5vr5M/5qNnaMc2qlM9jDNUuCoIHUVYDvy4t4zLh2rCNEPAuodznCr1/VUwrb4f+4tW3Z0q5/RSwdgqAEFs3EjmBxEInCDAOyhTqrq5vaBpfYtgbD9F6zCatS+W3Gr5Zj8jIjyhLucvnMbTpRoLbcss8Ut1F3G4GPx0zTFbcv1DoD6s73ZdJg02hzqzvnEt+jFRHgC/UJHttgLh6nKXq1+bKoYoDN02T92aBN/2E6T1FSyz3cwpwnnxTm4rhWvGiCDYNn8B5BWAIJhVPO0qx7c1yIICLKloU8Rb9RA8rumP3betxz9wmJycxhND7VphU0D2nyTM1b4cE7bbG+bhm6zmlsF01WByHpStZbaKHz5qO7+EyUx5vZdi9sLz5A3bBilFeQc0aixZxbECs1WtRzN5IvxOhMnttfLvsOMTEYSwW2gj+hWCIPQfh81O1ktDCUKUkcq7XKqjux0/IdKxth+8AkvU5fjkGp4YqtcKmzKC8UlwhBsDcFz0gPvTDlMW10pbRpugBDrVzNKvaJofBxRdc1NaOH/I5ZIYwO67X69l76zkBFXmBJCieZWpoFtVw03zJxaw8FoOez0iCDmAVuwhhSAI/Wtc7cKhbfXy52KvOYj5q1v0CFWuAEw9eWtNYLXjcFjb33l6KGb5ywTI8ZfoJ9IxfhVACOQqgbMTNdw2GE4RTDrljjXMFfUd6GyfHjzWE2Pi0qF+rbCJDWuuH8srOBWhJQDsH/WUHyxqkPZMfi/F6hMRhGIhn8e8BSQIRsu3YlV8csHZsiwPlUM31GRM7O3lEhU/7aq91lfN7fRkvVxvT+gglNSoTs1wDlOPO2wnUxLht6Kc2V4vi0oduXizfhW4EtjJ8lqWpsr5ZKk4y1lee8biTA2HdJqZwPcyHpRZR5MJ9MREJ3fQJKnMhhS+V0QQCo953jMWmCCYgJ+7HeV7gyEdsA++qoxr5kBx+BlqMXJB6AVuTZUxNXrwDrzN/WRKnUzxhGmW0zJ3i8e3Emv5bSlf7/TH51/Yn+3PGRjRDHsI7zjKCe31YpweozYAAjWz9XNemitQPg9Ys4MoT/VWcESYnxURQSjBn0fBCQK8J0JL5QiuKLVMYBszr3nwroXz6CsBa6t5An9Wh0nJWl4Y6hELmYJa06of9ZTm/gRVNo/Q764Qvlu6yZNU4peyJw7mJOpTmeI5UD+FNSLMrhrBnMHwWx5ovTb+fsw8dZ9p5zsKl1iObDAOi/+TqJP7bOgZhIyIIASBasAyi0AQzIqSCDN6urhr6QzpDHiJgYqPz9ZdJMX9Np2+jFMiwvStR/HLZ08Vc5IQtUwQMNUzZ/HVtOeX1t45kyGZ9BFljRvj4FIrS7xubX7kQi9nKMxErfkeeAi/dT2mDPbopEz2SDZ9/I8K9UtrmyvJymzGbrav8H+jR3FQWJ8ZEUGwZunCCSoSQTDFW152hfMqOvldKedHqG7WSYrvnGhn/ys9CLfFqqgbbL4ahdjVpgpk+UouxGOSzfoCIvw0UScnF2INtuf4SIvuEIN5quxrUXZSoG5cF3eXQgy+xXVbEWVyUTjwS1V2syKwT0ivA19qr5cnLcq0JsrOA9KaOpGgTBAoEkEwqpkjsZcc4Yy2Dv5Skve7pkBLK8+gfDYTrDPs85rr8b226WLKN0ctBwTiMzWOcK/N43Rg1Yhh7PzSOfJWDioVdUh/fg6Dh52S48JagZ9rOXXJc2VlURdXqpMbx9oqTvSUn1lewi3JejnRskwr4iKCYAXGwgopIkEwC/XLwHoxjl40VeYXduX5z1bTrPt58H8WnY3WAi3JGi4aDGF1AyFs4sNXrWUUsHbBJN6zlwDKr6z3LeCOgXTI5u8iTE3UiYllL6lW3ay/UDjOotKveMpxixrkWYsywylKVXZuZUTKobJiDSttnnb6+RHe5XcKX7G4+GUO7BHGqJuIIFi0cqFEFZkgrFvmW7gcmVzDs2EO09nQJtXN+nOFEyzaalF5jN0Ha4paPz99JR9S4XjA5I34jB8TLqgoy0X4Q1q5bfhI/m/+23TmdarUd7rzZ5S9LNrn+WQXnyulPbrbLB2+Oo3JajjSEg49OFyerBWbTrmWVLMgRlW2n01VlctntccPRzwI2KH/CjEtMN8T7nXgNreS5IKzxZD6nNtHW/RjvcrzFlOzd4lSm2iQq3NWKqCBEUEICNggxYaEIJglvuk4nDWsg4fmN8maINdsQ/aYubp1bC0JhC1syDOnKaLUJRpkliV54RFjQkEv5UOO62eZ/KHCmE0pZ7JuIjyoDnNSLn/NpxKgyRropfmttaN1ZTUOXy2lCnrjW/TEtHKzrc2gsMQt48vtU+Q1WzLDIsdUYfR62M3zmILHMQOcDL6Jw48dj5vbu1iSD5mtbtFbVf3fho1mIqAecKs4Jl/yYkOZ9WVEBME2ogWQFyKCgAiLVZiTVu5aXGe+esRcQYSyxZv121aPsIW2cpe9Bt3pgblrrWACMSZ7HgazLTMwqPFP+ZcKl/R0cn+ukS6NjercUukf4ZoEQTaauXuflaiXC2wIC1yGOUVp4VHgAFtziTArUSe1tuSFRY6f6bCSg1HOR/g0ipuBbh0Cv0a4NFHLa7lekVXP1i9oiruB0RnMmUmXV2IOxy6olX9k0rlQfSKCUCikLc4TJoJgliWwTB3udmJc0/4X5oc1vbBl1m8W/sNknZgsd4OoqUxopSbtMUOVb2QdVSC8KDA10cljuR7rVzfr4drnizDcArCGsD5WIRxVCjkRxs/Rj6R7MUV8bDknvonH3skGSVrAMjQi4o06TIZxOHChCh/PMiLJkMZby7qpf21GbtUr/dPIHi7D3nXlChUuXFgn14YG5CxBDZPeQ1qXsBGEfmN0ITyjysyF9fL7sBmoP2Xq48DHrOgmtMXggAV1ssSKvJAIibfqh0S5QtV/+OYS7+0flzouJ+dadnncJfphx+VmixUfX8PlhOQ0+WtIYN6kGtWteoJ6/NyansLlyTo515q8MAhq1Fi8iq/TV5J5l1zeYyZPhsKkZIPkdpVjykK3cZQn/AR8p928mrmm8+Am6eLsZJN05yXM4uDoBMEimIUSFVKCYJZvquktE+Eup4sftc2QtwuFyUDzjLtUD/NTK8P2A/XN5O/iMFs7uCBMP+ZM9N5cn5pm3VLhToUD83TAWusJxy2qk1/lopPvGFnFyZ5ylaVokxUKjQvrxZT1DnWLN+ttwP9aUrI7BnssqJd/WZIXCjHVrXowHj9V2DEXcrDeIl75XB2fuEskncvCqlt0Z+3bo8Yp0kZ7TITTE3Xyqg1hNmREBMEGigWWEWKC8D4SAosQpuxRzT13TcztB2gT1uoWvUD7Uivnf2wtGK/jQxL1/CnMPhfZ4OeTA+E3qnwxm3Gb7KvcmWwQ47+QU4u36F70Oerln11RSDvKT9q7OCMfx7ScFpLFoG0bdcTwSkwYoq3CTL+vGsnEwZRSOd6qXyTNgwjDsoB2010dDkjWigl7zroZIts5nHo8Gi0R2X8r/DBMJ7ARQch6WxR/QCkQhH6UOoD7jW9Cj8P8Jefybq5OQXmhfoqWxcdzK8rRln7Ij3nKyWEv1ZoRZqpSPYexpLhC4euQkaPXgKIF3k7U86FcCZTJJOh4NEtfeGXezfcSF04L85XQhFm6dyqNOXUxIXr5Nk+FSduM4sawpvHNZoH+qdJwDlaPmxS2yWbs5vo6wtz2OpmSq7x4sx4JfprwvEvG+9ceQm2yjuuK8pzcCAgRQch1ZxRxXAkRBB8lFZaLIQrCrxzlxQWdLC3kl9y4WVrtpLlFYT8LZlOBS8qF1lJwetvsehvVqa7iowKNnvI/YOmrzEwqaNUItsj563WeuvEEk/rvmXPxhdhw6c95DpMW1YY322W8RU+jr/ZC3nfawBuOcER7nTxjYc8XVYSJVqio5DA1Rb1gvE1lzHMpUS9H5CpzQquOT3v8WC1dMwjMrhxJU86/m1wXsolxEUGwDGghxJUaQVgPkxXAQ8ATqvytd2teXXpq8IWfxrbol52+u8L8HRSFd0TNPSF3hYXl57TnzMlBKzuZEDGFbwBVOcnZzCDXZftcHRWN2PhMPQTxa2bYOHI3iYcmJ+vll7bXaUtedbNeqX3FgPKOYDAnJqQ4M3G+LLSlXzHk+KGMFRyOYMJUd83T5+ADSxDhj4k6yTkrojnZ6Kpkbr/d8q5G6odgxpiSmBoOu0UEoRi7Ps85S5gg+F+WmOQ1gknT/E/gaVz+kpjCqyLB5FCIt+iJ9H19fChP6E1I598RzkrUyd/ylVXM8dWzdZykaPbAfD1ZJwemCE1VFyPySXM7dq7WOD1cZ8kJrMdR6tu7uaKQp1eZ2thUb4z18sv+std5P5cduGhYF7NKIYHZpjAySZDS3RyhfXf81smBP69wR7JO8nIKrW7Vk9XzIyq2zdTem+n3NxxOTdaKydRY9Jb3Riz6CoagAhYJgokRL+YeMGWR3xFhmcIiVZ5yhL87Di+0TWWZrS/06mY1X8nnWTpCn5cWzl1cJ0tLdev5DonKLSocbAmTjX2ZvZCok0/ng1H/19m1CifZ8B0xkSflykVhvBr66EytSTncYqN6o8AaEU5rr+V2W7+hfOyY69jqWXq4pv37/eqgnlOOx7nt08XMkXPrd6g1oan5n3QJS/E4NtkgJiS76K2YL4eiL75UFbBIEN4UYZHCZyzWnM8VVhMi2WO+PAETB7wE5UXH4VXHoQ1Y7CnLy1O8s2YYnXv/hZ677ho4OsK/vxxGq8KZuSq23jgTDjXnczVMD0NkRi7riV+mo6SH+1TZx5ZD4ib0aE3W55/7v7pVp6rH+Rlmc9w8JMIdMagNo6Ni9aW6Py7XqvKJXOy6wZiXUc4Iy0sml/XEZ+kB9Dls2spUuDE1PLeMeNsUWZyLjuvGGMLtCQ+j7JmPHH+skFaYuLCWe8JA7iKCkLdFCy/AIkF4HeFoB07x+vKKlxd+NSU14zsqXBC2bGeZIagy7hK/toLNBEQbnVqE5Th8OTFNXsxMt033irfoUcCVKB/JV9ZQGS/wB084e2GdvFxya27U2LhKDhK4x4YvxubW7wi/bK+T79jAKN6i5nrIREllku55s1MKnFXZxY35XM/ZWFMfX4laySFgkyCYjHnbbM1LK1bSivpVDrcuOUAKp3C7eJybmC735T1lozoTRjNibTfbuqZqX4oKR/AQumPlvNOzihXWkjA1qjN+S2q8XmaqYsKy8nam2sz6OwUuLxeabRzlx1v103jcbsXBNG+jlYYAk0bY9Zi8YLosy1djU954xSpGeym2LiunMp2mTIUeN8WanmEsXzKGVbbKnBs/DLeXQ0Ux6ctNEqTgmrJQHCba8iWqmakzPKHeBqkR4ZLKTprD4D8SEYTgtmBgkm0ThIUN8tzuM7RqRaUfVmZCrfKO6Q1s8cUV/JwjnJJv6NjOLTpybd8RvynIs5cI41V9YtZr8gcALyo8KS6PVa7hlby+JBrViY9kJ1K+F7gJZbQRMrgpK3SLcL/jMb2tQRbYMNUul+rotQ4PKuxhQ94QkGGKZl229Sga8sp/YAjscKp74YuO5yfP+gzCh9UkGlNWIiwU5e8iPC4OT7ZNY1muOS+MTXa4XqvKV3E4Hk2IH10T5LtpKUIT23FL8iQ7aY1rWvRYT7neSiI2+JmnTF3UIO8We78GaYRir23Qzh8EQTBg+S8u4Zso59J3F+oMWhBzWJgIf8Ll+HxCkMZcrDuWlXFuf62Dj27mFK/D1LYQ+Km7hHkLrsqlhr1KTSsTPI8ZgDmqDyJaYR2SPQKPOEpjWzfP2YoUOOYYdZ/Z3ScIX45OPDPatJ2OcHF7nczMqPcmOsVb9RBJc6YK+wJbbbSb+OXOXzehyy5clmtKZz+CI8UReMGEMm6g+xsoV6QquHHJZHknH4zWH1vdqvur55cpz7+UvHBvLM0pNk6A8l1fRBDyRbAI44MiCD6T70tKsq8q0wX2U4gVYYnhnFJ4sKqTY3I9+jMJmyTtV4A7JIujyEUi/GSPZ7g0E6fM9YHrL3p0lcJhAZ8cpAUeVYfaZAcv2iIH69ZS3aLGu9+EouV9vxvOjWVPK4HlqpyXbJAbcpU6rkWPFfVf1hmluRboVfh7TJiyoE6ezmpe43NQxRHSV3jJRAEE9k7ysYE5vR43vj5dTE4Wa81EofQKJinVxslUdjM9rmn+d+F5YnJ3FLUFZoyirmqQTx4kQfCha9TY2C0ZG+vlYk+x4sRT8iYx+RvgnmQtR+fiXRxv1FEM5xo8jsnWB8BPwepw1eequSDT6Ak/WmEt87TvGiNInwPzSP9LyuOEJd202yYHZt/Em3UucFbg6yj5Teq/XhcjTEvWyp25LMePHvC4JWunUPP78HjVFb7fVi9/znTu8bP10HSKGxF2CPhawURGNVWN5OogshROuFK3SHXSbiXqQng+BoeHIdomIgiZ7uQQ9QucIKxbq6rUzOI0z8M8oO0URwkRjtmoYsqxKvwiWS/fy2bcel/BZ6n6R/25hm2tFWH2CbVc2CRiQkI32QwZkUrut5RaevPLFZ6nkwOTTbIyF1wyGdNfaMvkscg7w2Am85VyH4EFAue018sD2a7DXDH2KPcpvs9Bbu8G4WUcTsqktPb4WfqldJrfFcKujjK9vSG/a5fN4qkq8VaWovknYwNec+Cg9npZlK0NbffPbRPY1iKSlxUCBSMI/VpNaNG9Uh6tInxGYURWyg6ezuaO/cZEvZgv2ayayVqoaa5D/auFfNpKEea6lVyx4GxZ/QFB5iHVzDgRTMpec60Q5JG8yVfxVCrFcUvOF3MPHViLz9RzgUutVfALTNNQCH7FcZnUPk3+kK028Vb9Lp6fcTT3kuh9fgkmG+C0cR385fEmSW2oh8mQSCeHpOCneRDmjEx/SwAAIABJREFUTJe3yoHm9nox6wq0VTfrawrGryjflkD5UrJBkvkKynd8RBDyRbAI4wtNEEy5pQkt7OgpP/BgYn/BlGCPrYuA6wBTrgV+nKwX87LKqlW36BGqfk0BG9EhbwtcUeFx/Svr36P2RytIiibFD2UM8mu7G+VRr4xpi6bycj7e65kAWd2i5vSlNWA/ikxUKYU+rzjCWe118sdslI3fpMPkba5S9bNW5kcsDUkw9VaExngHT61PEvxohXf82grGidJkSAyyvYlweaySyxecnYuTb3aqjZup/xTJP9GVwBKvly8svEAS2Wlgv3dEEOxjGrjEwhOEviX53sY9fAHlO+LwNVV7ZVcDBy3/CUwI3zWJOpmalai+o8cf9teCsPXSflPgKoFr2utlFetCGY0XuFeAUEZ4xHOYsbCD54PwOdgQ33iznm4yWEYEIaOdlxNBGDtTaxyxVvfCr7kiyp9wOD9RK38ymhtyMOwdjvT6Ci/tkvM1RkYw8DqmQNswrk+eG9z11/qqxJvV1E/4VGbqbbbXG+qy78JpEUGwgOXQE1EsgrAO6XGX6YedteyPcLwqBwX8tRoWA5sThOuS9XJONgqZ49TeLs7r9wrPZujm+4qfL+Haz1Vz8d8WMtbxaO4PnQwyz0EvyiPqckGhyIEBobpZJym0RAQho+2TE0GoadE9POVq4PMZzZJJp/7rBs/l3LIK/pHq5ij6Ci8FTQ7eBC7r9fip7WiFzS073qwvAR/PBJrN9RFhsdfDF6MThHyRHKLji00QfNjNV+swxqqwjwOnAvsM8pDIHhNumKiTrGo6mFOXsh6/pPJ069tVWOkIN6iya0GImvCY53LWovd4pRAnB+8T0hadIsrFQ91RNsP986oIkxJ18kiG/f1u1S26J8rVCp/LZtyAffuqt74mwm391xfmmi3Ik+tVvr9KBTcU6uTg/X3arMZBdPyAmAzcoV1ifCmffCsDT5FZjyANlZkGUa+sEQgFQVin9Tx1Jyxg67TDoQqTwb+Dy+8OM2tECjLAxPrflqiXE7OarY9I1SF+nHcQzRS4MngHi7nwjzQcvriON4L2OdgQpHiLzkDtpLENwgAhk9kuLuckpsn92eg1Ya5+PNXDtcAXshmXRV8TZliISKi6WJXvxGtO/ArWGhvV+XklpsJr7g6e/9H2VQcOjqIYCma+wTVRqAjCetDuOk/Lu9o4EmGq9h0jmuPuwePMKNyb7OSb2X49V7fo8Z4yVyhJn420CE+L8jXf36EIrbpFr1DF+CEMnr0UEI7Gwc1PWFUrd2QzxSdn6lZrHK5XODrgfATZqJV5X6XbdWlsqxXjzFrwNnambuUIJr24jVo2z/YKR71eJ0sKvpANJoxOEIptgRzmDytBeH8pqlLdwv7ARMWvObCDwOhBcAXxsAMTs31RTmjVz6bM/a6ydw7mLuYQk3vh8ZRw5uJaMSW3i9LiM/V2xI+eCfaUpCirsz7pCpTzkw1yXbaS4y3a0H9Sk3+64Gwnz6O/wnKBWcn64pADo3rNHN3J6+WvwKg8luIPFfijOhyXrBXjS1HUFhGEosKf2+ShJwj9yzpmnrrPJYmnlP3w2AdhF4RqUb/oS8mlcBblqRic8O8GMRnTMm790R8mSZLxXxie8cDiduw2tRVwOT8xlX/mkj3ShvoHNGosWckjCF8syS9bGyBkJ8PY7ZJEvRifjaxa9SzdTdPc5BdmCtZPICu9BuhscnBcWdXFtbmmQLehzPiZ+qW0cC+mMmv+7e6Yx2lRLYb8gRySEkqFIKxvnHijDnPLmaAOO6vDLsaxzs/1LoxH2bJEHkgvIJyWzDbfvHECm6W74XG1ql/8JuxFsMzJwUOu0LSgQKGMm/ohV1+i26vrZ9v77JD8sWe/aJMS/MpYFXVZ38M3qlNd6V/lNJdIQrTXRbiit4yf2iy8lD3kEG/Rk4yTp5WCaMINlFNXaCfLja07OkHIZTcUeUwpEoT1Idu1UctXb8m27lq2E2E7hQmi7ITj/+cEVcYggVYezNWCSRWmLKyTu7MW0KhOzQhMatmbBMZkPb5wA4wz5h9wqU2s4aVs/S1sq1kzUz/nCb/ItHCQ7flLUp5wB8LkXI6oTU0Br5MGT6gL+YnNMhFmhYEcmD0Sb9FLUaYA5XnvGaWpK8ast6ZJR96y8hQQEYQ8ASzG8FInCBtiZghDdyWVmmaYuFR4HlXisB3ipw3eUWG0KKM99SulVSKUC5SrDnwnLRBTYSzKdhZstQrhwmSdXJmLLHNcvriK/dPKXQVIMZuLiub+88m0cuKiehLFulZYX/HqVj1GPb8C5o45Lei/B70LmPS1BfVwz1DvUShxS+mkH3ddJrVNExOXn3Wb0KhbpKv80NypISUJXeJwYWUH1xXzWmF9YOPNeg9whJXTQeHU0aO46dlTxaQzL2qLCEJR4c9t8sFGEHJDIbNREyZpRWoHWhHOzmzEZnr1xXRfPnor6vL58X50ln6+N40pppNr4aa8l7IJAc/GuvjSgqaN1HkIasYB5I5rUZNkqs7G3a7ArSmhbnGdmHC0ULUJs3TvlOfX69gtX8X8gk3K6e0N2ddjWDe3uRKU4fxIzVexBpq3IOvlCkxL1MvsrAcGNGCn2bpNT4oHgd3znUIhJXB0sl5+k68sG+MjgmADxQLLiAhCdoDHW9Qcl5r0rjYcBO9x+qrl5V5p7Rh1x3+Wg9KOH9lg8tEX2yehV4QnvBTHh6EG/X+9pCr90Lvj8/ZR6SN3LT1b8aOlp0pndjso+N41zTrWw79KsZGHwNTKOD3ZzS35XBGZF18qzXmmBoul306+QK4SuDhM5MAsKN6qX8TzC0/ZSJK0SByOW5eeOl/A8h0fEYR8ESzC+IggZAd6TYse66mfqtfGMfULrseZbdPlqey0+O/e/rVKFV/3lIuAjxWRJJgaE3/woHZhHa8UOgnS5jCMz9ZdSHMtyoH5YO2PFboEahN1XBOmNa5bl9kPnZX8EjgqbzLUt5lMPoBLsw3J3RDnCS06Jg3TVDEJwowzcbHaGwJz3Squytr5MmCN+4uJ5VPK/X0NRXjKP/2pl38GrHZG4iOCkBFM4eoUEYTs7FHdqvujXKtqpdKaKbN8ZqKL2/P5OvO/PMwxbiVHIFzQH9VR6JMEExL3kDrMSHbwYr7ryc4qA/f2q2DC5f2nLAMP2EwPk99ePM5tb5Bf5yUowMHVLTpb1Q+FzTvjoImlTyunLMoyJHdjy+s/3TBZUk8uxkmCSf4EXKFd/CTZVJjCS5ma2YQwuz1c4cBJlkK3fxkTpi0IQZKkPl4dtZJDICII2Zlsp7m6Y89abvNj6S00EeZoORfbCEMyJEGHcagjtJpoDgvqZSqiV+BBdbgwjOSg/4vavJTMl1neVTAF/o5wVqJO/pYpQIXuF2/V76LMQa1k41vhORy5qJY/2zgxGTNXdyzrZbIqptx5Id8b/slBbzk/K3Yo48b2w9hLdVdHuNbSs8WUyZ65tptLls4IxzVYIQ1d6N/boJ0vIghZmnaeutUJbjJlqq2wfOFpJ82J7dPltSw12Wh38zLsGs4BeNyqsK0NmQPJ8LO1xTgr+R6vhe3kwOjuf7UKs1GOGWgtGf79N5Lm1MR58laG/QvebcIc/Uy6l/vUThisyYdQX9XF5fObxNTryLv5znhpP7KhtkAkYZUoPzJF0vK9Ksl78ZsQUN2sJlusibLZIe85hJXiMS3RYPwZxNiv6C0iCEU3QfYKRAQhB8ya1TzUzrfkDd+jDkcmO3jY2su1UZ3xI/mMl+L3QZME8zWtDkcka3krLA+iDS1qroXU41ZgbPbW/sCIXoQfJ2s5Jwyhm5tajzlNopJnbJQMNnMoPFnWxddsRqX0X4tdoNAQNElwYIpTxTVh8zlYZ7/tZ+nwyhQXINYI08uOy9nt03KPPrHwW/kvERFBsI1oAeRFBCF7kOOz9ADS3A58OPvRHxwhcOPabs6xfRRY06z7Kdym8JEAHsBphD9XwNderZP3bOAQhIz+1NSTwHcstdHedpSG9gb5mQ1hQcqobtYbFD9qwEbzRNjb9rWKyZPgVXKehx86nLe/xEYW2uU4nNdeK+bLPLStplk/qcKP+7Oj2tDzIXU5feE0SdgQZkNGRBBsoFhgGRFByB5w81BLVfIk8MnsR290xFueso8NJ7D1pZtkSosqOMRzaEHYmQySQWW4HpMc6FF1OTNMD6CN6d7vFGeqEZpCXzbaywLfSdTLCzaEBSmjplW/6Xn8yuIcNye7+L61k65+xaov1+3pplbh+5ajG5Y50NxeL3MtYmBdlPmdLqzk2wo39FetzXcO4xN0w7guznm8SVL5CrM1PiIItpAsoJyIIOQGdrxFr0c5JbfRHxylyo8WNsiFtuStkzPhSq3wuviaQqPCxy2QhC7AVKK8oL2Ol8J8zG4wqGnV76jHz9VOeWcP4SG24xvJk6Tbtq1syxs/S7dLpWkTGGFFtrI6VsbeC6bKfCvy1hOyY4uOKVOMI+n3bJAEP1pBuHykw3UvhiDN8ObwMnZKp31ycKQlXEN5yhURBEvWLaSYiCDkhnbNpfp1z+H+3EZvdNRSibFPYqostCjTF7WOJPTnSTCFrXL9ra5F+L16XLSwmxdsf0naXrd/D1/FoxZLYxtS0JSsl2bbugYlr7pZjaPi4Rbl/yzZxQ+CsL0hCeVwTr7hmT45UC5Pw88WNYhJiR3qVtOqX/c8/8rSRvVGRHjJTfOtBdPtE7l8gMz1oZPPnNHYPBGICEJuAO7coiPXKq/a8kMwWjhCS3ud1Oem0eZH7TpPyzsW8BVxTHIf4jnMYXwOHnKU+vYu/hXECyIHnTY7JD5Tv6XCraaGhhXZwkrXYf9c6xJY0SFLIfFmNV+lpnSwrfaWoxze3iB/tyVwfTn9FTfPAT8ldi7vlGWitJQKOUBV4q08gHKoJTzTwF1VXZxoK+LEkl45GdPW3JGcHBGICEKOwJmyyy16haqFugz/UWGpq3yxrUEW5K7VZkY2amxcJXsK/r10tg6Wj6OclKxnYdivFQwC5tQk3ckLasqA22oOjyc7OIgQ3esOtLT+aIb2HOy9UdEC5k77phO6OK2pSbyB5s/l7/3keyrCeVleiXWaMVs43Bj2a4V1uIxr0QNF/doL+VduNEKVThzOSNbJz3PBPsgxubC9IPWJZGeAQEQQMgBpE1389L0pXs5dwn+P9IurCD9L1nJakC/hj87UmpTDr1X5dEa6O9xeFeek+RPtxMBnNGeeneIz9VwEq85pjsP322vDH72wIXTjWvQqUc7KE9L1hyccl1OCDKHb/Xote3cVJ6vnJ/3KxIeiC+F/k3Vi87TEImQfFGXWuOJdTBpkayRW4K208rEwXq1EBCHQ7RSM8Igg5IdrvEXNHXf++f3XqSEsdISz2qfxQJAkYdwl+mHH5SyFb9CXUKmSPkc+k4GtR8EUIWpHuX701tyWT8XJ/BDOfvTYZv24A/cZH8XsR298hMCyyi5qwlISOJt1jW/WfdLwB0se8ubg3xxj/ypWyaQFZ8uybHTJpq95ga5cyX6ecq7CZ/vv6E0mTJNG3Fx5GZ+Q9wQeT6dpXhSyO/fNrnWeujXtTPNgZjaYZND3imS9mCua0LWIIITOJAMrFBGEgTHaXI94i54oyk+sZFXsmygtcK8rnBN0DvVj5qn7fBvjUg77ouziwbaOYOrGLxXl+XKPp1+ZLivyQ6iwo2uadUtPaKWvIFDeaZXf523CrESdmARZJdf8e32HmxEOsaa88KYIF1R2cEvQd90midCINJ/yhL1NZkg/KkNZqYbAOvylqoP5QetgDbd+QTUz9XOew502aoOsp1uXpNkrcZ68aFtfG/IigmADxQLLiAhCfoCPm6XV4nEvym75SfrPaPO1inBRbxk/XTJZTFhh1DJAwMSTJys5GqUZYVwGQzLqIrAcly8npoXzwTvQIow/RqqLk1D/ysWcFNlqj4vLDxPTzDF5ONL52lpYkHL6wxpN4q7/teZ7YBRW7ks2mAqe4bRFRBCC3FUByY4IQn7A7jBDq8oqOVf6Si3brKD4gsDZiS6eLIWIgfxQtDM63qqfxmMO+IW0XDtSfSk/6+lmku1Mlxb1G1BUdbN+ymTqsxjyaeY0FTx/qhWcb6PY2ICLGAQd/PTSVZys6qdq397ikrpVOGxhnTxmUaZVURFBsApnYYRFBCFfnFXGXso+juMnOjE5Bmw1c9XwYKXDyfNr5U1bQgernP6vMlOt0STasXa1ALwrwrcSnfyxlImaIbLDKqn11K97YMdjvu+r1ZQsn5ZsELP/o7Y5BFSlppUvecoV/c8Ka+9MgQcEjg1rISoDi7XFRruscAhEBCF/rE3q5XQVF2pfJjhrvwMTUqbCnGRAuRHyX3k4JPipaofzXU1zFWI3n78It3nlTFt4rrwRjtXmroWpzeEJV5Fp9ErmU71bJuz77zqxFtGT+dSl07N6to4jxTWKn/PA5mnjWly+lVzD/WEmsdYejKVj8tLXNCIIdmxY06Jf9pQrLZ8iGOVMkZxvJaq5h4livMejtj4CqjKhlc+nlN8Co22CI8LbAqe313FPWO91s1lvf1idufs+w/Ipi8net6C3jAOWTGbpYMAqG1wz6WtyO/R4XKDCtEz6Z9xHUJR73RQ/bDtfFmc8rggdI4JQBNDznTIiCPki2DfeeFpXpWlRONn2wxfocpVjK7p5oNS8te2guwkpjepUV7GHwjzUnlNi/2xpEX5ZVkbda5Pl9UDXUUDh8Vn6efH8qBtTl8PuM1t4xPM4zXbRsQLCE8hUfilnj7NUudhaVs9+TUVY7ik/XFjDnWH/gLC72QIxVSR0QwQigmBvT4y/VPdNCzfg8DHrD19IiHDO1qP4fSnlJLCH7oaSVMbNYi/xuDaAI3MzWdJxmNpey92D6ot4nrrV7VykMCUAIrtW4K6Y0vjvBjHZG4d8M+RguHKK5/n5Dmz6xhh2l1L4lQN17fWyKOxgRwQh7BbaiH4RQbBnND/727uc7/Xlkbf6MDBXDcDzChdusxUPD2mSoCrjZrOXpLkE+ILliAWzIdaKcIuWUzsYvfPNXbim+A3wKXu7/31JxmnxNonREkThsQD0DUzkrtfoiM41fA/FVGm1ev3Vr3RCXaYsnMq9QSZVswVQRBBsIVlAORFBsAv2TnN1x55efhvEV23/F8OLIjRVdvLgkLxuaFQnPpz98fyH7n5WPfLXbQUh4cDE9jp5xu7uCI+0Cc06MSXcnmWtg0wXsMrU+xC4qBS+bDNdVDb94pfpKHo4FWUSsINN5+V+PdbicHOsg9oFTWJIWehbRBBCb6IPKhgRBPtGq27Rg9TjQcSqp/I6Rc1JwkJXmdI2nvvCfu9oFd1j1I3vyf6kmaOwm+373HW6OjClvYYrBjO2fvKkTj809wSrNlonTOkW4RHH5eS2afJ2IHOEVOiYRt26vJIfevj1L7YKgByYVEgLtIzDk1PllZDC8AG1IoJQKpZaT8+IIARjtOpmvVrhzGCk+1K7HIfj22vl1wHOESrRJkxP4Q6TbjcoxQSe2aOGve4aAhEj4y7TDztr+VuQeALPlcc4+LWpsjwom4VJrl+JUjhfPaaI3WRd/7VMEU5O1MlPw7T2gXSJCMJACIXw7xFBCMYo1Zfr9trtl3HNrGJibmp4CLOqhMvnd/B2mGOgc1ueGaUyZi5bxXo4RvAr+22Ru6wBR74lwhcTdfLqgD0HQQc/NXUVx4rH1SoZVUzMddXtjsOkYR08UYrFrjJZtMFy8TDiaVMHRDgqACfl989mRLh/j2f4xl13lVbYc0QQMtlJIesTEYSADNLnLX4YwrWqgX7xpoCHgNbecv4+mGo3+HH7q/xwvLOB7wb40DWbYBVCfbJOrgtoR4RSrJ+B0qMJ5aQAHGvXX7MhX1fRy62JXhYPJjI7dqZu5bp8BY+LFXYK2NAvpIXDFtfJ0oDnsS4+IgjWIQ1eYEQQgsO4v7LgOXhMRgL98jUJlF4S4Scu3LugltdLwat5c8hPuFK3TXdxCMopKnwe9UtRB9V6EG5OldGwZLK8E9Qk4ZSrMn4mn/WEudrn9Gkzw9+GS16FSQks3Kyd/CnZJKZcc8m23U/Rsndq2FXh2/0pvrcLcjECSxDOTNSJKWVeci0iCCVnMogIQrBGGztTaxyHS1C+EYjH/Xrq+1Ug4QmBm9rr+F1JkoR56o5fwF5ph+8LHKR9HuBBvrRU4A+4TE2s4aXB9GWb6c7etVHLu6o4QqEZZXym43Lp1x+J8yrCfY5yXalGOXx8rm7d1ctET/kOyh4IVbngkcWY1Y7Q3OFw5VvTpCOLcaHpGhGE0Jgic0UigpA5Vjn1bFSnZhi7ew5XA58L+JjcqJhGWYLDQ67HrLYGWZCT3kUYtNNs3aYn5YeFfRsljlgsKrTp9cx3oHardh5+9gbpLcKyQzGlKeZUXskkPKYHfNq1br0dCK86HteMiHHniyX00hvfqvt6HtMU9gG2CSJKYf1NoZAyJ1weNJbi1cK6tUQEIRQ/9eyUiAhCdnjl1LtRnbGVfM2BnwCBHkOu0888VATedoRfqMuPw5y0xhCD3l5OUvHDwkwJXNtJpjZqNpOmFmga18l1jzeJ8eUY0m3vuVr5Rorr8AIKfdw4uoYovOi4zO5ew4OhLandV4lxd1XqVTkIYXgACbo+iJCptQCPx5RJC+qYX5Kngv2righCCT5eIoJQOKPFW/QU+go6FeQFuN7KlqryU4WbU2t5c6nSXdyjdJV4IxWxKrZJ4V+9nI1SE/SX2AaW7hLh6j2qaRgKIY2Z7vLdZ2jVimH8vj8JVZBXO/+tkmDKm/9ZhNZUmqdGdNNR9ERg89TdOUGV57Brr8cPUY4AnxgUpvUVYnpZYpyemCpPFGbS4GaJCEJw2AYmOSIIgUH7QcGqEm+lEY9zC3SMu6EObwncpw53OynavUreTq5kdUHIgqrs3MqILo9tXWEMDoer8j9B33lv1LpKDw539HRxRmi/WAu4LTecyncQ7eRuhb0L8pX83wp4As96MM+N8X9OmjdSnSwvlEOjH644gq3NSZ96fEqVbykcAIwsuEmEhSJMS9TKXQWfO4AJI4IQAKhBi4wIQtAI/7f8/tjzi1BO68+yVlgF+j7Te1T4h8BTKM87Hgl1WLzVVrxhs8bDMfPUfTrB9jGT2Mj4FMAnFfZF2AulsuAL75twLcIvU2VMHnoRC5kjHr9EP02MuWggtS4yUcQcrZsMjE+J8DTKK6RZWCG8/koD79g7alfZtZHh3RXsgMtHPGWCiF8hdH/UD1ksyntNYYkI5yfruGWwFAsrCpCZ7LSoz6YRiAhC4XfHmLm6dazHrwtvSMKowmvwnxkFViskAFN9L4mQ9B9OsLTM4+20sKK9i/c2e8qgKrvOYHjXSEZLmm01zQ6eyxjpK8EcF6hWYTwaTNrZLPAzRZhuTcGFpezslcV6c+/aqLGaSvby4EeYl2WAWQEzUNKE8b6JYBxukw4k0x6LHBP2F+PNlMfyikpWLDhb1m5OliHnS0cyqqeHbcRhO4ExnvARs0f9faqMVxhbhCvADdVehHBhspNfFOR0LwMD2OgSEQQbKBZYRkQQCgy4P51/1bA95l4TTi3WScIHVt5352kKv7xrEgeJskYF40TWKeb/F9ao0itCShVXoEyhCmFLoEpguKqfkc/8b0N8zH+6xUD4A3Oa2gAOt8Q8Wv5dT8LeF2goVheIEn74YyV7aR9J2Dc0toSe/j26sp/gdgh0qNmnsMpTukw4peDHDMUUylG2kL5rgirt8yMw/93sUfOvcH4FA1uqXYQZbiXzBiI8A4sKV4+IIITLHhlpExGEjGAKoFN/CuFepuJxZpF8ErJZl/mKM//M0a/5Z37vIuCo4BYgfDMbXf+7r3HKhFvcNBe3nWeSzYjRP2qZINCosXHD2c1RrlHl88U6cs9EVX9fCinUL42+zsb+PqVvj4aDrG5qMUIbwnl08JtC+VxkiKuVbhFBsAJjYYVEBKGweG84W79Pwvko9SE42iwuGMHMbq4Vfi5KbXu9mEx+UcsBgZpmHevBbwKuLZKDZoNmSLvrMaVtusF4cBLYiCCU4F6NCEIIjNYX3fADlB8hbBvqr/EQwJWxCsJKR7jO25am5EmlndY34zUH2NHUHHCEm4CDzFF9gFMNJdHmtONFv3x7gzw6mBceEYQStG5EEMJjtLHNergjmNMEUwGyPDyalZwm5nj5FcfhquOncX2TiHkIR80CAqa+iAoXqPr1B3a0IHLoilA6cXhclOmJenlhsAMREYQStHBEEEJktP+kZZ6M51eCDLK0cYgWblUV48luHrpzEw3ysFXJkTAfAb8IGXxbhDNU+XiInBdLyUJLHbhV08xNnCdvlZLiueoaEYRckSviuIggFBH8jU1t0jIPI+44HC9wcpClokO28rzVEViuyu2ux41tH+VlJopxqoxaAAiY2g3DKthHhbMVDo78ZzIG2SSC+ocK1zrK3UPJLyYiCBnvkfB0jAhCeGyxvib+US58QQWTVMlcOURt0wiYioxtqlxSXsZvX5vCiihSoQDbZZ661YsYoym+B76TbXQttnnYu4D7RZijnbw4GCMVNrf8iCAU4Ddpe4qIINhG1KI88wBeyjZ0+3e+pyOBlj22qHiBRZnSwTGmbfUqiaFckbHAqL8/3YQrtSLVy2ekl+sUPlUsPUI+7yqBCwRuGTDxWMgXkqt6EUHIFbkijosIQhHBz2Lq6hY9SKEV5WN+GWQT8T20W48ob+ByYaJWbhnaUIRj9fHLdJTTQ31a+b7gZ80Md96B4GEzicdMUbCnUg6nL66VtuCnDO8MQ/2BFV7LbEaziCCUjtl2mqs7pno4xVOOxqQuLnxVyDCA1QssFnjAUa5sqzfJZQZn3HgYwM5WB5N9sWMY+4nDmSj7AduGPLlStkscuL/JSOrxnjj8U4WfVMW5ff4Ot3+mAAAgAElEQVREMdkfh3SLCEIJmj8iCKVltN2v17KVK9jTc/iOwoHAx4bQAzhpIhRwuLOnkyeiSozh3bu7XKqj17ocBRyl6leFHB1eba1qZvwMnhP4vetwx4IOEoOpnkI+SEUEIR/0ijQ2IghFAj7PabefpcOHe36e/ENVORTYBQapj4Ipe+vxEA4PVKR56pXpsiJP+KLhBULAZGDE4Suex9fBrww5KImCQC/C3xTuV+GR4R28NL8pOjVYf5tFBKFAPzqb00QEwSaahZc1oVG36Kngk+JygMBEUXZViBVeE+sz9kUmCL9Wj4crynjxtamy3PoskcDgEWhUJz6KsU43u6twhMLXBhFRMD4GTwJ3ivI3p4rXBluRJVsbJCIItpAsoJyIIBQQ7MCmUtlhBpVlw9lePP8r7UTUv34oxeYhPC/KzRrjkYo0r79ay5rIz6AUTbmBzvPUHbOELct7qfGUb/r7FD5coiszUQn3e3A7FTy/TRXLnz1VjH9M1DaBQEQQSnBrRAShBI2Wgcrx2bqLpDhD4eiSeAgrq0W4V+DG9jqeighBBkYu8S7HzFP3H20c7QknK75D47DQL0l4GeXmygp+8fK58kbo9Q2RghFBCJExMlUlIgiZIlWa/XZu0ZG9ab7ouRxOn7PYNsAIgcoiXUWYugjGkWsN8I4I/1Dlt6lyHl4yWd4pTZQjrfNCoFGdjwyn2lW+JsphCjuBn2bcFIQypKEY7xbjU9Ah8J6qHzXzuAj3tFfzXJShMzdrF8OIuWkajXofgYggDJ3NYPwVUiP4LGn2FOET6jFWHEarshXmnwRSoa8bWAm8K7BChaUCL3lpno2V8UzbNHl76FggWumACKjKuNnEJcVe4vAZPHZW4UMCWyOMQhkVALE1pPU9lJUIhqQux6HdFZ5LpfibdPPyUMt6OKCdcugQEYQcQCv2kIggFNsCRZp/nro7LeFDvSlqRBnrwRg8dhAYrY6f5GaUKCMVhvcTh2GixNQkv1FcBJNTPqVg6h2YAkmdQEf/yYD/oBX1H7ZvqrBYHRYDiYX/Zgk3RHe1RbJ6yU272ywd3pkm7uH/GyMOYzyP7YGtHJOMSdhS1T8RqzL7VD3KET9B0zpH3bRAWiHVv0c7zckAympDWn3iKixT4XUnzRJgUU8FbdFplv2tEhEE+5gGLjEiCIFDXDITTJikFTqWLUmxRcplCyfFcFz/iLcSjwp1cdTDdcARQT0lLQ5p9TBJYLoFP2tcJzFWe2lW93SyOspVUDLmLxlFzbVZGrbsMXu0h5GUUalpKlGGOUKZOrji9WVx9MATJe0YgiB0p4RuUboclzWaYvXwblZvC6sfbxJDIKIWIAIRQQgQ3KBERwQhKGQjuRECEQIRAhEC6xCICEIJ7oWIIJSg0SKVIwQiBCIESgyBiCCUmMGMuhFBKEGjRSpHCEQIRAiUGAIRQSgxg0UEoQQNFqkcIRAhECFQgghEBKEEjRadIJSg0SKVIwQiBCIESgyBiCCUmMGiE4QSNFikcoRAhECEQAkiEBGEEjRadIJQgkaLVI4QiBCIECgxBCKCUGIGi04QStBgkcoRAhECEQIliEBEEErQaNEJQgkaLVI5QiBCIEKgxBCICEKJGSw6QShBg0UqRwhECEQIlCACEUEoQaNFJwglaLRI5QiBCIEIgRJDICIIJWaw6AShBA0WqRwhECEQIVCCCEQEoQSNFp0glKDRIpUjBCIEIgRKDIGIIJSYwaIThBI0WKRyhECEQIRACSIQEYQSNFp0glCCRotUjhCIEIgQKDEEIoJQYgaLThBK0GCRyhECEQIRAiWIQEQQStBo0QlCCRotUjlCIEIgQqDEEIgIQokZLDpBKEGDFVjlXRu1vGc0w1hDRSqGW96DmwbHrcLrSZGOpUinKumNuXQtmEQPIlpgFaPphjgCjY3qrP4qFVusplKEWI/ipjzcykro6sWLOaQVUuUua4HupgMlNcQhK8ryI4JQFNjzm7S6Wf+ksF9+UvzRS1X5+sIGec6CrEhEAREwJKC7kg85LjumPbYVYRvPYxuBLRWGq1AFDBOIieICLoJnHrqqpB1hrad0CnSgrAZWKCxzlOUx4fWuCt5YMlm6CrikaKpBiEDdI7ql08uOInzYc9jGUbbxYGuEkXgMd4QqFcoEXPWI4QCKJ5DyICVCF0pH/z59V4XlLiwTl7dcj9f/tYoVd02U9CCELhRLighCKMyQnRLxZv0j8KXsRm209zJPOXRRgzxrQVYkIkAE4o06LLYFH0ul+ZQon1CoRtkGYRTKCGA4MAJhGH2EINPmmS80DFGADhHWAKsUVoiyUIX5MYcXVq3hn8uaxPwtahECG0VAVaX2d2xfUcZuqv6/jynsAGwFbOnvUbNX+8hrOZD5+0foRelCWCNKh8J7KCtFeFNggSf80xVe2G0l7RMjwmBth2ZuIGtTRoLyRSDeor9HOSRfOQjvOh5fbW+Qv+ctKxJgHYHxs3Q7VfZXj68q7OOfDpiHq/oP2IqsHrDZa2euHXro+4LrBJ84PCMODzkuj7VNZkl0NZE9qINtRONjGuvoZtcyl6/gcRDCTqhPBKoQKoFYwGtOo6xV6HSEDhzeQHnM8XjYfY9nmiZGpDYf/COCkA96RRobb9Z7gSMtTN+NcGCyTp62ICsSYQEBc1JAJV8V+L4HB4o5FQhfM/fCf3GFm4c7/OrFaWJOH6I2RBAwJwUNDzIOh2NFOQ74qH+FFb72psK9rsNPLzlYngmfeuHXKCII4bfRBzSsbtFbVTnWhurq8uWF03gMIkc1G3hmK2PClVqRfo9Rjsv4lPAdUb4JfDhbOUXs/57Ab9ThtrTyopbx7pLJ5soi2k9FtInVqQ0hqLuPEWUj2JoU+ymcqLA/yjCrEwUoTISXgV/g8kBZiiUf/yqrJkrkuzAQ5BFBGAihEP69ukWvUOVsG6qJcEziGe7hrujHYgPPTGXsMEOrKobxURX2xuNIhC+CfyRbqq1bBOPLco+mebLCZf6rdfJeqS4m0hsaVZ3O37Gd6/IJgYNE+B9V/7SgVJu5NnsL4SEXfkua59xDSTSJGD+cqG0EgYgglOC2iDfrhUCTDdVFmbT11lz/7KnSa0NeJGPzCOx+vZa9+y6fR/iKBwejfLrEicGGCzb7aL4ID6vyx6ounpofOTeW3M9ixkO6Xa/wZc/4FcCXgTHgxxgMlvYu8JTZp67yqPNVXo6IwgdNGxGEEtzuNS16hqdcY0N1B1q9LhqTTWI82aMWFALz1I0vZA/SfMv4faDs2u/JHdSMxZbrIfxblSdcZV5PBU9FYZPFNsnA8zfeo6N6h/N1lG8Ae6r6UQiD+T1hQn3/qvCgwt0zv0qbRHlB3t8og9nwA/8aSrRHvEWPQrnHivrCHV0OP3grcjSzAufGhFTP1nGkOAXhiP4jWhOBMFRar8BC4CFPuGZhJ6/SFB3phs34pzyjZdus4ABVzgI+h/AhdFATg/VNYK4eVgv8E+GmVDd3tR4ZXY8ZgCKCELZfagb6xFv103hYSW4kJnQNvtJeL6symDrqkgUCxgGRTo5MwXRgF4TyIfTQ3RApc/WwRJS5ld3cML9JerKAMuoaIALnPaQf8ZQ6YCImiVE4IxICRKBPtIIKfq6FJ2MOU390kPwz8ElDPkFEEEJuoI2pF79MR7GWd2wQPBHec9OMXzBdlpUgFKFU+YBGjSVGsa2spRnh2CwTF4VyTVaVEh6LKZPKu/h3RBSsIpuVsLl/1spl7/FllFk+gY3a+gisRbl4ixFc070fq4aqf0JEEEr0R1HdrG8rbGtDfbeMfdumyJ9tyBraMlTGz2LbtMeholysfY5dUds4Aobgtrhl3NH2NEujKJrCbZPrn9GyxR1MSHfyQxW+J1BWuNlLaiaTwvlPrsPMni7+MhSvHSKCUFL79T/KVjfrQ2q84O20umS9tNoRNTSlmNoIa4fxybTDyeJxnEooExyFyzgmQ6PDA3hcm6rgr5ETY/DmafiDjtZeDnaEc9X4GkRtIAQUJYHDjU6KO2J/Y3HTEPKhiQjCQNsjpH+vbtGLVTnPknq/T9bLYZZkDTkxfk6DSg5DmaTw+f40yEMOh1wWbIryqHEOg+urRnLb/DOj1Li54DjgGFU5/2HiHvxAleMVdpTIB21A2NZ1EGGlKr93HOYOpayMEUHIeIuEq+OEWXpkKo1JuZx/E97dwuEjUcrc7KHce65WvtHrJ636AUr1IIsVzx6Q3EcsBeZVbMuFr34/8iDPHcYPjjSllbv35pOucIEqX+kvnGRziqEiy1SXfF49Zl56CPcMhXDIiCCU6Nauvly3127esOGo6EPgcGiyVh4sUTiKovbuM7RqRRU/Js1RCFsURYnBNanxIH/ajXFi2xRZPLiWVrzVnPeI7uWluRHYmcjfwIYhliHMLS9ndtOBkrIhMKwyIoIQVstkoFd1s76mfYVS8m4C1yTqxcRARy0DBCZcqdumOvkV8IUMukddskBAhJcch++0TZOXshgWdd0IAtMf0kM9j19LX2XFqNlCQOlS4dph23DhjD3EVDsdlC0iCCVs1niz3gR819IS2qtG8qnoDngANBs1Fi/nE+JylSnBHF0pWNp964sRjGPYi44ydVg3T0ShkNljPPUhHV4mHEeaOQjDs5cQjcgAAUMMbnLKmHnxl1g6GK8cIoKQwS4Ia5fqZv2Bwg029FNljSP8b6Je7rchbzDKMJEK3ZXs6QkXof7JQdhK3JqMcKYUc4dJ+KJgkhGZBEUmXMu8dAXBEYipUCFKpUIV+FX5wphn/1mBJu3ikSgVeOa/KBOpICm+q1ALbJf5yML0VEgLmJerSXNsUrz3IKRU8cwGNnvRAUeVCsw+xd+nhuSEMRyzU4SbHZj9o4NJDjaSEBGEwvwmApll3CX6WXF5HBiZ7wQKKUf42R7VnHHXxKiy4wfwbNRYdSX7aF+RrP1DQg66BZYoLEF4A+VtgeWqLMdllQhr8OhWj14RPFX/wRszD13PYQRptnQcRquyTf+L5EP93u0fUUITpvkcLk3xNTzweNPgvu/N9zdsxveTg5NVOJu+OgpFbwLvKCwUzFc2b3oey0RYrvAOgikX3oFHjyopz0VdxfUcykgzXEy4sLKVI4z2+vK+bN9fDv0jCNujoSAN5nd4e8qjsfUwWVJ0wC0qEBEEi2AWWtRHWnSHmHKnwn6W5n5Bhe8srBNTOz1q6yEwrlU/Kx6XAfsWkRyYD6x3BJ4XeNZTXnZM+uIYb6aV5bFhvLvgbDEnCFk1U2Fy1QpG9bpsIx7bOw47ouyksLv5108einbCYHwSVJmarJeHslrYEOtsrhXKldNUmFxkcmBOrRLAs6o8h9AuMZZqimUVFSznAFZnn5lQZepDVLkOo920T2g/7AnjHOWT/h4VPon6J2HFaj0od1WkOGfG4bK8WErYnjciCLYRLaC8nVt0ZK9yvtd3lJh/Ez99c1OyTq7MX9jgkVDTrGNVuFPVTyxTjGsFc/T6Z3G434OnSPNGTFjR3sV7gRQ+UpVdZzC8q4zRUsa2adhTlK8DB/ZfRxTcuCIsQPheolb+VPDJS2TChof1VDwuKuK1wjuOcD8eJonbvxCWvefxzlWHZU9aM4H8lOu1bIed2DLVzWjPYSxwkAdfF5M2ujiFpnpEuLusnNObDpSVmawh7H0ighB2C21Ov0Z1xlVxlCi3W0rOY75Q75VhnJ44R94qZWhs6T52pprjzUeBT1kLKc1UOWU1wt0i/Njt5JVy6J7fZHwKpP+qNlNB+fUzJwxdKSp63mNcSjgZ+DbKh/KTmtPo9hgcsaBe/pXT6EE8yEQrqMddxXBIFMGcON6YEu6sWsvKXbtYO7HA15SqKjMep6Kni5GUsb+kOUOV/f0CaYVta8XhpvdSnBMUMSrkciKCUEi0A5jLVHYU5XpV9rQiXlksDpMTdfy60C8iK/pbFFLTrFt68HPgSItiNyuqP7PgCuCBWIw5C97jlUBOCfJYUHymxsXhDE/5jvQ5wRXqIWyq7T3luZywcBrJob4/jQlNEqTUfuyZTvFoAUMZjcNrN8JrJtSvI80vrzpMVuexpawPbZyn5b1bcaB61KLsgTLCOOhan2gjAvuzLs5a4zGn1ElCRBAKsWMCnGPMXN26rIeLFE634oluQszg+nKXC16bOnju0rI1gSEH2pd5zuBqPP2DbUIaZZHAH0S5sb2bZ8NGDDYEoGaO7uSl+T4eRyBUY7zOg2/Gme1Oz6F+cZ2Y7ItDt6lK3UPs5sCtwCcKBEQH8KI43IbDry79SrhPGk95Rsu2XcEhnnIKsIfC9gVKMZ10hPNXp/lVKZOEiCAU6FcV2DSqEm/lu/0lW0dbmUdIiHBaooM/hP0lZWW9GwgxtRXKh3E8cAGwYxBz/JdM4U3g/xyHnxy/hkdLrRjM2Jm6u+twiqpfPMzcBQf9pfauwFzt4upk0+C4681lj53/kFZ7MEuVIwoQAmgyBv5L4L4yl580HSSLctG5WGNm3K9Va8v4lsCx/mmr5B/5lcFa/uq4TH3tXf5SqpFhEUHIwMph71LdrJ9CuEbV97C30cwR4o0Moy557hB7AM9Tt6aNA9Vhjiq72QBzMzJMDPjT5mvMHcZvFpwtywKeLzDx8ct0lKzlYIRjUb5UgDDJJEp9VTf3DMVESn44Y5opqpxRgNoKbwj8Rj1+Wf5X/lRqBHbdpm98TGPpFB9Ne3wTOBaPnQK9dlA8Ee4v8zirqUTDHyOCENgjs3CC4406jEqagdMsOSsa5Vc4wrfa6+SPhVtJ8Wfy79eFKxVMdcvgIhaU1SL8ApcbKtfwymB4yR3QqLHFw4in4TgcJqFsHbBFn8XjuOR0eSXgeUIl/vpntCyxjKNFMCXaxwSonCfwEg6X9Si/m3WwyV9QWAfZINZW+6SOjK3xrxsaTORDEHOsJ9M4LV5+6cFSH/A8gYiPCEIgsBZeaE2rft3zuKb/iNeKAo7wWPv/t3cm4FVV1wL+17k3CYmAY7W1KgmgVqsdFDvaVqyQ4NRaFX3VV63Wqqg4AZnQECUjKFXrAFVbbW0rtfW1DhAQtbVOrdaqFSdIgqI+K6KMIcm9Z71vn8TWR8GE3H3uPfdm7+/jq4Vz1l773/vcs87ea9jIEYPlmGH0tVqQ2EgVUG7R0NrSXLxnvn4Zwvz2i1mTa852+1+vQzet4xt+T5bP8JL1SJCR7662cjnZyoLPEiHT/6j7+R3c5sOYEM/TTfbNhzyPyrUJns/mc/QtTatx7uz+MrshXKzKJaF+DMB6gZPry+S+LFli/1LTGQjZNmNb0Xf3uVqU/x5mAX7DZjie53Fm6zS5NUcwfeQwiq/SL9HNH8P0yjfx/CZU79VBkIzKONDGu4KCViZ/QmhNhB+0lcstoXUQIcFXP6aF76xjDsrZIat1Y34Bl9SOFXMMltOt8n49QYUbRYIETKE0E9mQD/vOKJV/htJBSEKdgRAS2EyILWnSM9XnWsSq1/0aL48vtF4qr2RiTOnqs/cM/WHtyXcQRutE+FMij++vvETeCKODKMrcfbbukp8ItsIn0pNP334zxzUeX2grl5ftC4+WxMoWPVqV30l4dQlWq9LYOEFmRWvk4Wkzf77G/j6MI1SYjUmyZNKRh9GE2zat4dw5E6UjDPFhyHQGQhhUMySzN+TRvOQOtKmCCL/pSnLuG1Vi4vNzrgVFmIq4wtfgaCGMttZ4fyeVmtcqTQra7D/H3RZIQUpwAoe60wA7kTabKWDWqObzw1x2qq1u0T19ZVHvS2xbpqA/15ocE60KTflrua12ophCX4OmGQfG7i7GolyuBDllrOf2MHVSxGNy/FHuzBZHT2cg5NgjMLJRz/XhBsvDWoNHbXwINwwk179lXayLG9GghyPcKYSyxbgG+GWeMvvVSmm1rnyWCBxRp5+QOGcLnNdbHMq25u+JMLVtGreSA450m8Mx8fw7rwpqgZxnG5yp9CnCCygN+d38z4xjxFRaHHStRtXbtIhDPeUyhbFi20lZ8REeinmcO3O8vJoNgJ2BkA2ztA06Bue+3TyE3RA9kzzpRZRL2ytpyaUv4E/V686bYsxDg2yJdqMWlE0i3EGcK9umyIptmMacvHSf2bpLd5LJqkHtENtJlXzgYREm5eJRQ1WLjlPlDnoqGlptAsuBywezcfAvoKpSvZiDfeXHKF+0Cto4hwnvB7s0+fwoG/w7nIFgewVEQF5xoxqvblOfwdr8mhTAQIsvTM2lao+B34ZSH0aBG4F7BM5vrciupDJhLuHAgO2kBlOO2H4ztSsaizZyVS6EjX6Ap+Zu3aGrMEj5fZR1I9aUXIaKgm7uGKw7B5svQ1PXoXoxn1WfO4F9bC9Tgb/E4px/5RHyV9uybcuz9gKxrZiTN3ACQYEhj7vRIKLBWlNICPw4kc+VKy8R88OS1a23SqNJMGV+eG0/C8/EYpQtn5pdXsvpmNA9rtbCvG5+osoptvsT4VHf54IVlfKMbdmZkle5UE1WzyZT4ti2DmY3p2Ad1ww2n4M+OarKZQ/wuUSSP4SQayIpQk0X/Gh2qZjU1ZFttn8UIzvQQaXYiRorHsMx9GxJ2q0joHTFPKYmd2Ve+/ezOASqRr2R23G67wce9rYd51rz43xxMNey6Ot5O7hRt38XftcbAmntd8jsdAmUe0Vcnwv+MlW/190Ywo0K37Zcwti8pObWl0oYPg19TX9W/LvxSehawpGS5Da1n/TrBVG+Wz9BnosyDGsPZpQHORh1M05hxGkS+C5q+WwdNiCcV7SRX2XrVm7xHC2mk6uB4yyvj7c9jzNap8n9luXmljhTQ2Q2XyDJT4H9bA5O4MmYzxnLqmSpTbnplmVeUN0tnIzQrGq1Jojx13gwv4BjsuEcPN3cP9xfzf06vMvjIuMAq6YipM3mUZ2/O7NrD4huxIgzEGxOeJRkmS/kAsp8j2uBUSGoZgrmTN5pR+58+mzpDkF+eCJ76i182xfmWt49WCPCrMKNXLO0VtaHN4DckBwcNSQ4RX2usLl93lsy+/ydW7n16XlZtjY/NLVT79OPx2OBf8zpNo/ApKca45l14+Wp3FhJ4Y5i+hId5XdTH+ziWAx/FOFlgXF1pfJ6uCMYuHRnIAycXeTvNL4IMaGqtxS09SQ1IrwuSsVeHcx/uFaME2NWtN58EXMUvmdL4d6X0nxJUNU23UUs9JfrqFm6azJBNcKZlhMpPZHI56hs9ZUxjnKXtfDNJJgMkaZCpq32lnhUrUvwq1xLn2wL0OZyzFxMX8TXFK5RDRKp2XlvCurBRXWlYj7iItnsDDSSQ3NKGQIjG/VAX5mL8CVrC/vfaE344ysi1BWWcOfSLEmuMrJJx/jKQsu7By+IcHHbRpYMltoVtp4wU41UCdboFyyes3ercPKKcjF+DlnXpv1eh8UKmA5MsVg+2/hn3Nwl1MzOspS/mZ7Amvman9iB832fGmC4RX2WFXTz2ahGkDgDweJMR1LUfI0Vt/E9NEgjGkZ1PZP84zVjJOgGftFeG33HxeJGbTChXRbny/hkXMtGrsiG8Vsctx1R8zU2opVzRJiJsoMdocFn3qK2Cim1JS+dcqqX6AhNsFiVvS32+yw+F9ZP4E+5UJXRIpd+iaq4V3eUGHcj9qLDFDTmcVLdePlNv5RI80XOQEgz8Ex0d+KJGvvrGH6JBvnww2prBKbGirg9yt7jJ87X2F9bMWd+9kLGhL95ynEu38HAl5appJncxEL1OWzgUv7zziE++75UlX11RKoW6anq83OLLDYIXJ33ODOyJc2vxbFbE1Xdol/xlUetCTSClIcbJkioBc0Gqq8zEAZKLsvu22+OfqKjk0dCclj8gMZGhGpP+WlrhZgUw5Froxr15CT8yqJiGzxlcmvl4Kh4aZHbf4gaPUu/nEiyBCi01Y8IV7eVy6W25KVDjjnzrmoJai4cYak/cxT4RH6Mk2vHuaRdqTKtWqg/Vrspr83H1eH1ZfK3VHWzfb8zEGwTjbA8U3NAJMiwuFtYappkSh7M9YXrV0zjpUjlxa9Rr6SQFrX3w2v2sR8f7jHuuanRTngS1nzbllvcrLfhW3UeXSYwJqoG65b4VSzQYoSXxFY6aqVDYkytHy/X256vwSivaqF+QuFpi7uQnSI01pfKjKjxdAZC1GYkZH1KmtTE814GDAuzK4HFAtdsiPHw2xF5ee7ZrKNiPv8AhlgZu5D0YkxsnZKdjnBWGFgWMmKO7ied/NmWv4wo64nz3bapco9lVUMTV9Gi1aLMtNjBsxKntP4IeduizEEtqrpFr/Q1cCJNuRk/BIGHNcHxjUfLeykLtCjAGQgWYWaDqN6CObUKZ6HkhahzEljmCbd1w22vl8ubIfbVL9HFTToZ5Zp+XdyPi0R4pLODsjdnDM7qd/1ANKBLipv0RpRzBnTz5jcJJkfHLe3lcq4VeSELMWWHuzp53mZJZxXObiyVeSGrPqjEX7ZYD0wmuVtt5ZgRWsXnh/UTxByxRaY5AyEyU5EmRVRlr6vYL5agWXuKv4TXBEV5X+BPfoymFet5MmMhgKpS0sQCBVte7b7n8a3WaXJveAAHp2QThqoazNUuKRPoWYNPxmJ8KxvqYkxZoJ/JE8xZtJXKoiK8uC7Jl647UtamzNIJ+BeBmod0aFcX1ai1aChTaKyhoVQao4TZGQhRmo106VKjXvEQvo7wIwgSf4TdTN739xCu0Q3MzkQo4IhZWiI9DnAlNgYr8NekUvpaZbS2BG2MLdMyTAnuzliQlMZWMac2Ec5uK5fFmR5bX/1XLtJL8Lmqr+v6++9ejIvrxol5zl2zSkClagGHq8ftKLtbEG2OGX6VV8DZtWOjk4XVGQgWZjZbRfSWhTZV4mxmausLx8vEKN+wniXvwMZ07SgUN+h/IVxnKTmSKkzbroNrs7UWRV+TlNF/N7k7WjkRghLH+RZ0MV/PDe0V0fo623xcvdELpoZHmYUxGzAx3FAAACAASURBVBGrkx4HNo/P/PGepfFESkz5H3QvL59ZYC18/PF4jPOuHBedSqTOQIjUkkuzMj0VDS9Qn+lWtnP7r74Jh1zoKbcmk/xtxd78k4lifBZCayVNagrenG8phO5tL84xrVOiX889NKAhCy6u088RC2plfMFCV4pwO7tyTpQrkAa1F+I8ijLSwpgx/j95XUyKapY+G2PMpAzjL9LdxQUKdaiF0FzhNXwubpgQHadnZyBkcoVFoO/9azR/UyGX+DAN2DHNKr0jwiJfuT+u/GX5JlrD2FH4zCzdbl2CX6pwjKV007+LCxcuK5eVaeY1aLrrrZdxhcIkG3MmsEQ8zm2dJq9GFeL0RTo+6XO7pTDkblVOO2gd8yeGbHxHlWc69Kpo0cNFg4J4n065P2ETPtWfX8c1UZkzZyCkPKvZLyDIYtfBZFUqM2AkBFuhKE+I8Kjn8ceCDTxrsxri6Eb9dAJutfQ1avwpKnUj12XClyL7V1s/R9CTs+JMBXMEZsNwXeoJk1vLo+Ul/mEaVQt0qoq1EORXRDmxfoI810/i7rIBEDC7PnkxblL41gBu/49bRLmhQ7hsTpmstiEvVRnOQEiVYI7cv2+TDusSzg6MBA2lZkPfpJSNIixXeAH4U0xZbGNXYWSjHqXwI4XRfSvR5xVvCJzbVpE9cfV9jiiiF5Q069fUD/xGbDjSvitwSVuFmC/0SLaqhXpLb4XRuAUFfyVwaX2ZvGVBlhOxFQImdfvo7ZlpalwgqR8zKNwHXNRYJsuiAN0ZCFGYhYjoMPpaHZ7o4AyBalULIWYDHFdQOllYj88aPF7wlEUJeGBkBy8PpKx0caOebQoBWRmT8EdJMLmt2n2ZDXB6+31bcbN+XJS5qhzb75u2fqHxcZl+yEhm/SaCW+7li3V7L8mvrTkoClPXJ7nOlXS2sHL6EFHdoif5ytVgJZrhOc/jzLrx8lT4mvfdgzMQ+mY0qK4wPgkbCjlfJIjxDaP640B5+ihvifAQMR724MlT17O0P4VnSpr1SnwqFFL/MhNuG5Lk0peq5N2BDsTd138CJU16nUmaZGPuRPhx0ufyKIamVt6v++MFx2Bf7D+dLV8psNqHHzaWyW9TleXu75vAjBY9oFO5E9i/76s/+gozdx6cNLNMHkhVlo37nYFgg2KOyTh4rua99z5nBY6LyojIDk/oAF4B2sTnNRXeEo9VkmC177FBha6YT8yXwNHtOAvj6PKEhtZp1IZSY0JVyh9guHYzLKYUxWMUJny61WdTIo/12+WztnZs+stp//Apzdv5/R69/CSFEic/T9nUHadDOlm3fCNrw/oqH9mkk3zlChvhqQK/Jc6lbVNkhYW1sFURNaoeD1O0fj1DCvLIk2687hgiCby4+d84XsJDSOLFPSRp/jsRGAaXY+cY7BninNdwhDwe5jid7B4CNQ/pkO6uoMbL1zDxMik2Ef4rbzzza0X8FEWlfHvKg0lZAycgmgRM5sFGTgicpoQDbCz8aA50m7R6W5WqFSFUbqy8Xz8mwkF4HKXKocA+QBFgtsZXifCkeDyQSPLQRp9l6dg6NmFcSZ8RfhdfE2G8r3wFCcpkm9wEmwTagccE7kf4y8zxrBQRUznQWituVJP58iagOFWhIvwxppy3rEKMj4v19sO5mrfrnuyViPMZ8RmDMAr4OBrU/igw3EwBJu39796/M38fpDxXTGSihRcM3OdH6BzbOugICrTqP6Jcmj+EGzLxMbA5WmcgRHCxRUmlUc36VR/K1Wd87w9alNRLty4vizK5rVJMKV5LLcjIdqAKZ6lysshH+n5sUngCj3kFCe6rDTF97sWPaeGQ9YwVDWp2jNceY2XLTVknHneLx0/icZ6oHSsJS3AoadJ98blLjZGaalOWopzRXiVPpipq8/tn3KNFXXmcoHCiCIeqsoPtPvotT7glP58ptWPl/X7f4y5MiUBvBIrZ6Uq5EJzCVf5QapsPlXUpKWXhZmcgWICY6yJG1us+fgxT7OZ7EfNLSCt6k16ZGD9om2rPQbF6oX7Bh2p6akSYr8m+mqkt0KbCrCHd3B5GEpwL7teC4R5H+0KNKvtL/+oCdAn8xYPal9fykK0jh/1rdOjGQsx5bMpn88D/qvDdFeXyUF+Qt+Xfp7Todnk+08Xjv1X55Lbca/tahaQos/LLqI7CFrXt8UVVXuVi/Q4+t6EMTVVHVX5RIFxYG4FQR2cgpDqbg+F+VRndwC7JGCepcqmN7d4sxfZwUjjFVmXK6S1akuwp63t8P42Df2MTTLjlWfWlssAmS5Pud/qDHOInuFmVA7ZxyzuB8qe4MPnKMkvb+D1Ftu5RmAB4KY51g/nCX1Fhj1lNjXpdX6YB4+di4eWQ4vjM7esEauvLxFo9Bws65byIyx7QQxIJTK2P7VMdrMB9+cIZM0rln6nKSvV+ZyCkSnAQ3W8iHDq345CkH4T0jLHwg51V9MyDGyvi+GWTpTNVxec+pXntqzmDHpZb377/qI6Evy9bwxhbX+umK/M1nA83+cop22gcBJqaL1hPmdnlMWt2qWxIlZO5f0Sj3gycJqlGoQjGffD4FVP5H7DjK1GxSE8UH1NKOXNHCv8f8ttAZUOZ/NQGeyejfwSql+gn/e6gTHfKSb0E/pzwOCkKNTScgdC/+XdXfYhA8RzdQbqYhXKywnY2UuFmAWDjn3xXe7lMtKHr9CU6KpngFpRvpCQvxhkN4+y9DKoX6Rj1eTzFsMKVCmNtJXsZ2ahNxunOSuEm4fT2jdxBbep+EiZ3Qcznbl85bCDGVErzvpWbBVaoMKWhVO4KQ76TuWUCVz+mhe+s5XUb0TYIz3twVF2pGHkZbc5AyCj+7O68uEm/jTIVOBAYlt2j+WjtRehGub2tQn6Q6jjNNn71Eg7TBPfQY2ANuKny54Yyvm4reqB6gc7yhSkDVqj3RnMeXz9efpGqHHP/yCat9DUIAUzZAYwY5+w8nFufPlu6U9WtYoEeJ8I1wJ6pyrJ1v8CrCBfaPnqypV8uy6lcqOaFvoeFMS7zkhxRd1S44bj90dMZCP2h5K7ZMgFVGTGbYi/JD3pzkZvQvCBkKwebeaHc2l4h56Q6NnO8sGIVk0z651RlKXTrWj7WNFHWpCrL3F+5UJ8GDkpZljC3oTR1VkaP4ia9CKXeRiVOgcmxIubZOCaqXqi1vjIFGeARUcqQ/1OACC96cP7MUnkwBPFO5EcQqFqoLynsmyokUVb4cFjjBDFhxBltzkDIKP7c6Nx4mm8awpd8j+NFOV7hY7kxsg+NQugWSzsIJrFK5yauEAl2X1Jvwn4NpfJS6oKgaqG+q6SeQVNgQX2ZHGlDpxENOkmE2TYMBDwuYQM3plpoK8jBP5yfAKdH7IjtBU+YVFcqf7LB3snoP4HKhfos8Jn+37HVK9+MCYfOLJU2C7JSEuEMhJTwuZv/TUClpI5difEFJAj3Mvnz+xO2lxUQg/oQcHt7hZyZqsLGQOjqpA64JFVZ5v44HGAraqBqoa5RGG5Br8UNZWJyZ6TcRjbquT4Yr/zCVIV5cKnfwQ2pGgi9eQ9+ovDdVHWyeb8pdKbCpCZnINjE2i9ZlS36d9RCYTHhzRjOQOgXdHdRlhGoUW+fYezU7XMQfhASeXiKDm9RAdCN8NP2cjk7VYVq/qH5XSuDc35jJKTcCoTdbIVEVbXoK6rsnbJSwh0NpXJqynJ6jhgmozTaMBDM+Xy8kLmpHjHMn6+xZyK4g6AERwzn1ZfZzfVgYx5zXUZViy5VZT8L43xNlW+4IwYLJJ2I6BIYfa0WdG/kcK+n8NMXs9xQ6EK4tb1cTMKolFoQO/9VjsY34XYpp9ZtbyiTkpQU+tDNVQv1DitfxcLUhlIxxwIpt5IGnaoS1GNI3UkRJhV1cMvSWulKVbHKBWryH5joCht6papOcL/Ay77H5MbxNrN9WlEt54VULdRWBRvP4nIvj2/WfdM5Keb8onEDhN78CYf7flA06fNqqkR6FGZVfQdTWke5s71CTrExp73V+0wFuIGnEBY0BlfMLJUZNnQyMqoX6HG+ML/n5GLAbV08n69debiYM9mUW0mTmlLdZscl5SMr9TizZAO3D6Rs+OYDqVyg36EnisGG53rKnAIBSrvCJY0T5G47Ap2U/hAIHI/f4U396FTp/RFlrlnqdzGh6Vh5rb83hHWd80EIi6yT+58EVGVkMwcn4ViBQ9HeYjY9xX8i3wTuGdHBd2y8XEwMfdxnit8TJjrQF9/r+T5fqT1SVtqCV7NQd+oS/oDy1QHK9MXj9jyfS22lii1u1hvwMeGlqUbIqHic1LaB31KbeqW8mvv0410xfm6O0SKUNOwtoLyhTIxerqWJwIwW3bVLedGKg6/whHRxQt0x8kaa1N9qN85AyPQMDMb+a9QbWcge6gXHDmPw+VyQS0GCyneRXZMCS/LinPzKFFllY9qqluhBJJijPoci25xGeK0nXFZXKtfa0OUDGaaCY1cXJr/FnIF8GRsnOQ8uyCvlj7ZqARQ36W9Rvm3hJdypcPyKCrnPFrPqB/QkP8GNNjLo2dBJ4H1Vahom2F0XNnTLZRnli/VAL8kjllIttxDntPojxGTFzGiL7I9xRqm4ztNGoLhGh1BAsXiBY9y+KowR5WCTYVdT/2K0PY4n8Pl+e5WdkMKa+ZqfGM4EH+qUoChSf5/HDSLM6+yi/qpj7BgrHwYVZAhUztEeJ9NtCVltF+HKLrjTVpplsz6kkMVqdpxSbCKsEji5tVyWpCjqX7eb1NRxmCI+lw/AyLOlxofldHvQUFfGDFvppMNQMtdkVi7SI/ExR4YpF2tCuLOri/PDeLa3lXt/f5C2Va673hHYZgLGqbGzg53jHruIspdq4K9wiMJBArtbcOjbZp02u+EFgUltFfZizE3IY/cmvmqqMxr/jL4UFFiFz42JODc1jeMtWxkUN+/XHDUklFP9nlwNfZ2xK/CqCDWJTdzX/C17ZWpHNupePvwBUg8fM1kGfTh9RYU81hfnbfl3Y1B5SS40W/sDrquxLR32fe2N3cJUW0Za3925K6pbdJLvMxtJPRQX+LEfY3rTODvJz1KZHWcgpELP3RsegRr1Ru9MXv675K3dnvy4z64kgqOIz2OqDHqMUg08htPpv/CGB9NaK+SXNgdeo+qtf5idCro4G+XCLSWaCooggcmO15BXwOO1Y2WTTR22JMvscHTvwP7mxac+J7KFss8CGxVuVeWqgiGsrB2beo2DD+tS0qhfB25RGJ3yeIXHxeMcm+W6P9Dp4se0sGA9ZaLUokHq8Uy23/kxLm4al3knt0xCSGfflS16DYqJcErVTwYRqjqG8aM5X5GOdI5hS305AyHTM+D6HzABEy7480L2SMIeAh8Tj4+pzy7isR0+QxDy1ZTgFb6MnfjkDQhXtpfTHNb2bZBlMcGhXpKDFXYV6PB9XosV0JLJsKeax3SnxDomKOyNz3DxWO3DP/LzeaB2rKwf8CT2cWNxk54GNKJ8PNU+jJNpzOPiZdNkeaqytnb/xQt1p0IoM74OvSmrgxolAmqMPMD86BvjrsPMrZr/L8Hfmes+h6ZeLhh4XOD8+jL5W1jjdHL/TcAY+F2LWKDKuG04JtwqQk84PZ7PHbaN7YHMmTMQBkLN3ZM1BA6r0fiKIupVg/N0L2XFhZuKNjJ1aW14L8WUdcwVAapS3EwdGuQaSDmLogg3xwqpWjZZ3kkXopqf6hCKib81jM55Y7ZeIKpqoR6kBKmbU6+DASsFzqkvs+eMmS5e2dhPzQIt7pIgp8lnLei/AWViwwS534KslEU4AyFlhE5A1AkUN+uF+NTa8DBGWGjOm1ur5JWojzvb9QvKincyV8FGiW0f4Yp4IY2pZlEMg6sJk+v0+RUShEym1oRuhYtWt/OTeRaqVqamTO7fPX2RHpn0ucE4VlsY7SsopzdMkMctyEpZhDMQUkboBESdwMgGPT7I5S+pP8DG0U2Ec216wkedX6b0G9GsB4nP9cCXLOiw1pQmb6+UeRZkWRdhUjf/fTi3K5y0JV+Pbe1Q4Kb8Ai6bMdZ+lMu26pLr11cu1CqUCsRCyXvlwWSS85uPlhejwM0ZCFGYBadDqARGNughvjC3P1EC/VCkE7iwuINbbCRM6kd/g/aS4kY9GYJ8DCn7HwDLPZ+LWqvk3qgCtVw++q8x5b9nTpCXozreXNArCAlOcoOCWaupH2HCTyVOZRRyIJj5cQZCLqxSN4aPJLDH1bpTvItfA+NsoDJn2Z5H9fKp8k8b8pyM/ySw+wwtKiikSpVKGz+8An8myXlt1fJcVHlXtugJ6nOj2EjXK2wSOLZuPA+EFQobVY7p1KviAT1EEsEu1yEp96uYLKSXr9qZ5o/yV0m5n20Q4AyEbYDlLs1eAsXNehM+Z9gIQ0J4OeZxwvKp8o/sJRJtzUuadF9VTJZIKyWjgfnxIs5aNlnWRnXk0xfp3r4fJIWycZZtwuVm5eVzeTpCYqPKNGy9KhfomeIxW5UdLPT1TxUuaSyVOyzIsiLCGQhWMDohUScwapaenfSDcDkbD7J6wn+3lvBrJooJXXPNJgFVGdHABFPTAdjZgmgTSvij9nKpsiArNBGBH8IO/Fl9Kz4XqPCiJPlGw5Hpi9oIDU4EBVc+oDtLgpkK51hS7xk8LmgYL49akpeyGGcgpIzQCcgGAiMa9POex+9V2dOGviamPl845eVye1kDbeiVCzJG1+jwZBGX94ampj4k5Q3xuKitXO5KXVi4Eqpa1ITkmmOV1JugeJzQME5+l7owJ2FzAtX365d8j5uBT1ugY7KR/l7inBMV/wMzJmcgWJhZJyL6BIKaD4WYHPxfsaTturwY416dKk9akufE9BIonq2fkiT/o8q+lqA8WxDjuJenSpsleaGJmb5AD0sKD9nqICgwtpYjaydKly2ZTg4ECc26OFeUJivHlkqHePwo7zGm11qoNGprjpyBYIukkxN5AiWNaooi2dtmFn7VPo1TEDHWv2uWCBQ3aTlKvQ3nRCApwl0jNnJqNkSd1MzXoV3DedVS5AYoXRLn2Ppx0mJpepwYk3t8se7lJTE7Uqk7J/YQXUmMC6O22+MMBLfcBw2BkU06xlf+anHAGzzhsNZyecqizEEtamSjbq/Cs6p2HPWAjSJMbiuXW7IFbMVCvdFkQrSmr/DguztTFhXPeGvjyqCgysV6FskgeiHl2gu9w3g66XFs83h5M4PD+o+unYEQpdlwuoRLYL7Gitt43lJdhkBXgd+2VcgJ4So+eKSPbNJKU/4atXb8+W6RxwFLp8n/ZgvF6kU6xvetGrJrPeHUulK5J1sYRFnPE+drbO/teV7t1HcxPyLdKDfXl3Je1EJSnYEQ5ZXodLNOoLhRp0FwbminKWtjMY5cPi06nsd2BpZ+KaNm6a7JJCaF9fYWe5/fXiEmO2FWtaoWXWrtBaSYNNP3F3Rz0oxjZGNWgYiasqpSuYgzzAvdomrrUE6OSv2FD4/LGQgWZ9mJij6B/eboJzo6MWlMbb2EkgL3FuVzxguXyOroE4imhsaJVIqYpcr5FjVMxuGoZRXZd/5e1aKVqtRZdCQ3OyhV+QX8PApVAi3OcVpFVdyrIyXOY8BuFjv+R8EufHHGmOgZb85AsDjLTlR2EChp1J8rnGpR23c84fIdl3PL0/O2XrHPYn85J2pksx7pK7fYKOv8ARwRni/cyJiltdnnwV/1gH5GExjHQhtpplFQDx70Ylwwc1w08vxn2yKe0qLbFShzfDjLpu4CU+rL5CqbMm3JcgaCLZJOTtYQGNGoE4zvgI0Swr2DNlEMjwhMbquQZ7MGREQUHdmoe/lwrcBRCnFbaolwQVu5/NiWvHTKqVmoO3UJV6OcZq1fZR0ezcntuKb5UJe/Y1u5mlTYAj9Wtbd7ILBK8vhc3TfljW3VJx3XOwMhHZRdH5EiMGKOfsLr4jZVO7UZgsEpGxGu9ZXm1yrlvUgNOMLK9B4tnKcahJ/uZFHV5R4c3lohr1mUmTZR81Vjzy3iuKRiqk/uaK1j4SVRJuU9zh+jFG9vbXwhCZq2QPeNC9coHGGj2ua/drngmvoyuSgktVMW6wyElBE6AdlG4OC5mrfqfb7nKTeqvTAlg+Gf4nH+iA3cnQ0x9xmfN1UpaeYIhetQ9rF43m7K6l3hFVG/bLKY6ptZ2abfr6OSHj8CjrY2gB6HxSUCp9WXyVvW5OawIFOx0fOZbgwrhSKLQ10TU74Y5YqbzkCwONtOVPYQGNmoB6pwoypftam1wCuectTySllmU24uyipu0GI8bkQpszy+N9Tj2BXT5G+W5aZVXI2q170Is7vSiN0XU1DIqb5UTESPax9BIAhpHI6JgrlO7e5wmfDGnxR0cVGUI0ucgeAej0FJYPS1WpDo4CKUGou+CB+wvLtAOM3Vadj60tq3SYd1QjUwzWLOA9OhiSq5JqnMzIWjnssW6qeTPS+nw2zusBhO+Jz8+fXcPdEVHNviQlVVmd7CIb4wF+Vzln8o3wGObyjlz1HOxOoMBMuz7sRlD4ERzXqQ+FyH8GWrLylTJEeYldhA08paF/q4+YowxllyIz9QaLb9ZQy8rMqkFZXyYPasxK1ranYRulqYYkIULYbmBh2qssqDUz9XxgMTxVUl3XwWKhbqaA9mK3zL8loyRuw89amJeqVNZyBYnnknLnsI7F+j+R2FTFNlKsJwm5orJGNQ5xcwp/1ied+m7GyWZZhvLOT7iLXS2//GoWzC4ybf54pc2D34YGC9L6qf+vBVsV1gT3he4NK88SypFfGzeW3Z1L3mft2jO8YshZOsfjz0KLlM4YKCx1kUdUdRZyDYXFVOVtYRGN2so5IaRDSYKo+2n4fVCM1FQ7l+6XmyPuvg2FZ4vsZGtnOa73MlsLtt8SjPqXDuigoxiWxyppmt7upFfF+V60LYcUkIPJEUqpvG80iUt7vTNaFT79OP58WZpT7fRYy/q9W2SWEuCWobj45+tJPtH0SrJJ0wRyB0AjXqFW/H94LCK2LVQ9mobvIjvGmMhA6PW96eKhtCH09EOzisRuOvFXGSQo0qo0MwxjZ4cJX3BvXLrsveyIWtTd+03+uw2BDuQhkfwhSbUtB/8jwqZ47j6ajVAwhhvFsVaYyDuMdMhFOAISH0/awX45y6cfJECLKti3QGgnWkTmC2Edh/vuZ3tHKvYjEvwr8hGCPhPc9j5gZh3mA0EkxY6bvv812UK4A9QzAOjCn2HDFK27OoKNO2PieXLdYDE8mgiFPBtt7b1/XmSEyEp0Q4p34czw7GnYTeY4UGVUzxtTCMA/OB0LxsLXW/yRLHUGcg9PXkuH8fFAT2ulpHel2YsDhbNRo259aJUFMANwym6IbdZ2hRQSH/BTSqsktIi6lbhBPayuUPIcmPjNjKBTodYYbNZD2bDe6VeIyTvSN4drD4JJgjnMoWRnnCleozMYRjhQ8QP64JjsqGo4UPFHYGQmQefadIpgmUNOoF2lPpsTAMXRQSnjKHPK5vu5TXcv0rLajOmOAUYxiFaHj5ItzaNo0f5jpPsyYbHtEd127gd8A3QtmJ6Vn4K4lzrq880jRO1oTxLERFpslzsM9wDlaoUuHYEBwSPxjqGvE4vn68LInK2PujhzMQ+kPJXTMoCIxs1O19gtS2ZovRtnPSvxgK3CfCHH8jj7bXyqZcg2t+dJ9+jYP8BOcA/43dbJX/H5fweMzj28unyj9zjeOWxmPCHpOLOSKZ5EaEkWGNWYTVpj5GPM4vrjyc1lz0SzAZEmNJjlJhagh5Dj48NV0i1NeN54ps4+gMhLCeMCc3+wjUqFdSxBiU6xXGhDgAE072ogg3xQq5c9lkMUlTcqKZBEhdyrdUmITy5VAHJaxAObs9C8s5p8Kl12HxPIFyVXZIRdZH3iusR7nfE66Pr+GJ2onZVxVza+OrfED3IclZopxhPUPiZp2K8JvEJs5s/lb2FchyBkJoT5cTnI0ETPEgivgvlJmhhOL9G4pxXjRfvQs85YbWUfyNLHFc2uK81qg3ooh9RTkbOA7YI+RdmPUIV3R2cP2bM2RjNq61VHSuvk9H+DEagBOxWAFzCzqZr9+lIvw82cVPs+n8fEt8TcnmPJggyg+Ar1murbClLp8R+EF9WXam/XYGQipPqbs3JwmYowaTuc5Xzg8h9HFzZl0Ib3jKvB135Kqnz5bubINqohTee59TFS5SZe+wfDj+xUWCdMo/8/O5bMXFg7PgUE2NeomvcpCagmMa6m6XwW6M2XUoz3geVXWlWZhnQlUq7qNE4lSIcGyvw2wszGdNhLfE58L4EO6uHSuJMPsKS7YzEMIi6+RmNYGSOt1N49zaW0goNH+EzSC9HCT6mcbD2eJwt3eT7pdQru0tg5ueORceiXlMWj5V/pGeDqPbS+UC/Q7CTcDH0qWlwPVAXbZUgzQ+MaO353SUOmC3NHHaJMLMjjVcPWeidKSpT+vdOAPBOlInMFcIlDTqZxV+BtYLtXwUIrOjsMQTbhDhL3uuZ3WkSkfP19geK9k+z+cAkvxQNdjizk/TnJsv2Zc9n6mtVXJvmvqMdDcmRK9qEeX4XI6EE32zFQBvecItnsd8L05b7Vg2gJj5iUSreUiHbEqwqwel4nOxKvulUbFOD34ZL6Cqdqz8bxr7td6VMxCsI3UCc4nAqAY9PCn8BMLzGN8Kr3XAgwJ3CTy7IUZrJpMsBXUriigRnwN8Ew4GRwE7p3mu30Kobp/Gz7JlhyUdfGoe0nhnJ40C54aQivkjhyCwXIXfiM8DyW5eHTKMNzO5nV75gO7sdbF3MsaXRYP8G6YKY1465sH00ZtwakHMZ8rMCfJyuvoNqx9nIIRF1snNGQKj6vXbyRizUUZlYFAdIvxNlUcEnvGF55N5tK+8JPxtS2MUdG3HngmzW+DxWXwOBQ6BED3ntw74PZMgaOfl3Pj0vOzz0wh73cx4Sos6V9GsyhmS3p2EnqEJGB4w+gAAC6BJREFUb6L8WYQnfHg2mWBp+wbeSUfGQBOuKMI+0s1nRBij8DVgn3QaBh/Mrwh/8uGSxlJ5Ouw5T4d8ZyCkg7LrI8sJqBQ3MxGf+gzsJHzAzmzfvoXyqgqveBIUJno+3+OFV6bIKluAg1wQwn4iHIAffH3towSOh3uFGZXQh/7vCdTEipi3bHLu1VmwNXfVS/STfjfVwPdDShXct6pCB0qrmIqFwosKfx8CL2g+y2rH2sn5YXJBsJC9kjH2T/p8TuDTZo2KsHeoYZ99jN4YRyJcUDdenuobVHZc4QyE7Jgnp2WGCZjwRyniRO0JfzQvy4w1gYSCyXBnykibP68jvIjwSizJa5rPykQX73x/E2u2WE5WVUbPYJgMYZdEjE+Kshc+e/senwJK6Imt37F3pyBt27NbAWrGWTM8xs3PDeJiV/1ZbMYf4bJFFPvKdIVT0+gbsmX1lA6E98waFWEVyjKUlzTO8rjwui+8uXMhqy/5ypZ3w+Y+pXlvvcuOHR67ecqenlLsw77Ap9DA2XAHlJ0Qtsug8dozduWvQR2LLA1n3Nr6cgZCf548d40jAIy+VgsSHZxsjATpifOPSjOJl0wYlfmT7P1j/q5bYb2AydaYUCXmCQUqDEUDx0ITnWFCvcyfeO+fUEO/tgmYBMZPbdFQbnblsvtHzhgJ5Qv4ZExoRNLqQPrRCgqKBmszgZDo/W+zRs2fDoENCqZeiYpxelWGoAwzdRH0gzWqxBDiCnGxX5q9f4C3cJXZOUA5r66UZ7ItU2Jfg3YGQl+E3L87Ah8mYMpDFwXpg2uDnQTFPUO2V4h5mcA7oszS3fhx+/ftbE3bVjPK8mbco7t05XOdapC0ynr1xyiPPV26GYdET3hUhEtz6Vjhw/zcj1u6VpPrJ4cIqJQ0c4L6zEDYzxkJ1qe2TWCO8zlIjWvNQ7pDdzcNaLDrFV5K5tTUzNa7zW7HYoUZueKQuKWJcAZCti5Pp3fGCZTM1q9rkhmqfE3CTXeb8bGmTQHh7yhN7SP5TVannk4bsI/u6IL7tWCox6XAWUBxRNTKdjU2efArUZpyIZTxoybDGQjZvlSd/hklMLpRP90tXCTKRGB4RpXJ7s67gHs9mNNaIX/O7qFES3tjJAyPcYKvXIByiDnXj5aG2aONSZ8MXJ+Xzy3ZngSpP9SdgdAfSu4aR2BrBFRlz2Y+kQenqTJJo+W8mC3z9r7AzZ4yd3mlLMsWpbNJz8BIyOMQTTJFocz5JQxo9p7xlIaN67g3m9Mnb8vInYGwLbTctY7AVgjsNku3K/L5pipXAJ8JUse41ieB3nj5evK5u/1iE7oZnXS9fSqfZReYmgT7D+UT3XHOV5/zgKFZNoRMqWsqWv4epTGvgOcymSky3QDcj1i6ibv+cprAnk26e5ygwp5JR+za1gn4IjyGx3ltU+U5Byq9BKoW6lEIv3DOi31yXyPCnMQmrm7+lpj054OqOQNhUE23G2w6CJx4osaeGsPp+FSosKfbzv039d4kT297MG/IMK52+Q3SsSK33MeMFt21E5pRjkbZ0fkm/D9OG4DnxOOyunE8mGv5Dfq76pyB0F9S7jpHYBsJFM/WT+FzET7jBfY0CV62UUQuXW4S4hgHr0cR5rSXyxO5NLhsHcvF87WwaAe+7fucKcLBbkchSCr2sip3k+TaxqPFZIIctM0ZCIN26t3A00FgdI0O7x7KNyXJRBGOUFMBcfAlVzLbtI8o3JXI456Vl8jqdLB3ffSPQE2NesmvMiqpHC/KcQoH92bX7J+A3LjKZHlsU7gvFuPXr7zHX9NRaCrq6JyBEPUZcvplPwFVGdkUHDUc6sMJwJGD5NjBZER8CJjveTy41wbaHq4Vkw7atQgSqHlIh/hJDkwmGa89pZI/HUE1w1DpHVNW3Yc/kODJwb5r8GHAzkAIY7k5mY7AFggYL/K/vcLuyQIOkiRnKXwzY1X3wp0hX5TH8Zib9Hl06ChWLp0oJs+Ba1lAYEqLbpfvM0pjHC3K99SUTs7NXa81CPNRfo7PS/lP8u4Wi5tlwZyFpaIzEMIi6+Q6AlsjUKPeyEKGJYWDxPgoCOOAwhwA1o2JTFDmJPJ5ZOUa1uJ2DLJ2Wmv+ofmJN4KqiceZJEsKo6JUJGmgYAVW4XGHl+TGeILXZxxtqk668Not8XQGwkBXmbvPEbBCQKWkjgM1xhlCkDPfVLAzxXWiU1Vx6+M0joedwHpggQc/2XFHnnz6bOm2gsYJiQyBGfdoUXcBR/lJJiF83ux8KeRnhcEgdKOB8+EKgZ9JHr+u+6a8ERm4EVbEGQgRnhyn2uAisEeN7hQv4hiUMhEOUGVXYEcgLyokesMU1wTVFuFVlEUi/KG1Ql6Lio5Oj3AJVC3UgxCOVeXrCCNQdgGGRSg5mCktvQnhXeBt4C8o9xZ8jIdnjJGN4dLJLenOQMit+XSjyQEC+9doflcBo33hSyocpMremHwKwidQtk/3D7Eo67UnB/1KhWUIf88TnmAILyybLGYHwbVBSKDiXt3Ri3GQehwiyoEKJQifBHZFGZJWJIqPsAowOwMrRHhRlKe7PR5vGsdbgzWPQapz4AyEVAm6+x2BEAkcVqPxtqHsGYNRmqAYoURhpAh7qga5FXa3WklSMOFeb6OsFHi9N/SrVaHdE1p1Iyvaa8Vs17rmCPyLQM1DOtRPsHciQYmpGikwyhdGmPwfAnso7GQZl0lk9IZZp0hgECz3oV2EdvFYlvcI7ziHw9SJOwMhdYZOgiOQJgIqu8+gsKiQnXxlR/XYQX12QgJHst0h2GHYRYTtexPemFz75pw4TyEmkFQw/gHGmXAjyvsI76OsDqrUKW/5wlvis5oY74vHe4WFvLt0EhucE1eapjgHupk/X2OPD2f7Atgp5rGD+OzgC7uoz+4q7I6ymyfB0dn2KmyPUihKngp5QQUTxYTCmnVqdqfWCbyvPev0HRHeFHjT93kHeC+Z5P34EFav2oHV88Y43xfby8cZCLaJOnmOQJoJHDxX81auJb8wTl68g7xEnFi3Ei9QPI0jfgdesOG7CSSOeoJv/nQnSOYJiS4hMXRT8IPctXSGMR6cR3eapzDnu6tR9XiY/I488grXkydCfKMQz1NiJPCSHhL3egqcJXw0lo8mNqBxIamFJDo7SMaH0N21HV3DO+keTAWTMrk4nIGQSfqub0fAEXAEHAFHIKIEnIEQ0YlxajkCjoAj4Ag4Apkk4AyETNJ3fTsCjoAj4Ag4AhEl4AyEiE6MU8sRcAQcAUfAEcgkAWcgZJK+69sRcAQcAUfAEYgoAWcgRHRinFqOgCPgCDgCjkAmCTgDIZP0Xd+OgCPgCDgCjkBECTgDIaIT49RyBBwBR8ARcAQyScAZCJmk7/p2BBwBR8ARcAQiSsAZCBGdGKeWI+AIOAKOgCOQSQLOQMgkfde3I+AIOAKOgCMQUQLOQIjoxDi1HAFHwBFwBByBTBJwBkIm6bu+HQFHwBFwBByBiBJwBkJEJ8ap5Qg4Ao6AI+AIZJKAMxAySd/17Qg4Ao6AI+AIRJSAMxAiOjFOLUfAEXAEHAFHIJMEnIGQSfqub0fAEXAEHAFHIKIEnIEQ0YlxajkCjoAj4Ag4Apkk4AyETNJ3fTsCjoAj4Ag4AhEl4AyEiE6MU8sRcAQcAUfAEcgkAWcgZJK+69sRcAQcAUfAEYgoAWcgRHRinFqOgCPgCDgCjkAmCTgDIZP0Xd+OgCPgCDgCjkBECTgDIaIT49RyBBwBR8ARcAQyScAZCJmk7/p2BBwBR8ARcAQiSsAZCBGdGKeWI+AIOAKOgCOQSQLOQMgkfde3I+AIOAKOgCMQUQLOQIjoxDi1HAFHwBFwBByBTBJwBkIm6bu+HQFHwBFwBByBiBJwBkJEJ8ap5Qg4Ao6AI+AIZJKAMxAySd/17Qg4Ao6AI+AIRJSAMxAiOjFOLUfAEXAEHAFHIJMEnIGQSfqub0fAEXAEHAFHIKIE/g8zCXYy8DvXEQAAAABJRU5ErkJggg==;fontColor=#000000;" parent="1" vertex="1">
                    <mxGeometry x="260" y="221" width="75" height="75" as="geometry"/>
                </mxCell>
            </root>
        </mxGraphModel>
    </diagram>
</mxfile>
